{
.appVersion = "3418";
DisplayStrings = (
"GlLingwormianananzxxxccvvvvbbbnnmb/space tpbpbpbpbpbpbpbpbpbhdhlibnb",
"AÆBCDEFGHIJKKIIIILIK0LIN\012L/Lslash MN/Eng DO/OE PÞQRS/Germandbls TOUHHHVHHHHWXHHYHHZ/Zdotaccent.ss01 aæbcdðefghi/idotless jkl/lcaron mnoø/oe qrsßt/tbar/tcaron/tcedilla/tcommaaccent uvwxvvyz/a.ss01/c.ss01/l.ss01/u.ss01/f_f/f_t/t_t ªº/Delta/Omega/mu/pi 0123456789/zero.osf/one.osf/two.osf/three.osf/four.osf/five.osf/six.osf/seven.osf/eight.osf/nine.osf/zero.dnom/one.dnom/two.dnom/three.dnom/four.dnom/five.dnom/six.dnom/seven.dnom/eight.dnom/fraction -­/endash/emdash _(){}[]/parenleft.case/parenright.case/braceleft.case/braceright.case/bracketleft.case/bracketright.case/quotesinglbase/quotedblbase/quotedblleft/quotedblright/quoteleft/quoteright «»/guilsinglleft/guilsinglright \"'.,:;/ellipsis !¡?¿·/bullet *#///backslash/slash.alt ¢/space/space/space $£+/minus ×÷=/notequal ><~^/product %/perthousand @&¶§©®/trademark °|¦/dagger/daggerdbl/dieresiscomb/dotaccentcomb/gravecomb/acutecomb/hungarumlautcomb/circumflexcomb/caroncomb/brevecomb/ringcomb/tildecomb/macroncomb/commaturnedabovecomb/commaaccentcomb/cedillacomb/ogonekcomb/strokeshortcomb/strokelongcomb/slashlongcomb ¨/dotaccent `´/hungarumlaut/circumflex/caron/breve/ring/tilde ¯¸/ogonek/_p_brzuszek",
0oO0lingkliza,
skiwbas,
"0123456789oo/zero.osf/one.osf/two.osf 3H/three.osf HH/four.osf HHH/five.osf/six.osf/seven.osf/eight.osf/nine.osf",
"H-H­/endash/emdash _O(H)Hertfield{}[]/parenleft.case/parenright.case/braceleft.case/braceright.case/bracketleft.case/bracketright.case/quotesinglbase/quotedblbase/quotedblleft/quotedblright/quoteleft/quoteright «»/guilsinglleft/guilsinglright \"'.,:;/ellipsis !¡?¿·/bullet *#///backslash/slash.alt",
"K0LINKRITalILALFSLHO~:234290569738-7495729-37189-2374-2173-14987",

glyphs = (
{
color = 3;
glyphname = A;
lastChange = "2025-07-23 15:56:57 +0000";
layers = (
{
anchors = (
{
name = bottom;
position = "{270, 0}";
},
{
name = ogonek;
position = "{501, 15}";
},
{
name = top;
position = "{265, 645}";
}
);
background = {
paths = (
{
closed = 1;
nodes = (
"195 624 LINE",
"5 0 LINE",
"107 0 LINE",
"232 453 LINE",
"240 453 LINE",
"356 0 LINE",
"501 0 LINE",
"310 696 LINE",
"175 696 LINE"
);
},
{
closed = 1;
nodes = (
"129 142 LINE",
"345 142 LINE",
"330 216 LINE",
"153 216 LINE"
);
}
);
};
layerId = "F5421C71-FF83-445B-9C53-783D261A57C9";
paths = (
{
closed = 1;
nodes = (
"195 624 LINE",
"5 0 LINE",
"107 0 LINE",
"232 467 LINE",
"240 467 LINE",
"356 0 LINE",
"501 0 LINE",
"310 696 LINE",
"175 696 LINE"
);
},
{
closed = 1;
nodes = (
"129 142 LINE",
"345 142 LINE",
"330 216 LINE",
"153 216 LINE"
);
}
);
width = 506;
},
{
anchors = (
{
name = bottom;
position = "{292, 0}";
},
{
name = ogonek;
position = "{554, 15}";
},
{
name = top;
position = "{280, 645}";
}
);
layerId = "BB1D9E28-2A49-4EEB-AB77-8ACE100BF2E3";
paths = (
{
closed = 1;
nodes = (
"161 0 LINE",
"260 449 LINE",
"263 449 LINE",
"348 0 LINE",
"533 0 LINE",
"361 696 LINE",
"190 696 LINE",
"202 649 LINE",
"20 0 LINE"
);
},
{
closed = 1;
nodes = (
"330 219 LINE",
"177 219 LINE",
"155 129 LINE",
"344 129 LINE"
);
}
);
width = 553;
},
{
anchors = (
{
name = bottom;
position = "{270, 0}";
},
{
name = ogonek;
position = "{501, 15}";
},
{
name = top;
position = "{270, 645}";
}
);
guideLines = (
{
angle = 103.0247;
position = "{216, 348}";
}
);
layerId = "20F347C1-683B-45AE-B240-2F1F38013DFA";
paths = (
{
closed = 1;
nodes = (
"356 0 LINE",
"502 0 LINE",
"322 696 LINE",
"195 696 LINE"
);
},
{
closed = 1;
nodes = (
"174 539 LINE",
"5 0 LINE",
"107 0 LINE",
"212 366 LINE"
);
},
{
closed = 1;
nodes = (
"129 134 LINE",
"266 134 LINE",
"247 216 LINE",
"153 216 LINE"
);
}
);
width = 506;
},
{
anchors = (
{
name = bottom;
position = "{270, 0}";
},
{
name = ogonek;
position = "{492, 15}";
},
{
name = top;
position = "{283, 645}";
}
);
layerId = "C78A6D26-59D2-48D5-9C7D-482EE6030F02";
paths = (
{
closed = 1;
nodes = (
"194 691 OFFCURVE",
"195 686 OFFCURVE",
"196 682 CURVE SMOOTH",
"237 481 OFFCURVE",
"315 194 OFFCURVE",
"355 0 CURVE",
"371 -14 OFFCURVE",
"461 -15 OFFCURVE",
"502 0 CURVE",
"443 222 OFFCURVE",
"375 485 OFFCURVE",
"319 696 CURVE",
"286 703 OFFCURVE",
"221 699 OFFCURVE",
"193 695 CURVE"
);
},
{
closed = 1;
nodes = (
"262 678 OFFCURVE",
"246 679 OFFCURVE",
"209 673 CURVE",
"202 646 OFFCURVE",
"44 130 OFFCURVE",
"6 4 CURVE",
"12 -6 OFFCURVE",
"50 -16 OFFCURVE",
"108 -3 CURVE",
"111 5 OFFCURVE",
"112 11 OFFCURVE",
"114 18 CURVE SMOOTH",
"114 18 OFFCURVE",
"261 546 OFFCURVE",
"294 669 CURVE"
);
},
{
closed = 1;
nodes = (
"107 168 OFFCURVE",
"98 169 OFFCURVE",
"113 132 CURVE",
"227 130 OFFCURVE",
"245 130 OFFCURVE",
"356 132 CURVE",
"371 169 OFFCURVE",
"371 174 OFFCURVE",
"356 211 CURVE",
"122 211 LINE"
);
}
);
width = 495;
}
);
leftKerningGroup = A;
rightKerningGroup = A;
unicode = 0041;
},
{
glyphname = Aogonek;
lastChange = "2025-07-22 10:47:25 +0000";
layers = (
{
anchors = (
{
name = _ogonek;
position = "{540, 15}";
},
{
name = bottom;
position = "{270, 0}";
},
{
name = ogonek;
position = "{501, 15}";
},
{
name = top;
position = "{258, 645}";
}
);
components = (
{
name = A;
}
);
layerId = "F5421C71-FF83-445B-9C53-783D261A57C9";
paths = (
{
closed = 1;
nodes = (
"494 12 LINE",
"424 23 OFFCURVE",
"322 -21 OFFCURVE",
"322 -126 CURVE SMOOTH",
"322 -209 OFFCURVE",
"382 -233 OFFCURVE",
"430 -233 CURVE SMOOTH",
"466 -233 OFFCURVE",
"486 -224 OFFCURVE",
"501 -218 CURVE",
"501 -132 LINE",
"429 -134 LINE",
"429 -39 LINE",
"429 -35 OFFCURVE",
"460 -14 OFFCURVE",
"501 0 CURVE"
);
}
);
width = 506;
},
{
anchors = (
{
name = _ogonek;
position = "{541, 15}";
},
{
name = bottom;
position = "{270, 0}";
},
{
name = ogonek;
position = "{501, 15}";
},
{
name = top;
position = "{260, 645}";
}
);
components = (
{
name = A;
}
);
layerId = "20F347C1-683B-45AE-B240-2F1F38013DFA";
paths = (
{
closed = 1;
nodes = (
"495 12 LINE",
"425 38 OFFCURVE",
"323 -6 OFFCURVE",
"323 -111 CURVE SMOOTH",
"323 -194 OFFCURVE",
"383 -218 OFFCURVE",
"431 -218 CURVE SMOOTH",
"467 -218 OFFCURVE",
"487 -209 OFFCURVE",
"502 -203 CURVE",
"502 -117 LINE",
"430 -119 LINE",
"430 -24 LINE",
"430 -20 OFFCURVE",
"461 -4 OFFCURVE",
"502 0 CURVE"
);
}
);
width = 506;
},
{
anchors = (
{
name = _ogonek;
position = "{516, 15}";
},
{
name = bottom;
position = "{270, 0}";
},
{
name = ogonek;
position = "{501, 15}";
},
{
name = top;
position = "{258, 645}";
}
);
components = (
{
name = A;
}
);
layerId = "BB1D9E28-2A49-4EEB-AB77-8ACE100BF2E3";
paths = (
{
closed = 1;
nodes = (
"491 15 LINE",
"384 4 OFFCURVE",
"276 -9 OFFCURVE",
"276 -127 CURVE SMOOTH",
"276 -196 OFFCURVE",
"317 -238 OFFCURVE",
"396 -238 CURVE SMOOTH",
"427 -238 OFFCURVE",
"457 -232 OFFCURVE",
"499 -219 CURVE",
"499 -128 LINE",
"427 -130 LINE",
"427 -39 LINE SMOOTH",
"427 -30 OFFCURVE",
"428 -33 OFFCURVE",
"499 0 CURVE"
);
}
);
width = 485;
},
{
anchors = (
{
name = bottom;
position = "{270, 0}";
},
{
name = ogonek;
position = "{492, 15}";
},
{
name = top;
position = "{270, 645}";
}
);
components = (
{
name = A;
},
{
name = ogonekcomb;
transform = "{1, 0, 0, 1, 88, 0}";
}
);
layerId = "C78A6D26-59D2-48D5-9C7D-482EE6030F02";
width = 495;
}
);
leftKerningGroup = A;
rightKerningGroup = A;
unicode = 0104;
},
{
glyphname = AE;
lastChange = "2025-07-22 20:25:37 +0000";
layers = (
{
anchors = (
{
name = bottom;
position = "{246, 0}";
},
{
name = ogonek;
position = "{477, 15}";
},
{
name = top;
position = "{246, 645}";
},
{
name = topleft;
position = "{259, 645}";
}
);
layerId = "F5421C71-FF83-445B-9C53-783D261A57C9";
paths = (
{
closed = 1;
nodes = (
"176 650 LINE",
"5 0 LINE",
"115 0 LINE",
"262 629 LINE",
"273 647 LINE"
);
},
{
closed = 1;
nodes = (
"105 134 LINE",
"321 134 LINE",
"306 216 LINE",
"129 216 LINE"
);
},
{
closed = 1;
nodes = (
"268 696 LINE",
"268 0 LINE",
"414 0 LINE",
"414 696 LINE"
);
},
{
closed = 1;
nodes = (
"349 311 LINE",
"555 311 LINE",
"555 393 LINE",
"349 393 LINE"
);
},
{
closed = 1;
nodes = (
"349 0 LINE",
"578 0 LINE",
"566 173 LINE",
"482 68 LINE",
"349 68 LINE"
);
},
{
closed = 1;
nodes = (
"172 629 LINE",
"488 629 LINE",
"566 509 LINE",
"578 696 LINE",
"163 696 LINE"
);
}
);
width = 620;
},
{
anchors = (
{
name = bottom;
position = "{270, 0}";
},
{
name = ogonek;
position = "{501, 15}";
},
{
name = top;
position = "{260, 645}";
},
{
name = topleft;
position = "{284, 645}";
}
);
layerId = "20F347C1-683B-45AE-B240-2F1F38013DFA";
paths = (
{
closed = 1;
nodes = (
"242 696 LINE",
"5 0 LINE",
"107 0 LINE",
"242 453 LINE"
);
},
{
closed = 1;
nodes = (
"129 134 LINE",
"242 134 LINE",
"242 216 LINE",
"153 216 LINE"
);
},
{
closed = 1;
nodes = (
"293 696 LINE",
"293 0 LINE",
"438 0 LINE",
"438 696 LINE"
);
},
{
closed = 1;
nodes = (
"509 311 LINE",
"590 296 LINE",
"590 408 LINE",
"509 393 LINE"
);
},
{
closed = 1;
nodes = (
"509 0 LINE",
"612 0 LINE",
"600 177 LINE",
"509 68 LINE"
);
},
{
closed = 1;
nodes = (
"509 629 LINE",
"600 509 LINE",
"612 696 LINE",
"509 696 LINE"
);
}
);
width = 654;
},
{
anchors = (
{
name = bottom;
position = "{275, 0}";
},
{
name = ogonek;
position = "{506, 15}";
},
{
name = top;
position = "{275, 645}";
},
{
name = topleft;
position = "{288, 645}";
}
);
layerId = "BB1D9E28-2A49-4EEB-AB77-8ACE100BF2E3";
paths = (
{
closed = 1;
nodes = (
"187 651 LINE",
"-14 0 LINE",
"131 0 LINE",
"250 407 LINE",
"306 646 LINE"
);
},
{
closed = 1;
nodes = (
"111 130 LINE",
"373 130 LINE",
"356 220 LINE",
"138 220 LINE"
);
},
{
closed = 1;
nodes = (
"279 696 LINE",
"279 0 LINE",
"465 0 LINE",
"465 696 LINE"
);
},
{
closed = 1;
nodes = (
"356 307 LINE",
"616 307 LINE",
"616 397 LINE",
"356 397 LINE"
);
},
{
closed = 1;
nodes = (
"356 0 LINE",
"639 0 LINE",
"624 224 LINE",
"505 76 LINE",
"356 76 LINE"
);
},
{
closed = 1;
nodes = (
"181 621 LINE",
"510 621 LINE",
"623 456 LINE",
"639 696 LINE",
"181 696 LINE"
);
}
);
width = 662;
},
{
anchors = (
{
name = bottom;
position = "{270, 0}";
},
{
name = ogonek;
position = "{492, 15}";
},
{
name = top;
position = "{270, 645}";
},
{
name = topleft;
position = "{542, 645}";
}
);
layerId = "C78A6D26-59D2-48D5-9C7D-482EE6030F02";
paths = (
{
closed = 1;
nodes = (
"304 688 OFFCURVE",
"236 694 OFFCURVE",
"209 670 CURVE",
"213 667 OFFCURVE",
"46 134 OFFCURVE",
"6 4 CURVE",
"10 -6 OFFCURVE",
"48 -16 OFFCURVE",
"108 -3 CURVE",
"111 5 OFFCURVE",
"112 11 OFFCURVE",
"114 18 CURVE SMOOTH",
"114 18 OFFCURVE",
"270 563 OFFCURVE",
"324 689 CURVE"
);
},
{
closed = 1;
nodes = (
"107 177 OFFCURVE",
"98 169 OFFCURVE",
"113 132 CURVE",
"233 129 OFFCURVE",
"245 130 OFFCURVE",
"356 132 CURVE",
"371 169 OFFCURVE",
"371 177 OFFCURVE",
"356 214 CURVE",
"254 223 OFFCURVE",
"217 211 OFFCURVE",
"122 220 CURVE"
);
},
{
closed = 1;
nodes = (
"266 672 LINE",
"268 642 OFFCURVE",
"269 612 OFFCURVE",
"269 591 CURVE",
"272 390 LINE",
"415 381 LINE",
"412 657 LINE SMOOTH",
"412 690 OFFCURVE",
"364 690 OFFCURVE",
"343 690 CURVE",
"311 690 OFFCURVE",
"289 686 OFFCURVE",
"275 681 CURVE"
);
},
{
closed = 1;
nodes = (
"269 71 LINE",
"265 0 LINE",
"287 -5 OFFCURVE",
"347 0 OFFCURVE",
"388 0 CURVE",
"412 0 LINE",
"415 381 LINE",
"272 420 LINE"
);
},
{
closed = 1;
nodes = (
"301 307 LINE",
"392 303 OFFCURVE",
"473 304 OFFCURVE",
"563 307 CURVE",
"566 340 OFFCURVE",
"569 365 OFFCURVE",
"566 398 CURVE",
"550 398 OFFCURVE",
"531 398 OFFCURVE",
"516 398 CURVE SMOOTH",
"441 398 OFFCURVE",
"413 389 OFFCURVE",
"368 393 CURVE"
);
},
{
closed = 1;
nodes = (
"291 621 LINE",
"357 621 OFFCURVE",
"428 620 OFFCURVE",
"497 620 CURVE",
"515 591 OFFCURVE",
"548 561 OFFCURVE",
"577 547 CURVE",
"593 594 OFFCURVE",
"605 651 OFFCURVE",
"593 695 CURVE",
"577 695 OFFCURVE",
"553 695 OFFCURVE",
"536 695 CURVE SMOOTH",
"464 695 OFFCURVE",
"427 690 OFFCURVE",
"349 690 CURVE"
);
},
{
closed = 1;
nodes = (
"427 2 OFFCURVE",
"464 -3 OFFCURVE",
"536 -3 CURVE SMOOTH",
"553 -3 OFFCURVE",
"577 -3 OFFCURVE",
"593 -3 CURVE",
"605 41 OFFCURVE",
"593 98 OFFCURVE",
"577 145 CURVE",
"548 131 OFFCURVE",
"515 101 OFFCURVE",
"497 72 CURVE",
"428 72 OFFCURVE",
"357 71 OFFCURVE",
"291 71 CURVE",
"349 2 LINE"
);
}
);
width = 612;
}
);
leftKerningGroup = A;
leftMetricsKey = A;
rightKerningGroup = E;
rightMetricsKey = E;
unicode = 00C6;
},
{
color = 3;
glyphname = B;
lastChange = "2025-07-23 15:51:33 +0000";
layers = (
{
anchors = (
{
name = bottom;
position = "{265, 0}";
},
{
name = top;
position = "{265, 645}";
}
);
background = {
paths = (
{
closed = 1;
nodes = (
"71 0 LINE",
"212 0 LINE",
"212 696 LINE",
"71 696 LINE"
);
},
{
closed = 1;
nodes = (
"295 0 LINE",
"389 0 OFFCURVE",
"470 32 OFFCURVE",
"470 180 CURVE SMOOTH",
"470 285 OFFCURVE",
"445 347 OFFCURVE",
"377 368 CURVE",
"406 372 OFFCURVE",
"451 411 OFFCURVE",
"451 516 CURVE SMOOTH",
"451 626 OFFCURVE",
"412 696 OFFCURVE",
"305 696 CURVE",
"94 696 LINE",
"94 623 LINE",
"304 623 LINE",
"304 396 LINE",
"128 396 LINE",
"128 318 LINE",
"314 318 LINE",
"314 75 LINE",
"167 75 LINE",
"167 0 LINE"
);
}
);
};
layerId = "F5421C71-FF83-445B-9C53-783D261A57C9";
paths = (
{
closed = 1;
nodes = (
"58 0 LINE",
"203 0 LINE",
"203 696 LINE",
"58 696 LINE"
);
},
{
closed = 1;
nodes = (
"295 0 LINE",
"389 0 OFFCURVE",
"471 54 OFFCURVE",
"471 193 CURVE SMOOTH",
"471 307 OFFCURVE",
"413 353 OFFCURVE",
"373 373 CURVE",
"398 388 OFFCURVE",
"458 421 OFFCURVE",
"458 530 CURVE SMOOTH",
"458 628 OFFCURVE",
"408 696 OFFCURVE",
"295 696 CURVE",
"162 696 LINE",
"162 618 LINE",
"309 618 LINE",
"309 407 LINE",
"162 407 LINE",
"162 334 LINE",
"314 334 LINE",
"314 78 LINE",
"162 78 LINE",
"162 0 LINE"
);
}
);
width = 499;
},
{
anchors = (
{
name = bottom;
position = "{253, 0}";
},
{
name = top;
position = "{253, 645}";
}
);
layerId = "20F347C1-683B-45AE-B240-2F1F38013DFA";
paths = (
{
closed = 1;
nodes = (
"57 0 LINE",
"200 0 LINE",
"200 696 LINE",
"57 696 LINE"
);
},
{
closed = 1;
nodes = (
"278 0 LINE",
"368 0 OFFCURVE",
"448 35 OFFCURVE",
"448 181 CURVE SMOOTH",
"448 276 OFFCURVE",
"424 338 OFFCURVE",
"335 368 CURVE",
"386 380 OFFCURVE",
"430 419 OFFCURVE",
"430 516 CURVE SMOOTH",
"430 626 OFFCURVE",
"379 696 OFFCURVE",
"278 696 CURVE"
);
}
);
width = 490;
},
{
anchors = (
{
name = bottom;
position = "{251, 0}";
},
{
name = top;
position = "{251, 645}";
}
);
layerId = "BB1D9E28-2A49-4EEB-AB77-8ACE100BF2E3";
paths = (
{
closed = 1;
nodes = (
"397 364 OFFCURVE",
"465 428 OFFCURVE",
"465 530 CURVE SMOOTH",
"465 639 OFFCURVE",
"406 696 OFFCURVE",
"272 696 CURVE SMOOTH",
"35 696 LINE",
"35 0 LINE",
"276 0 LINE SMOOTH",
"420 0 OFFCURVE",
"483 61 OFFCURVE",
"483 196 CURVE SMOOTH",
"483 309 OFFCURVE",
"430 366 OFFCURVE",
"327 377 CURVE",
"330 364 LINE"
);
},
{
closed = 1;
nodes = (
"278 400 LINE",
"220 400 LINE",
"220 615 LINE",
"278 615 LINE"
);
},
{
closed = 1;
nodes = (
"220 83 LINE",
"220 314 LINE",
"283 314 LINE",
"283 83 LINE"
);
}
);
width = 493;
},
{
anchors = (
{
name = bottom;
position = "{251, 0}";
},
{
name = top;
position = "{251, 645}";
}
);
layerId = "C78A6D26-59D2-48D5-9C7D-482EE6030F02";
paths = (
{
closed = 1;
nodes = (
"390 372 OFFCURVE",
"438 414 OFFCURVE",
"438 509 CURVE SMOOTH",
"438 710 OFFCURVE",
"350 716 OFFCURVE",
"56 696 CURVE",
"56 0 LINE",
"292 -13 OFFCURVE",
"452 -32 OFFCURVE",
"452 180 CURVE SMOOTH",
"452 288 OFFCURVE",
"427 346 OFFCURVE",
"361 368 CURVE"
);
},
{
closed = 1;
nodes = (
"291 601 OFFCURVE",
"298 402 OFFCURVE",
"284 396 CURVE",
"249 394 OFFCURVE",
"220 394 OFFCURVE",
"199 394 CURVE",
"197 620 LINE",
"224 621 OFFCURVE",
"256 621 OFFCURVE",
"287 621 CURVE"
);
},
{
closed = 1;
nodes = (
"198 75 LINE",
"199 317 LINE",
"298 317 LINE",
"302 286 OFFCURVE",
"302 100 OFFCURVE",
"296 75 CURVE"
);
}
);
width = 474;
}
);
leftKerningGroup = H;
leftMetricsKey = H;
rightKerningGroup = B;
unicode = 0042;
},
{
color = 3;
glyphname = C;
lastChange = "2025-07-23 15:45:56 +0000";
layers = (
{
anchors = (
{
name = bottom;
position = "{249, 0}";
},
{
name = top;
position = "{271, 645}";
}
);
layerId = "F5421C71-FF83-445B-9C53-783D261A57C9";
paths = (
{
closed = 1;
nodes = (
"295 72 LINE",
"207 72 LINE",
"207 618 LINE",
"294 618 LINE",
"403 486 LINE",
"420 665 LINE",
"373 691 OFFCURVE",
"328 701 OFFCURVE",
"276 701 CURVE",
"260 701 LINE",
"107 696 OFFCURVE",
"34 593 OFFCURVE",
"34 344 CURVE SMOOTH",
"34 69 OFFCURVE",
"102 -11 OFFCURVE",
"257 -11 CURVE SMOOTH",
"315 -11 OFFCURVE",
"367 1 OFFCURVE",
"414 22 CURVE",
"399 191 LINE"
);
}
);
width = 451;
},
{
anchors = (
{
name = bottom;
position = "{261, 0}";
},
{
name = top;
position = "{225, 645}";
}
);
layerId = "20F347C1-683B-45AE-B240-2F1F38013DFA";
paths = (
{
closed = 1;
nodes = (
"276 618 LINE",
"387 486 LINE",
"404 665 LINE",
"363 687 OFFCURVE",
"332 699 OFFCURVE",
"276 699 CURVE"
);
},
{
closed = 1;
nodes = (
"276 -6 LINE",
"329 -6 OFFCURVE",
"366 7 OFFCURVE",
"408 23 CURVE",
"383 196 LINE",
"276 77 LINE"
);
},
{
closed = 1;
nodes = (
"195 698 LINE",
"85 698 OFFCURVE",
"30 575 OFFCURVE",
"30 344 CURVE",
"195 344 LINE"
);
},
{
closed = 1;
nodes = (
"195 344 LINE",
"30 344 LINE",
"30 105 OFFCURVE",
"79 -1 OFFCURVE",
"195 -1 CURVE"
);
}
);
width = 435;
},
{
anchors = (
{
name = bottom;
position = "{255, 0}";
},
{
name = top;
position = "{275, 645}";
}
);
layerId = "BB1D9E28-2A49-4EEB-AB77-8ACE100BF2E3";
paths = (
{
closed = 1;
nodes = (
"254 76 LINE",
"235 76 LINE",
"235 614 LINE",
"252 614 LINE",
"403 448 LINE",
"416 669 LINE",
"366 695 OFFCURVE",
"313 705 OFFCURVE",
"259 705 CURVE SMOOTH",
"98 705 OFFCURVE",
"18 596 OFFCURVE",
"18 344 CURVE SMOOTH",
"18 80 OFFCURVE",
"84 -15 OFFCURVE",
"254 -15 CURVE SMOOTH",
"314 -15 OFFCURVE",
"362 -2 OFFCURVE",
"420 18 CURVE",
"399 224 LINE"
);
}
);
width = 428;
},
{
anchors = (
{
name = bottom;
position = "{248, 0}";
},
{
name = top;
position = "{258, 645}";
}
);
layerId = "C78A6D26-59D2-48D5-9C7D-482EE6030F02";
paths = (
{
closed = 1;
nodes = (
"203 344 LINE",
"203 474 OFFCURVE",
"207 582 OFFCURVE",
"212 614 CURVE",
"289 614 LINE",
"302 589 OFFCURVE",
"343 544 OFFCURVE",
"388 512 CURVE",
"415 528 OFFCURVE",
"423 590 OFFCURVE",
"428 655 CURVE",
"369 688 OFFCURVE",
"321 696 OFFCURVE",
"264 696 CURVE",
"239 696 LINE",
"93 696 OFFCURVE",
"31 570 OFFCURVE",
"31 344 CURVE"
);
},
{
closed = 1;
nodes = (
"31 138 OFFCURVE",
"64 -8 OFFCURVE",
"259 -9 CURVE",
"292 -9 LINE",
"335 -9 OFFCURVE",
"373 0 OFFCURVE",
"420 20 CURVE",
"416 74 OFFCURVE",
"405 128 OFFCURVE",
"392 167 CURVE",
"340 138 OFFCURVE",
"296 93 OFFCURVE",
"280 74 CURVE",
"212 74 LINE",
"207 105 OFFCURVE",
"203 213 OFFCURVE",
"203 344 CURVE",
"31 344 LINE"
);
}
);
width = 430;
}
);
leftKerningGroup = O;
leftMetricsKey = O;
rightKerningGroup = C;
unicode = 0043;
},
{
glyphname = Cacute;
lastChange = "2025-07-23 11:49:57 +0000";
layers = (
{
anchors = (
{
name = bottom;
position = "{245, 0}";
},
{
name = top;
position = "{260, 645}";
}
);
components = (
{
name = C;
},
{
name = acutecomb;
transform = "{1, 0, 0, 1, 209, 127}";
}
);
layerId = "F5421C71-FF83-445B-9C53-783D261A57C9";
width = 451;
},
{
anchors = (
{
name = bottom;
position = "{273, 0}";
},
{
name = top;
position = "{278, 645}";
}
);
components = (
{
name = C;
},
{
name = acutecomb;
transform = "{1, 0, 0, 1, 157, 127}";
}
);
layerId = "20F347C1-683B-45AE-B240-2F1F38013DFA";
width = 435;
},
{
anchors = (
{
name = bottom;
position = "{245, 0}";
},
{
name = top;
position = "{260, 645}";
}
);
components = (
{
name = C;
},
{
alignment = -1;
name = acutecomb;
transform = "{1, 0, 0, 1, 200, 127}";
}
);
layerId = "BB1D9E28-2A49-4EEB-AB77-8ACE100BF2E3";
width = 428;
},
{
anchors = (
{
name = bottom;
position = "{237, 0}";
},
{
name = top;
position = "{270, 645}";
}
);
layerId = "C78A6D26-59D2-48D5-9C7D-482EE6030F02";
paths = (
{
closed = 1;
nodes = (
"176 344 LINE",
"176 474 OFFCURVE",
"197 582 OFFCURVE",
"224 614 CURVE",
"258 614 LINE",
"273 593 OFFCURVE",
"341 554 OFFCURVE",
"365 545 CURVE",
"399 560 OFFCURVE",
"422 591 OFFCURVE",
"428 645 CURVE",
"372 686 OFFCURVE",
"327 696 OFFCURVE",
"273 696 CURVE",
"248 696 LINE",
"75 684 OFFCURVE",
"20 500 OFFCURVE",
"20 344 CURVE"
);
},
{
closed = 1;
nodes = (
"20 188 OFFCURVE",
"63 -2 OFFCURVE",
"248 -9 CURVE",
"281 -9 LINE",
"327 -9 OFFCURVE",
"368 0 OFFCURVE",
"419 20 CURVE",
"414 74 OFFCURVE",
"398 128 OFFCURVE",
"381 167 CURVE",
"329 138 OFFCURVE",
"285 93 OFFCURVE",
"269 74 CURVE",
"224 74 LINE",
"197 105 OFFCURVE",
"176 213 OFFCURVE",
"176 344 CURVE",
"20 344 LINE"
);
},
{
closed = 1;
nodes = (
"276 746 OFFCURVE",
"300 755 CURVE",
"329 797 OFFCURVE",
"351 875 OFFCURVE",
"359 908 CURVE",
"350 932 OFFCURVE",
"296 939 OFFCURVE",
"261 933 CURVE",
"255 933 OFFCURVE",
"251 930 OFFCURVE",
"245 917 CURVE",
"233 882 OFFCURVE",
"225 815 OFFCURVE",
"224 767 CURVE",
"239 749 OFFCURVE"
);
}
);
width = 440;
}
);
leftKerningGroup = O;
rightKerningGroup = C;
unicode = 0106;
},
{
glyphname = Ccaron;
lastChange = "2025-07-22 11:54:34 +0000";
layers = (
{
anchors = (
{
name = bottom;
position = "{245, 0}";
},
{
name = top;
position = "{260, 645}";
}
);
components = (
{
name = C;
},
{
name = caroncomb;
transform = "{1, 0, 0, 1, 140, 127}";
}
);
layerId = "F5421C71-FF83-445B-9C53-783D261A57C9";
width = 451;
},
{
anchors = (
{
name = bottom;
position = "{273, 0}";
},
{
name = top;
position = "{278, 645}";
}
);
components = (
{
name = C;
},
{
name = caroncomb;
transform = "{1, 0, 0, 1, 94, 127}";
}
);
layerId = "20F347C1-683B-45AE-B240-2F1F38013DFA";
width = 435;
},
{
anchors = (
{
name = bottom;
position = "{245, 0}";
},
{
name = top;
position = "{260, 645}";
}
);
components = (
{
name = C;
},
{
alignment = -1;
name = caroncomb;
transform = "{1, 0, 0, 1, 125, 127}";
}
);
layerId = "BB1D9E28-2A49-4EEB-AB77-8ACE100BF2E3";
width = 428;
},
{
anchors = (
{
name = bottom;
position = "{237, 0}";
},
{
name = top;
position = "{270, 645}";
}
);
layerId = "C78A6D26-59D2-48D5-9C7D-482EE6030F02";
paths = (
{
closed = 1;
nodes = (
"176 344 LINE",
"176 474 OFFCURVE",
"197 582 OFFCURVE",
"224 614 CURVE",
"258 614 LINE",
"273 593 OFFCURVE",
"341 554 OFFCURVE",
"365 545 CURVE",
"399 560 OFFCURVE",
"422 591 OFFCURVE",
"428 645 CURVE",
"372 686 OFFCURVE",
"327 696 OFFCURVE",
"273 696 CURVE",
"248 696 LINE",
"75 684 OFFCURVE",
"20 500 OFFCURVE",
"20 344 CURVE"
);
},
{
closed = 1;
nodes = (
"20 188 OFFCURVE",
"63 -2 OFFCURVE",
"248 -9 CURVE",
"281 -9 LINE",
"327 -9 OFFCURVE",
"368 0 OFFCURVE",
"419 20 CURVE",
"414 74 OFFCURVE",
"398 128 OFFCURVE",
"381 167 CURVE",
"329 138 OFFCURVE",
"285 93 OFFCURVE",
"269 74 CURVE",
"224 74 LINE",
"197 105 OFFCURVE",
"176 213 OFFCURVE",
"176 344 CURVE",
"20 344 LINE"
);
},
{
closed = 1;
nodes = (
"290 866 OFFCURVE",
"252 795 OFFCURVE",
"227 752 CURVE",
"224 753 OFFCURVE",
"272 747 OFFCURVE",
"318 752 CURVE",
"336 767 OFFCURVE",
"380 854 OFFCURVE",
"399 918 CURVE",
"384 936 OFFCURVE",
"354 939 OFFCURVE",
"330 930 CURVE"
);
},
{
closed = 1;
nodes = (
"183 939 OFFCURVE",
"153 936 OFFCURVE",
"138 918 CURVE",
"158 854 OFFCURVE",
"195 767 OFFCURVE",
"215 752 CURVE",
"260 747 OFFCURVE",
"309 753 OFFCURVE",
"306 752 CURVE",
"282 795 OFFCURVE",
"245 866 OFFCURVE",
"207 930 CURVE"
);
}
);
width = 440;
}
);
leftKerningGroup = O;
rightKerningGroup = C;
unicode = 010C;
},
{
glyphname = Ccedilla;
lastChange = "2025-07-22 11:54:37 +0000";
layers = (
{
anchors = (
{
name = bottom;
position = "{245, 0}";
},
{
name = top;
position = "{260, 645}";
}
);
components = (
{
name = C;
},
{
name = cedillacomb;
transform = "{1, 0, 0, 1, 154, 0}";
}
);
layerId = "F5421C71-FF83-445B-9C53-783D261A57C9";
width = 451;
},
{
anchors = (
{
name = bottom;
position = "{273, 0}";
},
{
name = top;
position = "{278, 645}";
}
);
components = (
{
name = C;
},
{
name = cedillacomb;
transform = "{1, 0, 0, 1, 154, 0}";
}
);
layerId = "20F347C1-683B-45AE-B240-2F1F38013DFA";
width = 435;
},
{
anchors = (
{
name = bottom;
position = "{245, 0}";
},
{
name = top;
position = "{260, 645}";
}
);
components = (
{
name = C;
},
{
alignment = -1;
name = cedillacomb;
transform = "{1, 0, 0, 1, 171, -17}";
}
);
layerId = "BB1D9E28-2A49-4EEB-AB77-8ACE100BF2E3";
width = 428;
},
{
anchors = (
{
name = bottom;
position = "{237, 0}";
},
{
name = top;
position = "{270, 645}";
}
);
layerId = "C78A6D26-59D2-48D5-9C7D-482EE6030F02";
paths = (
{
closed = 1;
nodes = (
"176 344 LINE",
"176 474 OFFCURVE",
"197 582 OFFCURVE",
"224 614 CURVE",
"258 614 LINE",
"273 593 OFFCURVE",
"341 554 OFFCURVE",
"365 545 CURVE",
"399 560 OFFCURVE",
"422 591 OFFCURVE",
"428 645 CURVE",
"372 686 OFFCURVE",
"327 696 OFFCURVE",
"273 696 CURVE",
"248 696 LINE",
"75 684 OFFCURVE",
"20 500 OFFCURVE",
"20 344 CURVE"
);
},
{
closed = 1;
nodes = (
"20 188 OFFCURVE",
"63 -2 OFFCURVE",
"248 -9 CURVE",
"281 -9 LINE",
"327 -9 OFFCURVE",
"368 0 OFFCURVE",
"419 20 CURVE",
"414 74 OFFCURVE",
"398 128 OFFCURVE",
"381 167 CURVE",
"329 138 OFFCURVE",
"285 93 OFFCURVE",
"269 74 CURVE",
"224 74 LINE",
"197 105 OFFCURVE",
"176 213 OFFCURVE",
"176 344 CURVE",
"20 344 LINE"
);
},
{
closed = 1;
nodes = (
"185 5 OFFCURVE",
"179 -14 OFFCURVE",
"165 -80 CURVE",
"236 -78 OFFCURVE",
"269 -110 OFFCURVE",
"243 -153 CURVE",
"239 -153 OFFCURVE",
"224 -153 OFFCURVE",
"218 -153 CURVE SMOOTH",
"203 -153 OFFCURVE",
"188 -146 OFFCURVE",
"164 -140 CURVE",
"141 -159 OFFCURVE",
"141 -215 OFFCURVE",
"147 -228 CURVE",
"161 -234 OFFCURVE",
"191 -243 OFFCURVE",
"225 -243 CURVE SMOOTH",
"282 -243 OFFCURVE",
"353 -218 OFFCURVE",
"353 -119 CURVE SMOOTH",
"353 -80 OFFCURVE",
"339 -36 OFFCURVE",
"257 -36 CURVE",
"266 -3 OFFCURVE",
"269 15 OFFCURVE",
"270 23 CURVE",
"188 27 LINE"
);
}
);
width = 440;
}
);
leftKerningGroup = O;
rightKerningGroup = C;
unicode = 00C7;
},
{
glyphname = Cdotaccent;
lastChange = "2025-07-22 11:54:48 +0000";
layers = (
{
anchors = (
{
name = bottom;
position = "{245, 0}";
},
{
name = top;
position = "{260, 932}";
}
);
components = (
{
name = C;
},
{
name = dotaccentcomb;
transform = "{1, 0, 0, 1, 194, 127}";
}
);
layerId = "F5421C71-FF83-445B-9C53-783D261A57C9";
width = 451;
},
{
anchors = (
{
name = bottom;
position = "{273, 0}";
},
{
name = top;
position = "{239, 672}";
}
);
components = (
{
name = C;
},
{
name = dotaccentcomb;
transform = "{1, 0, 0, 1, 148, 127}";
}
);
layerId = "20F347C1-683B-45AE-B240-2F1F38013DFA";
width = 435;
},
{
anchors = (
{
name = bottom;
position = "{245, 0}";
},
{
name = top;
position = "{260, 932}";
}
);
components = (
{
name = C;
},
{
alignment = -1;
name = dotaccentcomb;
transform = "{1, 0, 0, 1, 177, 127}";
}
);
layerId = "BB1D9E28-2A49-4EEB-AB77-8ACE100BF2E3";
width = 428;
},
{
anchors = (
{
name = bottom;
position = "{237, 0}";
},
{
name = top;
position = "{270, 932}";
}
);
hints = (
{
horizontal = 1;
place = "{4062, 971}";
type = Stem;
},
{
place = "{1044, 818}";
type = Stem;
}
);
layerId = "C78A6D26-59D2-48D5-9C7D-482EE6030F02";
paths = (
{
closed = 1;
nodes = (
"176 344 LINE",
"176 474 OFFCURVE",
"197 582 OFFCURVE",
"224 614 CURVE",
"258 614 LINE",
"273 593 OFFCURVE",
"341 554 OFFCURVE",
"365 545 CURVE",
"399 560 OFFCURVE",
"422 591 OFFCURVE",
"428 645 CURVE",
"372 686 OFFCURVE",
"327 696 OFFCURVE",
"273 696 CURVE",
"248 696 LINE",
"75 684 OFFCURVE",
"20 500 OFFCURVE",
"20 344 CURVE"
);
},
{
closed = 1;
nodes = (
"20 188 OFFCURVE",
"63 -2 OFFCURVE",
"248 -9 CURVE",
"281 -9 LINE",
"327 -9 OFFCURVE",
"368 0 OFFCURVE",
"419 20 CURVE",
"414 74 OFFCURVE",
"398 128 OFFCURVE",
"381 167 CURVE",
"329 138 OFFCURVE",
"285 93 OFFCURVE",
"269 74 CURVE",
"224 74 LINE",
"197 105 OFFCURVE",
"176 213 OFFCURVE",
"176 344 CURVE",
"20 344 LINE"
);
},
{
closed = 1;
nodes = (
"297 743 OFFCURVE",
"323 767 CURVE",
"345 794 OFFCURVE",
"351 854 OFFCURVE",
"339 890 CURVE",
"321 935 OFFCURVE",
"242 945 OFFCURVE",
"213 914 CURVE",
"189 882 OFFCURVE",
"188 816 OFFCURVE",
"207 779 CURVE",
"228 746 OFFCURVE"
);
}
);
width = 440;
}
);
leftKerningGroup = O;
rightKerningGroup = C;
unicode = 010A;
},
{
glyphname = D;
lastChange = "2025-07-23 15:44:10 +0000";
layers = (
{
anchors = (
{
name = bottom;
position = "{280, 0}";
},
{
name = center;
position = "{284, 363}";
},
{
name = top;
position = "{280, 645}";
}
);
layerId = "F5421C71-FF83-445B-9C53-783D261A57C9";
paths = (
{
closed = 1;
nodes = (
"58 696 LINE",
"58 0 LINE",
"302 0 LINE",
"445 0 OFFCURVE",
"496 156 OFFCURVE",
"496 341 CURVE SMOOTH",
"496 557 OFFCURVE",
"439 696 OFFCURVE",
"298 696 CURVE"
);
},
{
closed = 1;
nodes = (
"203 618 LINE",
"323 618 LINE",
"323 78 LINE",
"203 78 LINE"
);
}
);
width = 530;
},
{
anchors = (
{
name = bottom;
position = "{264, 0}";
},
{
name = center;
position = "{269, 363}";
},
{
name = top;
position = "{264, 645}";
}
);
layerId = "20F347C1-683B-45AE-B240-2F1F38013DFA";
paths = (
{
closed = 1;
nodes = (
"278 0 LINE",
"381 0 OFFCURVE",
"443 136 OFFCURVE",
"443 341 CURVE SMOOTH",
"443 577 OFFCURVE",
"380 696 OFFCURVE",
"278 696 CURVE"
);
},
{
closed = 1;
nodes = (
"57 696 LINE",
"57 0 LINE",
"200 0 LINE",
"200 696 LINE"
);
}
);
width = 473;
},
{
anchors = (
{
name = bottom;
position = "{264, 0}";
},
{
name = center;
position = "{268, 363}";
},
{
name = top;
position = "{264, 645}";
}
);
layerId = "BB1D9E28-2A49-4EEB-AB77-8ACE100BF2E3";
paths = (
{
closed = 1;
nodes = (
"35 696 LINE",
"35 0 LINE",
"286 0 LINE SMOOTH",
"428 0 OFFCURVE",
"502 120 OFFCURVE",
"502 341 CURVE SMOOTH",
"502 577 OFFCURVE",
"431 696 OFFCURVE",
"282 696 CURVE SMOOTH"
);
},
{
closed = 1;
nodes = (
"221 84 LINE",
"221 606 LINE",
"285 606 LINE",
"285 84 LINE"
);
}
);
width = 520;
},
{
anchors = (
{
name = bottom;
position = "{264, 0}";
},
{
name = center;
position = "{264, 375}";
},
{
name = top;
position = "{248, 645}";
}
);
layerId = "C78A6D26-59D2-48D5-9C7D-482EE6030F02";
paths = (
{
closed = 1;
nodes = (
"230 696 LINE SMOOTH",
"180 696 OFFCURVE",
"92 695 OFFCURVE",
"57 681 CURVE",
"57 591 LINE",
"60 401 LINE",
"57 71 LINE",
"56 0 LINE",
"57 0 LINE",
"56 -2 LINE",
"98 -5 OFFCURVE",
"141 -8 OFFCURVE",
"195 -8 CURVE SMOOTH",
"273 -8 LINE SMOOTH",
"430 -3 OFFCURVE",
"485 152 OFFCURVE",
"485 341 CURVE SMOOTH",
"485 557 OFFCURVE",
"423 696 OFFCURVE",
"282 696 CURVE SMOOTH"
);
},
{
closed = 1;
nodes = (
"215 75 LINE",
"201 75 LINE",
"203 381 LINE",
"200 614 LINE",
"296 614 LINE",
"304 596 OFFCURVE",
"314 534 OFFCURVE",
"314 338 CURVE SMOOTH",
"314 224 OFFCURVE",
"306 114 OFFCURVE",
"298 75 CURVE"
);
}
);
width = 516;
}
);
leftKerningGroup = H;
leftMetricsKey = H;
rightKerningGroup = O;
rightMetricsKey = O;
unicode = 0044;
},
{
glyphname = Eth;
lastChange = "2025-07-23 13:40:54 +0000";
layers = (
{
background = {
paths = (
{
closed = 1;
nodes = (
"17 314 LINE",
"294 314 LINE",
"294 386 LINE",
"17 386 LINE"
);
},
{
closed = 1;
nodes = (
"202 614 LINE",
"349 614 LINE",
"349 75 LINE",
"150 78 LINE",
"97 0 LINE",
"328 0 LINE",
"471 0 OFFCURVE",
"522 156 OFFCURVE",
"522 341 CURVE SMOOTH",
"522 557 OFFCURVE",
"465 696 OFFCURVE",
"324 696 CURVE",
"99 696 LINE"
);
},
{
closed = 1;
nodes = (
"99 696 LINE",
"99 0 LINE",
"241 0 LINE",
"241 696 LINE"
);
}
);
};
components = (
{
alignment = -1;
name = D;
transform = "{1, 0, 0, 1, 29, 0}";
},
{
name = strokeshortcomb;
transform = "{0.8318, 0, 0, 1.0642, 32, -297}";
}
);
layerId = "F5421C71-FF83-445B-9C53-783D261A57C9";
width = 559;
},
{
anchors = (
{
name = bottom;
position = "{421, 0}";
},
{
name = center;
position = "{425, 363}";
},
{
name = top;
position = "{421, 645}";
}
);
components = (
{
name = D;
transform = "{1, 0, 0, 1, 53, 0}";
}
);
layerId = "20F347C1-683B-45AE-B240-2F1F38013DFA";
paths = (
{
closed = 1;
nodes = (
"17 314 LINE",
"294 314 LINE",
"294 386 LINE",
"17 386 LINE"
);
}
);
width = 526;
},
{
anchors = (
{
name = bottom;
position = "{428, 348}";
},
{
name = center;
position = "{432, 348}";
},
{
name = top;
position = "{428, 348}";
}
);
components = (
{
alignment = -1;
name = D;
transform = "{1, 0, 0, 1, 29, 0}";
},
{
name = strokeshortcomb;
transform = "{0.8318, 0, 0, 1.0642, 12, -297}";
}
);
layerId = "BB1D9E28-2A49-4EEB-AB77-8ACE100BF2E3";
width = 549;
},
{
anchors = (
{
name = bottom;
position = "{252, 0}";
},
{
name = center;
position = "{252, 375}";
},
{
name = top;
position = "{252, 645}";
}
);
components = (
{
name = D;
},
{
name = strokeshortcomb;
transform = "{0.8738, 0, 0, 0.7709, -25, -120}";
}
);
layerId = "C78A6D26-59D2-48D5-9C7D-482EE6030F02";
width = 516;
}
);
leftKerningGroup = H;
rightKerningGroup = O;
rightMetricsKey = D;
unicode = 00D0;
},
{
color = 3;
glyphname = E;
lastChange = "2025-07-23 15:51:16 +0000";
layers = (
{
anchors = (
{
name = bottom;
position = "{219, 0}";
},
{
name = ogonek;
position = "{378, 15}";
},
{
name = top;
position = "{219, 645}";
},
{
name = topleft;
position = "{48, 645}";
}
);
layerId = "F5421C71-FF83-445B-9C53-783D261A57C9";
paths = (
{
closed = 1;
nodes = (
"58 696 LINE",
"58 0 LINE",
"203 0 LINE",
"203 696 LINE"
);
},
{
closed = 1;
nodes = (
"137 317 LINE",
"353 317 LINE",
"353 392 LINE",
"137 392 LINE"
);
},
{
closed = 1;
nodes = (
"138 0 LINE",
"377 0 LINE",
"365 173 LINE",
"281 68 LINE",
"138 68 LINE"
);
},
{
closed = 1;
nodes = (
"138 628 LINE",
"287 628 LINE",
"365 509 LINE",
"377 696 LINE",
"138 696 LINE"
);
}
);
width = 419;
},
{
anchors = (
{
name = bottom;
position = "{216, 0}";
},
{
name = ogonek;
position = "{407, 15}";
},
{
name = top;
position = "{216, 645}";
},
{
name = topleft;
position = "{45, 645}";
}
);
guideLines = (
{
position = "{272, 627}";
}
);
layerId = "20F347C1-683B-45AE-B240-2F1F38013DFA";
paths = (
{
closed = 1;
nodes = (
"57 696 LINE",
"57 0 LINE",
"200 0 LINE",
"200 696 LINE"
);
},
{
closed = 1;
nodes = (
"261 311 LINE",
"351 296 LINE",
"351 408 LINE",
"261 393 LINE"
);
},
{
closed = 1;
nodes = (
"270 0 LINE",
"374 0 LINE",
"362 196 LINE",
"270 68 LINE"
);
},
{
closed = 1;
nodes = (
"270 629 LINE",
"362 486 LINE",
"374 696 LINE",
"270 696 LINE"
);
}
);
width = 416;
},
{
anchors = (
{
name = bottom;
position = "{219, 0}";
},
{
name = ogonek;
position = "{410, 15}";
},
{
name = top;
position = "{219, 645}";
},
{
name = topleft;
position = "{48, 645}";
}
);
layerId = "BB1D9E28-2A49-4EEB-AB77-8ACE100BF2E3";
paths = (
{
closed = 1;
nodes = (
"225 76 LINE",
"225 303 LINE",
"366 303 LINE",
"366 393 LINE",
"225 393 LINE",
"225 621 LINE",
"260 621 LINE",
"383 446 LINE",
"389 696 LINE",
"35 696 LINE",
"35 0 LINE",
"389 0 LINE",
"384 224 LINE",
"255 76 LINE"
);
}
);
width = 412;
},
{
anchors = (
{
name = bottom;
position = "{218, 0}";
},
{
name = ogonek;
position = "{377, 15}";
},
{
name = top;
position = "{238, 645}";
},
{
name = topleft;
position = "{47, 645}";
}
);
layerId = "C78A6D26-59D2-48D5-9C7D-482EE6030F02";
paths = (
{
closed = 1;
nodes = (
"57 672 LINE",
"59 642 OFFCURVE",
"60 612 OFFCURVE",
"60 591 CURVE",
"63 390 LINE",
"206 381 LINE",
"203 657 LINE SMOOTH",
"203 690 OFFCURVE",
"155 690 OFFCURVE",
"134 690 CURVE",
"102 690 OFFCURVE",
"80 686 OFFCURVE",
"66 681 CURVE"
);
},
{
closed = 1;
nodes = (
"60 71 LINE",
"56 0 LINE",
"78 -5 OFFCURVE",
"138 0 OFFCURVE",
"179 0 CURVE",
"203 0 LINE",
"206 381 LINE",
"63 420 LINE"
);
},
{
closed = 1;
nodes = (
"92 307 LINE",
"183 303 OFFCURVE",
"264 304 OFFCURVE",
"354 307 CURVE",
"357 340 OFFCURVE",
"360 365 OFFCURVE",
"357 398 CURVE",
"341 398 OFFCURVE",
"322 398 OFFCURVE",
"307 398 CURVE SMOOTH",
"232 398 OFFCURVE",
"204 389 OFFCURVE",
"159 393 CURVE"
);
},
{
closed = 1;
nodes = (
"82 621 LINE",
"148 621 OFFCURVE",
"219 620 OFFCURVE",
"288 620 CURVE",
"306 591 OFFCURVE",
"339 561 OFFCURVE",
"368 547 CURVE",
"384 594 OFFCURVE",
"396 651 OFFCURVE",
"384 695 CURVE",
"368 695 OFFCURVE",
"344 695 OFFCURVE",
"327 695 CURVE SMOOTH",
"255 693 OFFCURVE",
"218 690 OFFCURVE",
"140 690 CURVE"
);
},
{
closed = 1;
nodes = (
"218 2 OFFCURVE",
"255 -3 OFFCURVE",
"327 -3 CURVE SMOOTH",
"344 -3 OFFCURVE",
"368 -3 OFFCURVE",
"384 -3 CURVE",
"396 41 OFFCURVE",
"384 98 OFFCURVE",
"368 145 CURVE",
"339 131 OFFCURVE",
"306 101 OFFCURVE",
"288 72 CURVE",
"219 72 OFFCURVE",
"148 71 OFFCURVE",
"82 71 CURVE",
"140 2 LINE"
);
}
);
width = 403;
}
);
leftKerningGroup = H;
leftMetricsKey = H;
rightKerningGroup = E;
unicode = 0045;
},
{
glyphname = Eogonek;
lastChange = "2025-07-22 10:47:25 +0000";
layers = (
{
anchors = (
{
name = _ogonek;
position = "{418, 15}";
},
{
name = bottom;
position = "{219, 0}";
},
{
name = ogonek;
position = "{378, 15}";
},
{
name = top;
position = "{201, 750}";
},
{
name = topleft;
position = "{48, 645}";
}
);
components = (
{
name = E;
}
);
layerId = "F5421C71-FF83-445B-9C53-783D261A57C9";
paths = (
{
closed = 1;
nodes = (
"370 12 LINE",
"302 23 OFFCURVE",
"200 -21 OFFCURVE",
"200 -126 CURVE SMOOTH",
"200 -209 OFFCURVE",
"260 -233 OFFCURVE",
"308 -233 CURVE SMOOTH",
"344 -233 OFFCURVE",
"364 -224 OFFCURVE",
"379 -218 CURVE",
"379 -132 LINE",
"307 -134 LINE",
"307 -39 LINE",
"307 -35 OFFCURVE",
"338 -14 OFFCURVE",
"377 0 CURVE"
);
}
);
width = 419;
},
{
anchors = (
{
name = _ogonek;
position = "{407, 15}";
},
{
name = bottom;
position = "{219, 0}";
},
{
name = ogonek;
position = "{378, 15}";
},
{
name = top;
position = "{201, 750}";
},
{
name = topleft;
position = "{48, 645}";
}
);
components = (
{
name = E;
}
);
layerId = "20F347C1-683B-45AE-B240-2F1F38013DFA";
paths = (
{
closed = 1;
nodes = (
"367 12 LINE",
"300 18 OFFCURVE",
"198 -20 OFFCURVE",
"198 -111 CURVE SMOOTH",
"198 -194 OFFCURVE",
"258 -218 OFFCURVE",
"306 -218 CURVE SMOOTH",
"342 -218 OFFCURVE",
"362 -209 OFFCURVE",
"377 -203 CURVE",
"377 -117 LINE",
"305 -119 LINE",
"305 -24 LINE",
"305 -22 OFFCURVE",
"336 -9 OFFCURVE",
"374 0 CURVE"
);
}
);
width = 416;
},
{
anchors = (
{
name = _ogonek;
position = "{406, 15}";
},
{
name = bottom;
position = "{219, 0}";
},
{
name = ogonek;
position = "{378, 15}";
},
{
name = top;
position = "{201, 750}";
},
{
name = topleft;
position = "{48, 645}";
}
);
components = (
{
name = E;
}
);
layerId = "BB1D9E28-2A49-4EEB-AB77-8ACE100BF2E3";
paths = (
{
closed = 1;
nodes = (
"381 15 LINE",
"274 4 OFFCURVE",
"166 -9 OFFCURVE",
"166 -127 CURVE SMOOTH",
"166 -196 OFFCURVE",
"207 -238 OFFCURVE",
"286 -238 CURVE SMOOTH",
"317 -238 OFFCURVE",
"347 -232 OFFCURVE",
"389 -219 CURVE",
"389 -128 LINE",
"317 -130 LINE",
"317 -39 LINE SMOOTH",
"317 -30 OFFCURVE",
"318 -33 OFFCURVE",
"389 0 CURVE"
);
}
);
width = 412;
},
{
anchors = (
{
name = bottom;
position = "{203, 0}";
},
{
name = ogonek;
position = "{362, 15}";
},
{
name = top;
position = "{201, 750}";
},
{
name = topleft;
position = "{32, 645}";
}
);
components = (
{
name = E;
},
{
name = ogonekcomb;
transform = "{1, 0, 0, 1, -27, 0}";
}
);
layerId = "C78A6D26-59D2-48D5-9C7D-482EE6030F02";
width = 403;
}
);
leftKerningGroup = E;
rightKerningGroup = E;
unicode = 0118;
},
{
color = 3;
glyphname = F;
lastChange = "2025-07-23 13:46:04 +0000";
layers = (
{
anchors = (
{
name = bottom;
position = "{212, 0}";
},
{
name = top;
position = "{212, 645}";
}
);
layerId = "F5421C71-FF83-445B-9C53-783D261A57C9";
paths = (
{
closed = 1;
nodes = (
"58 696 LINE",
"58 0 LINE",
"203 0 LINE",
"203 696 LINE"
);
},
{
closed = 1;
nodes = (
"139 311 LINE",
"348 311 LINE",
"348 386 LINE",
"139 386 LINE"
);
},
{
closed = 1;
nodes = (
"139 628 LINE",
"282 628 LINE",
"366 524 LINE",
"377 696 LINE",
"139 696 LINE"
);
}
);
width = 419;
},
{
anchors = (
{
name = bottom;
position = "{209, 0}";
},
{
name = top;
position = "{209, 645}";
}
);
layerId = "20F347C1-683B-45AE-B240-2F1F38013DFA";
paths = (
{
closed = 1;
nodes = (
"57 696 LINE",
"57 0 LINE",
"200 0 LINE",
"200 696 LINE"
);
},
{
closed = 1;
nodes = (
"270 311 LINE",
"351 296 LINE",
"351 408 LINE",
"270 393 LINE"
);
},
{
closed = 1;
nodes = (
"270 629 LINE",
"362 486 LINE",
"374 696 LINE",
"270 696 LINE"
);
}
);
width = 416;
},
{
anchors = (
{
name = bottom;
position = "{212, 0}";
},
{
name = top;
position = "{212, 645}";
}
);
layerId = "BB1D9E28-2A49-4EEB-AB77-8ACE100BF2E3";
paths = (
{
closed = 1;
nodes = (
"379 465 LINE",
"389 696 LINE",
"35 696 LINE",
"35 0 LINE",
"225 0 LINE",
"225 303 LINE",
"372 303 LINE",
"372 393 LINE",
"225 393 LINE",
"225 606 LINE",
"275 606 LINE"
);
}
);
width = 412;
},
{
anchors = (
{
name = bottom;
position = "{210, 0}";
},
{
name = top;
position = "{210, 645}";
}
);
layerId = "C78A6D26-59D2-48D5-9C7D-482EE6030F02";
paths = (
{
closed = 1;
nodes = (
"57 672 LINE",
"59 642 OFFCURVE",
"60 612 OFFCURVE",
"60 591 CURVE",
"63 390 LINE",
"206 381 LINE",
"203 657 LINE SMOOTH",
"203 690 OFFCURVE",
"155 690 OFFCURVE",
"134 690 CURVE",
"102 690 OFFCURVE",
"80 686 OFFCURVE",
"66 681 CURVE"
);
},
{
closed = 1;
nodes = (
"60 71 LINE",
"56 0 LINE",
"78 -5 OFFCURVE",
"138 -3 OFFCURVE",
"179 -3 CURVE",
"203 0 LINE",
"206 381 LINE",
"63 420 LINE"
);
},
{
closed = 1;
nodes = (
"92 307 LINE",
"183 303 OFFCURVE",
"262 304 OFFCURVE",
"352 307 CURVE",
"366 327 OFFCURVE",
"367 365 OFFCURVE",
"357 398 CURVE",
"340 398 OFFCURVE",
"326 398 OFFCURVE",
"310 398 CURVE SMOOTH",
"235 398 OFFCURVE",
"234 389 OFFCURVE",
"159 393 CURVE"
);
},
{
closed = 1;
nodes = (
"92 619 LINE",
"158 619 OFFCURVE",
"229 618 OFFCURVE",
"298 618 CURVE",
"316 589 OFFCURVE",
"339 561 OFFCURVE",
"368 547 CURVE",
"381 598 OFFCURVE",
"396 651 OFFCURVE",
"384 695 CURVE",
"368 695 OFFCURVE",
"344 695 OFFCURVE",
"327 695 CURVE SMOOTH",
"255 693 OFFCURVE",
"218 690 OFFCURVE",
"140 690 CURVE"
);
}
);
width = 402;
},
{
anchors = (
{
name = bottom;
position = "{195, 0}";
},
{
name = top;
position = "{195, 645}";
}
);
associatedMasterId = "C78A6D26-59D2-48D5-9C7D-482EE6030F02";
background = {
paths = (
{
closed = 1;
nodes = (
"47 696 LINE",
"47 0 LINE",
"193 0 LINE",
"193 696 LINE"
);
},
{
closed = 1;
nodes = (
"129 311 LINE",
"338 311 LINE",
"338 393 LINE",
"129 393 LINE"
);
},
{
closed = 1;
nodes = (
"129 614 LINE",
"292 614 LINE",
"352 524 LINE",
"367 696 LINE",
"129 696 LINE"
);
}
);
};
layerId = "52189D8D-2B7B-4F8C-88B9-9405B1C43695";
name = "Oct 23 16, 15:06";
paths = (
{
closed = 1;
nodes = (
"42 672 LINE",
"44 642 OFFCURVE",
"45 612 OFFCURVE",
"45 591 CURVE",
"48 390 LINE",
"191 381 LINE",
"188 657 LINE SMOOTH",
"188 690 OFFCURVE",
"140 690 OFFCURVE",
"119 690 CURVE",
"87 690 OFFCURVE",
"65 686 OFFCURVE",
"51 681 CURVE"
);
},
{
closed = 1;
nodes = (
"45 71 LINE",
"41 0 LINE",
"63 -5 OFFCURVE",
"123 -3 OFFCURVE",
"164 -3 CURVE",
"188 0 LINE",
"191 381 LINE",
"48 420 LINE"
);
},
{
closed = 1;
nodes = (
"77 300 LINE",
"168 296 OFFCURVE",
"255 297 OFFCURVE",
"345 300 CURVE",
"359 320 OFFCURVE",
"360 365 OFFCURVE",
"350 398 CURVE",
"333 398 OFFCURVE",
"318 398 OFFCURVE",
"302 398 CURVE SMOOTH",
"227 398 OFFCURVE",
"219 389 OFFCURVE",
"144 393 CURVE"
);
},
{
closed = 1;
nodes = (
"77 597 LINE",
"168 593 OFFCURVE",
"269 594 OFFCURVE",
"359 597 CURVE",
"369 630 OFFCURVE",
"380 662 OFFCURVE",
"369 695 CURVE",
"353 695 OFFCURVE",
"329 695 OFFCURVE",
"312 695 CURVE SMOOTH",
"240 693 OFFCURVE",
"203 690 OFFCURVE",
"125 690 CURVE"
);
}
);
width = 390;
}
);
leftKerningGroup = H;
leftMetricsKey = H;
rightKerningGroup = F;
rightMetricsKey = E;
unicode = 0046;
},
{
color = 3;
glyphname = G;
lastChange = "2025-07-23 15:51:59 +0000";
layers = (
{
anchors = (
{
name = bottom;
position = "{275, 0}";
},
{
name = center;
position = "{277, 375}";
},
{
name = ogonek;
position = "{477, 15}";
},
{
name = top;
position = "{288, 645}";
},
{
name = topleft;
position = "{55, 645}";
},
{
name = topright;
position = "{498, 645}";
}
);
background = {
components = (
{
name = C;
}
);
};
layerId = "F5421C71-FF83-445B-9C53-783D261A57C9";
paths = (
{
closed = 1;
nodes = (
"271 293 LINE",
"329 311 LINE",
"329 165 LINE",
"329 125 LINE",
"376 0 LINE",
"475 0 LINE",
"475 386 LINE",
"277 386 LINE"
);
},
{
closed = 1;
nodes = (
"314 618 LINE",
"421 494 LINE",
"440 665 LINE",
"394 689 OFFCURVE",
"347 701 OFFCURVE",
"291 701 CURVE SMOOTH",
"284 701 LINE SMOOTH",
"119 701 OFFCURVE",
"34 593 OFFCURVE",
"34 344 CURVE SMOOTH",
"34 95 OFFCURVE",
"99 -11 OFFCURVE",
"218 -11 CURVE SMOOTH",
"226 -11 LINE SMOOTH",
"287 -11 OFFCURVE",
"328 24 OFFCURVE",
"350 66 CURVE SMOOTH",
"365 95 LINE",
"374 217 LINE",
"280 72 LINE",
"207 72 LINE",
"207 618 LINE"
);
}
);
width = 533;
},
{
anchors = (
{
name = bottom;
position = "{267, 0}";
},
{
name = center;
position = "{267, 375}";
},
{
name = ogonek;
position = "{467, 15}";
},
{
name = top;
position = "{278, 645}";
},
{
name = topleft;
position = "{45, 645}";
},
{
name = topright;
position = "{488, 645}";
}
);
layerId = "20F347C1-683B-45AE-B240-2F1F38013DFA";
paths = (
{
closed = 1;
nodes = (
"285 618 LINE",
"384 486 LINE",
"417 665 LINE",
"378 686 OFFCURVE",
"341 696 OFFCURVE",
"285 699 CURVE"
);
},
{
closed = 1;
nodes = (
"195 696 LINE",
"84 696 OFFCURVE",
"30 561 OFFCURVE",
"30 344 CURVE",
"195 344 LINE"
);
},
{
closed = 1;
nodes = (
"195 344 LINE",
"30 344 LINE",
"30 116 OFFCURVE",
"82 0 OFFCURVE",
"195 0 CURVE"
);
},
{
closed = 1;
nodes = (
"275 254 LINE",
"329 286 LINE",
"329 118 LINE",
"338 0 LINE",
"455 0 LINE",
"455 371 LINE",
"275 371 LINE"
);
}
);
width = 512;
},
{
anchors = (
{
name = bottom;
position = "{283, -10}";
},
{
name = center;
position = "{283, 375}";
},
{
name = ogonek;
position = "{483, 15}";
},
{
name = top;
position = "{294, 645}";
},
{
name = topleft;
position = "{61, 645}";
},
{
name = topright;
position = "{504, 645}";
}
);
layerId = "BB1D9E28-2A49-4EEB-AB77-8ACE100BF2E3";
paths = (
{
closed = 1;
nodes = (
"277 231 LINE",
"421 326 LINE",
"332 308 LINE",
"332 167 LINE",
"271 76 LINE",
"230 76 LINE",
"230 614 LINE",
"291 614 LINE",
"433 458 LINE",
"454 670 LINE",
"403 692 OFFCURVE",
"344 705 OFFCURVE",
"261 705 CURVE SMOOTH",
"92 705 OFFCURVE",
"18 593 OFFCURVE",
"18 344 CURVE SMOOTH",
"18 91 OFFCURVE",
"82 -15 OFFCURVE",
"226 -15 CURVE SMOOTH",
"285 -15 OFFCURVE",
"325 2 OFFCURVE",
"352 146 CURVE",
"327 78 LINE",
"332 0 LINE",
"493 0 LINE",
"493 375 LINE",
"277 375 LINE"
);
}
);
width = 528;
},
{
anchors = (
{
name = bottom;
position = "{257, 0}";
},
{
name = center;
position = "{257, 375}";
},
{
name = ogonek;
position = "{456, 15}";
},
{
name = top;
position = "{267, 645}";
},
{
name = topleft;
position = "{35, 645}";
},
{
name = topright;
position = "{477, 645}";
}
);
layerId = "C78A6D26-59D2-48D5-9C7D-482EE6030F02";
paths = (
{
closed = 1;
nodes = (
"334 217 LINE",
"326 139 OFFCURVE",
"299 92 OFFCURVE",
"275 75 CURVE",
"233 75 LINE",
"204 86 OFFCURVE",
"187 182 OFFCURVE",
"187 344 CURVE SMOOTH",
"187 476 OFFCURVE",
"203 586 OFFCURVE",
"224 619 CURVE",
"296 619 LINE",
"310 588 OFFCURVE",
"360 534 OFFCURVE",
"387 522 CURVE",
"415 549 OFFCURVE",
"433 593 OFFCURVE",
"440 662 CURVE",
"388 688 OFFCURVE",
"343 696 OFFCURVE",
"291 696 CURVE",
"251 696 LINE",
"81 696 OFFCURVE",
"31 519 OFFCURVE",
"31 344 CURVE SMOOTH",
"31 111 OFFCURVE",
"97 -16 OFFCURVE",
"242 -9 CURVE SMOOTH",
"262 -8 LINE SMOOTH",
"299 -6 OFFCURVE",
"327 36 OFFCURVE",
"343 96 CURVE"
);
},
{
closed = 1;
nodes = (
"333 147 LINE",
"353 -2 LINE",
"369 -14 OFFCURVE",
"402 -18 OFFCURVE",
"446 -8 CURVE",
"464 -2 LINE",
"459 63 LINE",
"458 296 LINE",
"335 335 LINE"
);
},
{
closed = 1;
nodes = (
"413 374 OFFCURVE",
"405 375 OFFCURVE",
"330 375 CURVE SMOOTH",
"314 375 OFFCURVE",
"303 375 OFFCURVE",
"286 375 CURVE",
"280 334 OFFCURVE",
"279 311 OFFCURVE",
"289 276 CURVE",
"379 284 OFFCURVE",
"366 280 OFFCURVE",
"458 290 CURVE",
"458 373 LINE"
);
}
);
width = 520;
}
);
leftKerningGroup = O;
leftMetricsKey = O;
rightKerningGroup = G;
rightMetricsKey = H;
unicode = 0047;
},
{
color = 3;
glyphname = H;
lastChange = "2025-07-23 15:51:38 +0000";
layers = (
{
anchors = (
{
name = bottom;
position = "{284, 0}";
},
{
name = center;
position = "{284, 375}";
},
{
name = top;
position = "{284, 645}";
},
{
name = topleft;
position = "{47, 645}";
}
);
layerId = "F5421C71-FF83-445B-9C53-783D261A57C9";
paths = (
{
closed = 1;
nodes = (
"58 696 LINE",
"58 0 LINE",
"203 0 LINE",
"203 696 LINE"
);
},
{
closed = 1;
nodes = (
"195 318 LINE",
"362 318 LINE",
"362 401 LINE",
"195 401 LINE"
);
},
{
closed = 1;
nodes = (
"353 696 LINE",
"353 0 LINE",
"498 0 LINE",
"498 696 LINE"
);
}
);
width = 556;
},
{
anchors = (
{
name = bottom;
position = "{284, 0}";
},
{
name = center;
position = "{284, 375}";
},
{
name = top;
position = "{284, 645}";
},
{
name = topleft;
position = "{47, 645}";
}
);
layerId = "20F347C1-683B-45AE-B240-2F1F38013DFA";
paths = (
{
closed = 1;
nodes = (
"57 250 LINE",
"57 0 LINE",
"203 0 LINE",
"203 250 LINE"
);
},
{
closed = 1;
nodes = (
"353 250 LINE",
"353 0 LINE",
"498 0 LINE",
"498 250 LINE"
);
},
{
closed = 1;
nodes = (
"498 386 LINE",
"57 386 LINE",
"57 303 LINE",
"498 303 LINE"
);
},
{
closed = 1;
nodes = (
"498 377 LINE",
"498 696 LINE",
"353 696 LINE",
"353 377 LINE"
);
},
{
closed = 1;
nodes = (
"203 377 LINE",
"203 696 LINE",
"57 696 LINE",
"57 377 LINE"
);
}
);
width = 555;
},
{
anchors = (
{
name = bottom;
position = "{284, 0}";
},
{
name = center;
position = "{284, 375}";
},
{
name = top;
position = "{284, 645}";
},
{
name = topleft;
position = "{47, 645}";
}
);
layerId = "BB1D9E28-2A49-4EEB-AB77-8ACE100BF2E3";
paths = (
{
closed = 1;
nodes = (
"321 390 LINE",
"225 390 LINE",
"225 696 LINE",
"35 696 LINE",
"35 0 LINE",
"225 0 LINE",
"225 299 LINE",
"321 299 LINE",
"321 0 LINE",
"510 0 LINE",
"510 696 LINE",
"321 696 LINE"
);
}
);
width = 545;
},
{
anchors = (
{
name = bottom;
position = "{270, 0}";
},
{
name = center;
position = "{270, 375}";
},
{
name = top;
position = "{270, 645}";
},
{
name = topleft;
position = "{33, 645}";
}
);
layerId = "C78A6D26-59D2-48D5-9C7D-482EE6030F02";
paths = (
{
closed = 1;
nodes = (
"56 672 LINE",
"57 642 OFFCURVE",
"59 612 OFFCURVE",
"59 591 CURVE",
"62 390 LINE",
"204 381 LINE",
"201 657 LINE SMOOTH",
"201 690 OFFCURVE",
"153 690 OFFCURVE",
"132 690 CURVE",
"101 690 OFFCURVE",
"78 686 OFFCURVE",
"65 681 CURVE"
);
},
{
closed = 1;
nodes = (
"59 71 LINE",
"57 0 LINE",
"80 -5 OFFCURVE",
"137 -3 OFFCURVE",
"177 -3 CURVE",
"201 0 LINE",
"204 381 LINE",
"62 420 LINE"
);
},
{
closed = 1;
nodes = (
"121 305 LINE",
"213 300 OFFCURVE",
"285 302 OFFCURVE",
"359 305 CURVE",
"369 338 OFFCURVE",
"374 354 OFFCURVE",
"364 387 CURVE",
"347 387 OFFCURVE",
"323 387 OFFCURVE",
"307 387 CURVE SMOOTH",
"260 387 OFFCURVE",
"203 384 OFFCURVE",
"128 389 CURVE"
);
},
{
closed = 1;
nodes = (
"358 672 LINE",
"358 642 OFFCURVE",
"356 536 OFFCURVE",
"356 515 CURVE",
"356 384 LINE",
"499 381 LINE",
"499 657 LINE SMOOTH",
"499 690 OFFCURVE",
"457 690 OFFCURVE",
"436 690 CURVE",
"404 690 OFFCURVE",
"380 686 OFFCURVE",
"367 681 CURVE"
);
},
{
closed = 1;
nodes = (
"353 71 LINE",
"355 0 LINE",
"377 -5 OFFCURVE",
"434 -3 OFFCURVE",
"445 -3 CURVE",
"499 0 LINE",
"499 381 LINE",
"356 420 LINE"
);
}
);
width = 555;
}
);
leftKerningGroup = H;
rightKerningGroup = H;
unicode = 0048;
},
{
glyphname = Hbar;
lastChange = "2025-07-23 13:51:46 +0000";
layers = (
{
components = (
{
alignment = -1;
name = H;
transform = "{1, 0, 0, 1, 52, 0}";
},
{
name = strokelongcomb;
transform = "{1, 0, 0, 1, 50, 0}";
}
);
layerId = "F5421C71-FF83-445B-9C53-783D261A57C9";
width = 658;
},
{
components = (
{
name = strokelongcomb;
}
);
layerId = "20F347C1-683B-45AE-B240-2F1F38013DFA";
paths = (
{
closed = 1;
nodes = (
"57 250 LINE",
"57 0 LINE",
"203 0 LINE",
"203 250 LINE"
);
},
{
closed = 1;
nodes = (
"353 250 LINE",
"353 0 LINE",
"498 0 LINE",
"498 250 LINE"
);
},
{
closed = 1;
nodes = (
"498 386 LINE",
"57 386 LINE",
"57 303 LINE",
"498 303 LINE"
);
},
{
closed = 1;
nodes = (
"353 455 LINE",
"353 377 LINE",
"498 377 LINE",
"498 455 LINE"
);
},
{
closed = 1;
nodes = (
"57 455 LINE",
"57 377 LINE",
"203 377 LINE",
"203 455 LINE"
);
},
{
closed = 1;
nodes = (
"203 514 LINE",
"203 696 LINE",
"57 696 LINE",
"57 514 LINE"
);
},
{
closed = 1;
nodes = (
"498 514 LINE",
"498 696 LINE",
"353 696 LINE",
"353 514 LINE"
);
}
);
width = 558;
},
{
components = (
{
alignment = -1;
name = H;
transform = "{1, 0, 0, 1, 60, 0}";
},
{
name = strokelongcomb;
transform = "{1, 0, 0, 1, 32, 0}";
}
);
layerId = "BB1D9E28-2A49-4EEB-AB77-8ACE100BF2E3";
width = 666;
},
{
components = (
{
alignment = -1;
name = H;
transform = "{1, 0, 0, 1, 56, 0}";
},
{
name = strokelongcomb;
transform = "{1, 0, 0, 1, 54, 0}";
}
);
layerId = "C78A6D26-59D2-48D5-9C7D-482EE6030F02";
width = 664;
}
);
leftKerningGroup = H;
rightKerningGroup = H;
unicode = 0126;
},
{
glyphname = I;
lastChange = "2025-07-23 15:51:59 +0000";
layers = (
{
anchors = (
{
name = bottom;
position = "{130, 0}";
},
{
name = ogonek;
position = "{245, 15}";
},
{
name = top;
position = "{130, 645}";
},
{
name = topleft;
position = "{48, 645}";
}
);
layerId = "F5421C71-FF83-445B-9C53-783D261A57C9";
paths = (
{
closed = 1;
nodes = (
"203 696 LINE",
"58 696 LINE",
"58 0 LINE",
"203 0 LINE"
);
}
);
width = 261;
},
{
anchors = (
{
name = bottom;
position = "{129, 0}";
},
{
name = ogonek;
position = "{189, 15}";
},
{
name = top;
position = "{129, 645}";
},
{
name = topleft;
position = "{47, 645}";
}
);
layerId = "20F347C1-683B-45AE-B240-2F1F38013DFA";
paths = (
{
closed = 1;
nodes = (
"200 696 LINE",
"57 696 LINE",
"57 0 LINE",
"200 0 LINE"
);
}
);
width = 257;
},
{
anchors = (
{
name = bottom;
position = "{129, 0}";
},
{
name = ogonek;
position = "{249, 15}";
},
{
name = top;
position = "{129, 645}";
},
{
name = topleft;
position = "{47, 645}";
}
);
layerId = "BB1D9E28-2A49-4EEB-AB77-8ACE100BF2E3";
paths = (
{
closed = 1;
nodes = (
"225 696 LINE",
"35 696 LINE",
"35 0 LINE",
"225 0 LINE"
);
}
);
width = 260;
},
{
anchors = (
{
name = bottom;
position = "{129, 0}";
},
{
name = ogonek;
position = "{189, 15}";
},
{
name = top;
position = "{129, 645}";
},
{
name = topleft;
position = "{47, 645}";
}
);
layerId = "C78A6D26-59D2-48D5-9C7D-482EE6030F02";
paths = (
{
closed = 1;
nodes = (
"56 687 LINE",
"57 657 OFFCURVE",
"57 627 OFFCURVE",
"57 609 CURVE",
"59 390 LINE",
"201 381 LINE",
"201 672 LINE SMOOTH",
"201 685 OFFCURVE",
"195 693 OFFCURVE",
"186 699 CURVE",
"167 705 OFFCURVE",
"153 705 OFFCURVE",
"132 705 CURVE",
"101 705 OFFCURVE",
"78 700 OFFCURVE",
"65 696 CURVE"
);
},
{
closed = 1;
nodes = (
"56 71 LINE",
"57 0 LINE",
"80 -5 OFFCURVE",
"113 -6 OFFCURVE",
"152 -6 CURVE",
"203 0 LINE",
"201 381 LINE",
"59 420 LINE"
);
}
);
width = 259;
}
);
leftKerningGroup = H;
leftMetricsKey = H;
rightKerningGroup = H;
rightMetricsKey = H;
unicode = 0049;
},
{
glyphname = Iacute;
lastChange = "2025-07-22 10:47:25 +0000";
layers = (
{
anchors = (
{
name = bottom;
position = "{129, 0}";
},
{
name = ogonek;
position = "{189, 15}";
},
{
name = top;
position = "{129, 645}";
},
{
name = topleft;
position = "{47, 645}";
}
);
components = (
{
name = I;
},
{
alignment = -1;
name = acutecomb;
transform = "{1, 0, 0, 1, 74, 127}";
}
);
layerId = "F5421C71-FF83-445B-9C53-783D261A57C9";
width = 261;
},
{
anchors = (
{
name = bottom;
position = "{129, 0}";
},
{
name = ogonek;
position = "{189, 15}";
},
{
name = top;
position = "{129, 645}";
},
{
name = topleft;
position = "{47, 645}";
}
);
components = (
{
name = I;
},
{
name = acutecomb;
transform = "{1, 0, 0, 1, 61, 127}";
}
);
layerId = "20F347C1-683B-45AE-B240-2F1F38013DFA";
width = 257;
},
{
anchors = (
{
name = bottom;
position = "{129, 0}";
},
{
name = ogonek;
position = "{189, 15}";
},
{
name = top;
position = "{129, 645}";
},
{
name = topleft;
position = "{47, 645}";
}
);
components = (
{
name = I;
},
{
alignment = -1;
name = acutecomb;
transform = "{1, 0, 0, 1, 79, 127}";
}
);
layerId = "BB1D9E28-2A49-4EEB-AB77-8ACE100BF2E3";
width = 260;
},
{
anchors = (
{
name = bottom;
position = "{114, 0}";
},
{
name = ogonek;
position = "{174, 15}";
},
{
name = top;
position = "{114, 645}";
},
{
name = topleft;
position = "{32, 645}";
}
);
layerId = "C78A6D26-59D2-48D5-9C7D-482EE6030F02";
paths = (
{
closed = 1;
nodes = (
"41 665 LINE",
"42 635 OFFCURVE",
"42 605 OFFCURVE",
"42 587 CURVE",
"44 390 LINE",
"186 381 LINE",
"186 650 LINE SMOOTH",
"186 663 OFFCURVE",
"180 671 OFFCURVE",
"171 677 CURVE",
"152 683 OFFCURVE",
"138 683 OFFCURVE",
"117 683 CURVE",
"86 683 OFFCURVE",
"63 678 OFFCURVE",
"50 674 CURVE"
);
},
{
closed = 1;
nodes = (
"41 71 LINE",
"42 0 LINE",
"65 -5 OFFCURVE",
"98 -6 OFFCURVE",
"137 -6 CURVE",
"188 0 LINE",
"186 381 LINE",
"44 420 LINE"
);
},
{
closed = 1;
nodes = (
"120 746 OFFCURVE",
"144 755 CURVE",
"173 797 OFFCURVE",
"195 875 OFFCURVE",
"203 908 CURVE",
"194 932 OFFCURVE",
"140 939 OFFCURVE",
"105 933 CURVE",
"99 933 OFFCURVE",
"95 930 OFFCURVE",
"89 917 CURVE",
"77 882 OFFCURVE",
"69 815 OFFCURVE",
"68 767 CURVE",
"83 749 OFFCURVE"
);
}
);
width = 227;
}
);
leftKerningGroup = H;
rightKerningGroup = H;
unicode = 00CD;
},
{
glyphname = Icircumflex;
lastChange = "2025-07-22 12:54:31 +0000";
layers = (
{
anchors = (
{
name = bottom;
position = "{129, 0}";
},
{
name = ogonek;
position = "{189, 15}";
},
{
name = top;
position = "{129, 645}";
},
{
name = topleft;
position = "{47, 645}";
}
);
components = (
{
name = I;
},
{
name = circumflexcomb;
transform = "{1, 0, 0, 1, -11, 127}";
}
);
layerId = "F5421C71-FF83-445B-9C53-783D261A57C9";
width = 261;
},
{
anchors = (
{
name = bottom;
position = "{129, 0}";
},
{
name = ogonek;
position = "{189, 15}";
},
{
name = top;
position = "{129, 645}";
},
{
name = topleft;
position = "{47, 645}";
}
);
components = (
{
name = I;
},
{
name = circumflexcomb;
transform = "{1, 0, 0, 1, -12, 127}";
}
);
layerId = "20F347C1-683B-45AE-B240-2F1F38013DFA";
width = 257;
},
{
anchors = (
{
name = bottom;
position = "{129, 0}";
},
{
name = ogonek;
position = "{189, 15}";
},
{
name = top;
position = "{129, 645}";
},
{
name = topleft;
position = "{47, 645}";
}
);
components = (
{
name = I;
},
{
name = circumflexcomb;
transform = "{1, 0, 0, 1, -35, 127}";
}
);
layerId = "BB1D9E28-2A49-4EEB-AB77-8ACE100BF2E3";
width = 260;
},
{
anchors = (
{
name = bottom;
position = "{114, 0}";
},
{
name = ogonek;
position = "{174, 15}";
},
{
name = top;
position = "{114, 645}";
},
{
name = topleft;
position = "{32, 645}";
}
);
layerId = "C78A6D26-59D2-48D5-9C7D-482EE6030F02";
paths = (
{
closed = 1;
nodes = (
"41 665 LINE",
"42 635 OFFCURVE",
"42 605 OFFCURVE",
"42 587 CURVE",
"44 390 LINE",
"186 381 LINE",
"186 650 LINE SMOOTH",
"186 663 OFFCURVE",
"180 671 OFFCURVE",
"171 677 CURVE",
"152 683 OFFCURVE",
"138 683 OFFCURVE",
"117 683 CURVE",
"86 683 OFFCURVE",
"63 678 OFFCURVE",
"50 674 CURVE"
);
},
{
closed = 1;
nodes = (
"41 71 LINE",
"42 0 LINE",
"65 -5 OFFCURVE",
"98 -6 OFFCURVE",
"137 -6 CURVE",
"188 0 LINE",
"186 381 LINE",
"44 420 LINE"
);
},
{
closed = 1;
nodes = (
"197 746 OFFCURVE",
"227 749 OFFCURVE",
"242 767 CURVE",
"222 831 OFFCURVE",
"179 918 OFFCURVE",
"161 933 CURVE",
"114 938 OFFCURVE",
"66 932 OFFCURVE",
"69 933 CURVE",
"95 890 OFFCURVE",
"132 819 OFFCURVE",
"167 755 CURVE"
);
},
{
closed = 1;
nodes = (
"87 819 OFFCURVE",
"125 890 OFFCURVE",
"149 933 CURVE",
"152 932 OFFCURVE",
"102 938 OFFCURVE",
"57 933 CURVE",
"38 918 OFFCURVE",
"0 831 OFFCURVE",
"-20 767 CURVE",
"-5 749 OFFCURVE",
"26 746 OFFCURVE",
"56 755 CURVE"
);
}
);
width = 227;
}
);
leftKerningGroup = H;
rightKerningGroup = H;
unicode = 00CE;
},
{
glyphname = Idieresis;
lastChange = "2025-07-22 10:47:25 +0000";
layers = (
{
anchors = (
{
name = bottom;
position = "{129, 0}";
},
{
name = ogonek;
position = "{189, 15}";
},
{
name = top;
position = "{129, 645}";
},
{
name = topleft;
position = "{47, 645}";
}
);
components = (
{
name = I;
},
{
name = dieresiscomb;
transform = "{1, 0, 0, 1, -30, 127}";
}
);
layerId = "F5421C71-FF83-445B-9C53-783D261A57C9";
width = 261;
},
{
anchors = (
{
name = bottom;
position = "{129, 0}";
},
{
name = ogonek;
position = "{189, 15}";
},
{
name = top;
position = "{129, 645}";
},
{
name = topleft;
position = "{47, 645}";
}
);
components = (
{
name = I;
},
{
name = dieresiscomb;
transform = "{1, 0, 0, 1, -28, 127}";
}
);
layerId = "20F347C1-683B-45AE-B240-2F1F38013DFA";
width = 257;
},
{
anchors = (
{
name = bottom;
position = "{129, 0}";
},
{
name = ogonek;
position = "{189, 15}";
},
{
name = top;
position = "{129, 645}";
},
{
name = topleft;
position = "{47, 645}";
}
);
components = (
{
name = I;
},
{
name = dieresiscomb;
transform = "{1, 0, 0, 1, -48, 127}";
}
);
layerId = "BB1D9E28-2A49-4EEB-AB77-8ACE100BF2E3";
width = 260;
},
{
anchors = (
{
name = bottom;
position = "{114, 0}";
},
{
name = ogonek;
position = "{174, 15}";
},
{
name = top;
position = "{114, 645}";
},
{
name = topleft;
position = "{32, 645}";
}
);
layerId = "C78A6D26-59D2-48D5-9C7D-482EE6030F02";
paths = (
{
closed = 1;
nodes = (
"41 665 LINE",
"42 635 OFFCURVE",
"42 605 OFFCURVE",
"42 587 CURVE",
"44 390 LINE",
"186 381 LINE",
"186 650 LINE SMOOTH",
"186 663 OFFCURVE",
"180 671 OFFCURVE",
"171 677 CURVE",
"152 683 OFFCURVE",
"138 683 OFFCURVE",
"117 683 CURVE",
"86 683 OFFCURVE",
"63 678 OFFCURVE",
"50 674 CURVE"
);
},
{
closed = 1;
nodes = (
"41 71 LINE",
"42 0 LINE",
"65 -5 OFFCURVE",
"98 -6 OFFCURVE",
"137 -6 CURVE",
"188 0 LINE",
"186 381 LINE",
"44 420 LINE"
);
},
{
closed = 1;
nodes = (
"36 749 OFFCURVE",
"60 771 CURVE",
"81 797 OFFCURVE",
"87 854 OFFCURVE",
"77 887 CURVE",
"59 929 OFFCURVE",
"-17 939 OFFCURVE",
"-42 909 CURVE",
"-66 879 OFFCURVE",
"-66 818 OFFCURVE",
"-48 782 CURVE",
"-29 752 OFFCURVE"
);
},
{
closed = 1;
nodes = (
"249 749 OFFCURVE",
"273 771 CURVE",
"294 797 OFFCURVE",
"299 854 OFFCURVE",
"288 887 CURVE",
"272 929 OFFCURVE",
"197 939 OFFCURVE",
"170 909 CURVE",
"147 879 OFFCURVE",
"146 818 OFFCURVE",
"164 782 CURVE",
"183 752 OFFCURVE"
);
}
);
width = 227;
}
);
leftKerningGroup = H;
rightKerningGroup = H;
unicode = 00CF;
},
{
glyphname = Idotaccent;
lastChange = "2025-07-22 10:47:25 +0000";
layers = (
{
anchors = (
{
name = bottom;
position = "{129, 0}";
},
{
name = ogonek;
position = "{189, 15}";
},
{
name = top;
position = "{129, 932}";
},
{
name = topleft;
position = "{47, 645}";
}
);
components = (
{
name = I;
},
{
name = dotaccentcomb;
transform = "{1, 0, 0, 1, 53, 127}";
}
);
layerId = "F5421C71-FF83-445B-9C53-783D261A57C9";
width = 261;
},
{
anchors = (
{
name = bottom;
position = "{129, 0}";
},
{
name = ogonek;
position = "{189, 15}";
},
{
name = top;
position = "{129, 932}";
},
{
name = topleft;
position = "{47, 645}";
}
);
components = (
{
name = I;
},
{
name = dotaccentcomb;
transform = "{1, 0, 0, 1, 52, 127}";
}
);
layerId = "20F347C1-683B-45AE-B240-2F1F38013DFA";
width = 257;
},
{
anchors = (
{
name = bottom;
position = "{129, 0}";
},
{
name = ogonek;
position = "{189, 15}";
},
{
name = top;
position = "{129, 932}";
},
{
name = topleft;
position = "{47, 645}";
}
);
components = (
{
name = I;
},
{
name = dotaccentcomb;
transform = "{1, 0, 0, 1, 52, 127}";
}
);
layerId = "BB1D9E28-2A49-4EEB-AB77-8ACE100BF2E3";
width = 260;
},
{
anchors = (
{
name = bottom;
position = "{114, 0}";
},
{
name = ogonek;
position = "{174, 15}";
},
{
name = top;
position = "{114, 932}";
},
{
name = topleft;
position = "{32, 645}";
}
);
hints = (
{
horizontal = 1;
place = "{4062, 971}";
type = Stem;
},
{
place = "{210, 818}";
type = Stem;
}
);
layerId = "C78A6D26-59D2-48D5-9C7D-482EE6030F02";
paths = (
{
closed = 1;
nodes = (
"41 665 LINE",
"42 635 OFFCURVE",
"42 605 OFFCURVE",
"42 587 CURVE",
"44 390 LINE",
"186 381 LINE",
"186 650 LINE SMOOTH",
"186 663 OFFCURVE",
"180 671 OFFCURVE",
"171 677 CURVE",
"152 683 OFFCURVE",
"138 683 OFFCURVE",
"117 683 CURVE",
"86 683 OFFCURVE",
"63 678 OFFCURVE",
"50 674 CURVE"
);
},
{
closed = 1;
nodes = (
"41 71 LINE",
"42 0 LINE",
"65 -5 OFFCURVE",
"98 -6 OFFCURVE",
"137 -6 CURVE",
"188 0 LINE",
"186 381 LINE",
"44 420 LINE"
);
},
{
closed = 1;
nodes = (
"141 743 OFFCURVE",
"167 767 CURVE",
"189 794 OFFCURVE",
"195 854 OFFCURVE",
"183 890 CURVE",
"165 935 OFFCURVE",
"86 945 OFFCURVE",
"57 914 CURVE",
"33 882 OFFCURVE",
"32 816 OFFCURVE",
"51 779 CURVE",
"72 746 OFFCURVE"
);
}
);
width = 227;
}
);
leftKerningGroup = H;
rightKerningGroup = H;
unicode = 0130;
},
{
glyphname = Igrave;
lastChange = "2025-07-23 11:50:54 +0000";
layers = (
{
anchors = (
{
name = bottom;
position = "{129, 0}";
},
{
name = ogonek;
position = "{189, 15}";
},
{
name = top;
position = "{129, 645}";
},
{
name = topleft;
position = "{47, 645}";
}
);
components = (
{
name = I;
},
{
name = gravecomb;
transform = "{1, 0, 0, 1, 9, 127}";
}
);
layerId = "F5421C71-FF83-445B-9C53-783D261A57C9";
width = 261;
},
{
anchors = (
{
name = bottom;
position = "{129, 0}";
},
{
name = ogonek;
position = "{189, 15}";
},
{
name = top;
position = "{129, 645}";
},
{
name = topleft;
position = "{47, 645}";
}
);
components = (
{
name = I;
},
{
name = gravecomb;
transform = "{1, 0, 0, 1, 32, 127}";
}
);
layerId = "20F347C1-683B-45AE-B240-2F1F38013DFA";
width = 257;
},
{
anchors = (
{
name = bottom;
position = "{129, 0}";
},
{
name = ogonek;
position = "{189, 15}";
},
{
name = top;
position = "{129, 645}";
},
{
name = topleft;
position = "{47, 645}";
}
);
components = (
{
name = I;
},
{
name = gravecomb;
transform = "{1, 0, 0, 1, 33, 127}";
}
);
layerId = "BB1D9E28-2A49-4EEB-AB77-8ACE100BF2E3";
width = 260;
},
{
anchors = (
{
name = bottom;
position = "{114, 0}";
},
{
name = ogonek;
position = "{174, 15}";
},
{
name = top;
position = "{114, 645}";
},
{
name = topleft;
position = "{32, 645}";
}
);
layerId = "C78A6D26-59D2-48D5-9C7D-482EE6030F02";
paths = (
{
closed = 1;
nodes = (
"41 665 LINE",
"42 635 OFFCURVE",
"42 605 OFFCURVE",
"42 587 CURVE",
"44 390 LINE",
"186 381 LINE",
"186 650 LINE SMOOTH",
"186 663 OFFCURVE",
"180 671 OFFCURVE",
"171 677 CURVE",
"152 683 OFFCURVE",
"138 683 OFFCURVE",
"117 683 CURVE",
"86 683 OFFCURVE",
"63 678 OFFCURVE",
"50 674 CURVE"
);
},
{
closed = 1;
nodes = (
"41 71 LINE",
"42 0 LINE",
"65 -5 OFFCURVE",
"98 -6 OFFCURVE",
"137 -6 CURVE",
"188 0 LINE",
"186 381 LINE",
"44 420 LINE"
);
},
{
closed = 1;
nodes = (
"159 767 CURVE",
"158 815 OFFCURVE",
"156 882 OFFCURVE",
"138 917 CURVE",
"132 930 OFFCURVE",
"128 933 OFFCURVE",
"122 933 CURVE",
"87 939 OFFCURVE",
"33 932 OFFCURVE",
"24 908 CURVE",
"32 875 OFFCURVE",
"54 797 OFFCURVE",
"83 755 CURVE",
"107 746 OFFCURVE",
"144 749 OFFCURVE"
);
}
);
width = 227;
}
);
leftKerningGroup = H;
rightKerningGroup = H;
unicode = 00CC;
},
{
glyphname = Imacron;
lastChange = "2025-07-22 10:47:25 +0000";
layers = (
{
anchors = (
{
name = bottom;
position = "{129, 0}";
},
{
name = ogonek;
position = "{189, 15}";
},
{
name = top;
position = "{129, 645}";
},
{
name = topleft;
position = "{47, 645}";
}
);
components = (
{
name = I;
},
{
name = macroncomb;
transform = "{1, 0, 0, 1, -13, 127}";
}
);
layerId = "F5421C71-FF83-445B-9C53-783D261A57C9";
width = 261;
},
{
anchors = (
{
name = bottom;
position = "{129, 0}";
},
{
name = ogonek;
position = "{189, 15}";
},
{
name = top;
position = "{129, 645}";
},
{
name = topleft;
position = "{47, 645}";
}
);
components = (
{
name = I;
},
{
name = macroncomb;
transform = "{1, 0, 0, 1, -14, 127}";
}
);
layerId = "20F347C1-683B-45AE-B240-2F1F38013DFA";
width = 257;
},
{
anchors = (
{
name = bottom;
position = "{129, 0}";
},
{
name = ogonek;
position = "{189, 15}";
},
{
name = top;
position = "{129, 645}";
},
{
name = topleft;
position = "{47, 645}";
}
);
components = (
{
name = I;
},
{
name = macroncomb;
transform = "{1, 0, 0, 1, -14, 127}";
}
);
layerId = "BB1D9E28-2A49-4EEB-AB77-8ACE100BF2E3";
width = 260;
},
{
anchors = (
{
name = bottom;
position = "{114, 0}";
},
{
name = ogonek;
position = "{174, 15}";
},
{
name = top;
position = "{114, 645}";
},
{
name = topleft;
position = "{32, 645}";
}
);
layerId = "C78A6D26-59D2-48D5-9C7D-482EE6030F02";
paths = (
{
closed = 1;
nodes = (
"41 665 LINE",
"42 635 OFFCURVE",
"42 605 OFFCURVE",
"42 587 CURVE",
"44 390 LINE",
"186 381 LINE",
"186 650 LINE SMOOTH",
"186 663 OFFCURVE",
"180 671 OFFCURVE",
"171 677 CURVE",
"152 683 OFFCURVE",
"138 683 OFFCURVE",
"117 683 CURVE",
"86 683 OFFCURVE",
"63 678 OFFCURVE",
"50 674 CURVE"
);
},
{
closed = 1;
nodes = (
"41 71 LINE",
"42 0 LINE",
"65 -5 OFFCURVE",
"98 -6 OFFCURVE",
"137 -6 CURVE",
"188 0 LINE",
"186 381 LINE",
"44 420 LINE"
);
},
{
closed = 1;
nodes = (
"-32 843 OFFCURVE",
"-33 822 OFFCURVE",
"-24 792 CURVE",
"87 791 OFFCURVE",
"140 792 OFFCURVE",
"251 792 CURVE",
"258 834 OFFCURVE",
"258 843 OFFCURVE",
"251 885 CURVE",
"149 894 OFFCURVE",
"71 884 OFFCURVE",
"-24 885 CURVE"
);
}
);
width = 227;
}
);
leftKerningGroup = H;
rightKerningGroup = H;
unicode = 012A;
},
{
glyphname = Iogonek;
lastChange = "2025-07-22 10:47:25 +0000";
layers = (
{
anchors = (
{
name = _ogonek;
position = "{242, 15}";
},
{
name = bottom;
position = "{129, 0}";
},
{
name = ogonek;
position = "{189, 15}";
},
{
name = top;
position = "{129, 645}";
},
{
name = topleft;
position = "{47, 645}";
}
);
components = (
{
name = I;
}
);
layerId = "F5421C71-FF83-445B-9C53-783D261A57C9";
paths = (
{
closed = 1;
nodes = (
"196 12 LINE",
"126 23 OFFCURVE",
"24 -21 OFFCURVE",
"24 -126 CURVE SMOOTH",
"24 -209 OFFCURVE",
"84 -233 OFFCURVE",
"132 -233 CURVE SMOOTH",
"168 -233 OFFCURVE",
"188 -224 OFFCURVE",
"203 -218 CURVE",
"203 -132 LINE",
"131 -134 LINE",
"131 -39 LINE",
"131 -35 OFFCURVE",
"162 -14 OFFCURVE",
"203 0 CURVE"
);
}
);
width = 260;
},
{
anchors = (
{
name = bottom;
position = "{129, 0}";
},
{
name = ogonek;
position = "{189, 15}";
},
{
name = top;
position = "{129, 645}";
},
{
name = topleft;
position = "{47, 645}";
}
);
layerId = "20F347C1-683B-45AE-B240-2F1F38013DFA";
paths = (
{
closed = 1;
nodes = (
"203 696 LINE",
"57 696 LINE",
"57 0 LINE",
"203 0 LINE"
);
},
{
closed = 1;
nodes = (
"179 24 LINE",
"114 23 OFFCURVE",
"12 -21 OFFCURVE",
"12 -126 CURVE SMOOTH",
"12 -209 OFFCURVE",
"72 -233 OFFCURVE",
"120 -233 CURVE SMOOTH",
"156 -233 OFFCURVE",
"176 -224 OFFCURVE",
"191 -218 CURVE",
"191 -132 LINE",
"119 -134 LINE",
"119 -39 LINE",
"119 -35 OFFCURVE",
"150 -14 OFFCURVE",
"186 12 CURVE"
);
}
);
width = 260;
},
{
anchors = (
{
name = _ogonek;
position = "{252, 15}";
},
{
name = bottom;
position = "{129, 0}";
},
{
name = ogonek;
position = "{189, 15}";
},
{
name = top;
position = "{129, 645}";
},
{
name = topleft;
position = "{47, 645}";
}
);
components = (
{
name = I;
}
);
layerId = "BB1D9E28-2A49-4EEB-AB77-8ACE100BF2E3";
paths = (
{
closed = 1;
nodes = (
"216 15 LINE",
"120 4 OFFCURVE",
"12 -9 OFFCURVE",
"12 -127 CURVE SMOOTH",
"12 -196 OFFCURVE",
"53 -238 OFFCURVE",
"132 -238 CURVE SMOOTH",
"163 -238 OFFCURVE",
"193 -232 OFFCURVE",
"235 -219 CURVE",
"235 -128 LINE",
"163 -130 LINE",
"163 -39 LINE SMOOTH",
"163 -30 OFFCURVE",
"164 -33 OFFCURVE",
"224 0 CURVE"
);
}
);
width = 260;
},
{
anchors = (
{
name = bottom;
position = "{114, 0}";
},
{
name = ogonek;
position = "{174, 15}";
},
{
name = top;
position = "{114, 645}";
},
{
name = topleft;
position = "{32, 645}";
}
);
layerId = "C78A6D26-59D2-48D5-9C7D-482EE6030F02";
paths = (
{
closed = 1;
nodes = (
"41 665 LINE",
"42 635 OFFCURVE",
"42 605 OFFCURVE",
"42 587 CURVE",
"44 390 LINE",
"186 381 LINE",
"186 650 LINE SMOOTH",
"186 663 OFFCURVE",
"180 671 OFFCURVE",
"171 677 CURVE",
"152 683 OFFCURVE",
"138 683 OFFCURVE",
"117 683 CURVE",
"86 683 OFFCURVE",
"63 678 OFFCURVE",
"50 674 CURVE"
);
},
{
closed = 1;
nodes = (
"41 71 LINE",
"42 0 LINE",
"65 -5 OFFCURVE",
"98 -6 OFFCURVE",
"137 -6 CURVE",
"188 0 LINE",
"186 381 LINE",
"44 420 LINE"
);
},
{
closed = 1;
nodes = (
"129 48 LINE",
"104 23 OFFCURVE",
"12 -21 OFFCURVE",
"12 -126 CURVE SMOOTH",
"12 -219 OFFCURVE",
"78 -243 OFFCURVE",
"132 -243 CURVE SMOOTH",
"170 -243 OFFCURVE",
"191 -234 OFFCURVE",
"206 -228 CURVE",
"216 -212 OFFCURVE",
"227 -120 OFFCURVE",
"186 -108 CURVE",
"174 -116 OFFCURVE",
"155 -125 OFFCURVE",
"140 -125 CURVE SMOOTH",
"135 -125 OFFCURVE",
"125 -125 OFFCURVE",
"122 -123 CURVE",
"119 -116 OFFCURVE",
"119 -111 OFFCURVE",
"119 -99 CURVE SMOOTH",
"119 -33 OFFCURVE",
"180 5 OFFCURVE",
"200 53 CURVE"
);
}
);
width = 227;
}
);
leftKerningGroup = H;
rightKerningGroup = H;
unicode = 012E;
},
{
color = 3;
glyphname = J;
lastChange = "2025-07-23 15:51:59 +0000";
layers = (
{
anchors = (
{
name = bottom;
position = "{173, 0}";
},
{
name = top;
position = "{248, 645}";
}
);
layerId = "F5421C71-FF83-445B-9C53-783D261A57C9";
paths = (
{
closed = 1;
nodes = (
"176 68 LINE",
"122 68 LINE",
"54 224 LINE",
"21 20 LINE",
"67 0 OFFCURVE",
"117 -9 OFFCURVE",
"158 -9 CURVE SMOOTH",
"281 -9 OFFCURVE",
"321 46 OFFCURVE",
"321 150 CURVE SMOOTH",
"321 696 LINE",
"176 696 LINE"
);
}
);
width = 379;
},
{
anchors = (
{
name = bottom;
position = "{173, 0}";
},
{
name = top;
position = "{248, 645}";
}
);
layerId = "20F347C1-683B-45AE-B240-2F1F38013DFA";
paths = (
{
closed = 1;
nodes = (
"126 73 LINE",
"54 256 LINE",
"20 23 LINE",
"47 8 OFFCURVE",
"87 -1 OFFCURVE",
"126 -4 CURVE"
);
},
{
closed = 1;
nodes = (
"176 -6 LINE",
"288 -6 OFFCURVE",
"319 47 OFFCURVE",
"319 200 CURVE SMOOTH",
"319 696 LINE",
"176 696 LINE"
);
}
);
width = 376;
},
{
anchors = (
{
name = bottom;
position = "{173, 0}";
},
{
name = top;
position = "{248, 645}";
}
);
layerId = "BB1D9E28-2A49-4EEB-AB77-8ACE100BF2E3";
paths = (
{
closed = 1;
nodes = (
"154 72 LINE",
"141 72 LINE",
"24 287 LINE",
"8 22 LINE",
"39 0 OFFCURVE",
"84 -15 OFFCURVE",
"146 -15 CURVE SMOOTH",
"282 -15 OFFCURVE",
"343 35 OFFCURVE",
"343 186 CURVE SMOOTH",
"343 696 LINE",
"154 696 LINE"
);
}
);
width = 378;
},
{
anchors = (
{
name = bottom;
position = "{198, 0}";
},
{
name = top;
position = "{273, 645}";
}
);
background = {
paths = (
{
closed = 0;
nodes = (
"330 694 LINE"
);
}
);
};
layerId = "C78A6D26-59D2-48D5-9C7D-482EE6030F02";
paths = (
{
closed = 1;
nodes = (
"199 694 CURVE",
"201 660 OFFCURVE",
"201 625 OFFCURVE",
"201 601 CURVE",
"202 341 LINE",
"345 188 LINE",
"345 667 LINE SMOOTH",
"345 699 OFFCURVE",
"310 700 OFFCURVE",
"276 700 CURVE SMOOTH",
"241 700 OFFCURVE",
"220 700 OFFCURVE"
);
},
{
closed = 1;
nodes = (
"202 344 LINE",
"202 213 OFFCURVE",
"201 105 OFFCURVE",
"199 68 CURVE",
"154 68 LINE",
"136 105 OFFCURVE",
"107 179 OFFCURVE",
"66 227 CURVE",
"49 172 OFFCURVE",
"34 96 OFFCURVE",
"29 20 CURVE",
"72 0 OFFCURVE",
"118 -9 OFFCURVE",
"172 -9 CURVE",
"185 -9 LINE",
"334 -9 OFFCURVE",
"345 108 OFFCURVE",
"345 200 CURVE"
);
}
);
width = 401;
}
);
leftKerningGroup = J;
rightKerningGroup = J;
rightMetricsKey = H;
unicode = 004A;
},
{
color = 3;
glyphname = K;
lastChange = "2025-07-23 15:50:21 +0000";
layers = (
{
anchors = (
{
name = bottom;
position = "{269, 0}";
},
{
name = ogonek;
position = "{194, 15}";
},
{
name = top;
position = "{251, 645}";
},
{
name = topleft;
position = "{52, 645}";
}
);
background = {
paths = (
{
closed = 1;
nodes = (
"157 398 LINE",
"164 314 LINE",
"232 314 LINE",
"335 0 LINE",
"494 0 LINE",
"342 398 LINE"
);
},
{
closed = 1;
nodes = (
"326 334 LINE",
"481 696 LINE",
"328 696 LINE",
"349 574 LINE",
"266 376 LINE"
);
},
{
closed = 1;
nodes = (
"203 696 LINE",
"58 696 LINE",
"58 0 LINE",
"203 0 LINE"
);
}
);
};
layerId = "F5421C71-FF83-445B-9C53-783D261A57C9";
paths = (
{
closed = 1;
nodes = (
"157 416 LINE",
"164 332 LINE",
"232 332 LINE",
"335 0 LINE",
"494 0 LINE",
"342 416 LINE"
);
},
{
closed = 1;
nodes = (
"326 352 LINE",
"481 696 LINE",
"328 696 LINE",
"346 591 LINE",
"266 394 LINE"
);
},
{
closed = 1;
nodes = (
"203 696 LINE",
"58 696 LINE",
"58 0 LINE",
"203 0 LINE"
);
}
);
width = 514;
},
{
anchors = (
{
name = bottom;
position = "{242, 0}";
},
{
name = ogonek;
position = "{185, 15}";
},
{
name = top;
position = "{242, 645}";
},
{
name = topleft;
position = "{43, 645}";
}
);
layerId = "20F347C1-683B-45AE-B240-2F1F38013DFA";
paths = (
{
closed = 1;
nodes = (
"243 299 LINE",
"342 0 LINE",
"496 0 LINE",
"346 386 LINE",
"283 390 LINE"
);
},
{
closed = 1;
nodes = (
"334 326 LINE",
"486 696 LINE",
"348 696 LINE",
"354 567 LINE",
"274 368 LINE"
);
},
{
closed = 1;
nodes = (
"199 696 LINE",
"57 696 LINE",
"57 0 LINE",
"199 0 LINE"
);
}
);
width = 491;
},
{
anchors = (
{
name = bottom;
position = "{257, 60}";
},
{
name = ogonek;
position = "{200, 15}";
},
{
name = top;
position = "{257, 645}";
},
{
name = topleft;
position = "{58, 645}";
}
);
background = {
paths = (
{
closed = 1;
nodes = (
"172 416 LINE",
"179 332 LINE",
"247 332 LINE",
"350 0 LINE",
"509 0 LINE",
"357 416 LINE"
);
},
{
closed = 1;
nodes = (
"341 352 LINE",
"496 696 LINE",
"343 696 LINE",
"364 574 LINE",
"281 394 LINE"
);
},
{
closed = 1;
nodes = (
"218 696 LINE",
"73 696 LINE",
"73 0 LINE",
"218 0 LINE"
);
}
);
};
layerId = "BB1D9E28-2A49-4EEB-AB77-8ACE100BF2E3";
paths = (
{
closed = 1;
nodes = (
"520 696 LINE",
"334 696 LINE",
"342 565 LINE",
"275 420 LINE",
"225 420 LINE",
"225 696 LINE",
"35 696 LINE",
"35 0 LINE",
"225 0 LINE",
"225 201 LINE",
"221 323 LINE",
"237 323 LINE",
"335 0 LINE",
"533 0 LINE",
"364 434 LINE",
"320 271 LINE"
);
}
);
width = 548;
},
{
anchors = (
{
name = bottom;
position = "{261, 0}";
},
{
name = ogonek;
position = "{189, 15}";
},
{
name = top;
position = "{261, 645}";
},
{
name = topleft;
position = "{47, 645}";
}
);
layerId = "C78A6D26-59D2-48D5-9C7D-482EE6030F02";
paths = (
{
closed = 1;
nodes = (
"170 306 LINE",
"232 306 LINE",
"260 210 OFFCURVE",
"290 104 OFFCURVE",
"350 -9 CURVE",
"366 -10 OFFCURVE",
"391 -10 OFFCURVE",
"435 -5 CURVE",
"454 1 OFFCURVE",
"476 19 OFFCURVE",
"490 38 CURVE",
"468 77 OFFCURVE",
"343 355 OFFCURVE",
"339 370 CURVE",
"386 471 OFFCURVE",
"431 580 OFFCURVE",
"466 673 CURVE",
"423 713 OFFCURVE",
"378 701 OFFCURVE",
"342 684 CURVE",
"338 649 OFFCURVE",
"328 589 OFFCURVE",
"323 554 CURVE",
"296 483 OFFCURVE",
"285 452 OFFCURVE",
"261 391 CURVE",
"162 389 LINE"
);
},
{
closed = 1;
nodes = (
"56 682 LINE",
"57 652 OFFCURVE",
"57 622 OFFCURVE",
"57 604 CURVE",
"59 390 LINE",
"201 381 LINE",
"201 667 LINE SMOOTH",
"201 680 OFFCURVE",
"195 688 OFFCURVE",
"186 694 CURVE",
"167 700 OFFCURVE",
"153 700 OFFCURVE",
"132 700 CURVE",
"101 700 OFFCURVE",
"78 695 OFFCURVE",
"65 691 CURVE"
);
},
{
closed = 1;
nodes = (
"56 71 LINE",
"57 0 LINE",
"81 -5 OFFCURVE",
"119 -6 OFFCURVE",
"148 -6 CURVE SMOOTH",
"169 -6 OFFCURVE",
"189 -3 OFFCURVE",
"203 0 CURVE",
"201 381 LINE",
"59 420 LINE"
);
}
);
width = 503;
}
);
leftKerningGroup = H;
leftMetricsKey = H;
rightKerningGroup = K;
unicode = 004B;
},
{
color = 3;
glyphname = L;
lastChange = "2025-07-23 15:49:55 +0000";
layers = (
{
anchors = (
{
name = bottom;
position = "{216, 0}";
},
{
name = center;
position = "{216, 375}";
},
{
name = top;
position = "{130, 645}";
},
{
name = topright;
position = "{374, 645}";
}
);
layerId = "F5421C71-FF83-445B-9C53-783D261A57C9";
paths = (
{
closed = 1;
nodes = (
"58 0 LINE",
"203 0 LINE",
"203 696 LINE",
"58 696 LINE"
);
},
{
closed = 1;
nodes = (
"129 0 LINE",
"383 0 LINE",
"369 178 LINE",
"282 68 LINE",
"129 68 LINE"
);
}
);
width = 416;
},
{
anchors = (
{
name = bottom;
position = "{214, 0}";
},
{
name = center;
position = "{214, 375}";
},
{
name = top;
position = "{214, 645}";
},
{
name = topright;
position = "{371, 645}";
}
);
layerId = "20F347C1-683B-45AE-B240-2F1F38013DFA";
paths = (
{
closed = 1;
nodes = (
"57 0 LINE",
"200 0 LINE",
"200 696 LINE",
"57 696 LINE"
);
},
{
closed = 1;
nodes = (
"271 0 LINE",
"380 0 LINE",
"367 196 LINE",
"271 68 LINE"
);
}
);
width = 410;
},
{
anchors = (
{
name = bottom;
position = "{216, 60}";
},
{
name = center;
position = "{216, 375}";
},
{
name = top;
position = "{131, 645}";
},
{
name = topright;
position = "{374, 645}";
}
);
layerId = "BB1D9E28-2A49-4EEB-AB77-8ACE100BF2E3";
paths = (
{
closed = 1;
nodes = (
"257 76 LINE",
"225 76 LINE",
"225 696 LINE",
"35 696 LINE",
"35 0 LINE",
"386 0 LINE",
"377 215 LINE"
);
}
);
width = 411;
},
{
anchors = (
{
name = bottom;
position = "{216, 0}";
},
{
name = center;
position = "{216, 375}";
},
{
name = top;
position = "{216, 645}";
},
{
name = topright;
position = "{374, 645}";
}
);
layerId = "C78A6D26-59D2-48D5-9C7D-482EE6030F02";
paths = (
{
closed = 1;
nodes = (
"57 688 LINE",
"59 658 OFFCURVE",
"60 628 OFFCURVE",
"60 607 CURVE",
"59 390 LINE",
"201 381 LINE",
"203 673 LINE SMOOTH",
"203 706 OFFCURVE",
"155 706 OFFCURVE",
"134 706 CURVE",
"102 706 OFFCURVE",
"80 702 OFFCURVE",
"66 697 CURVE"
);
},
{
closed = 1;
nodes = (
"60 71 LINE",
"56 0 LINE",
"78 -5 OFFCURVE",
"138 0 OFFCURVE",
"179 0 CURVE",
"203 0 LINE",
"201 381 LINE",
"59 420 LINE"
);
},
{
closed = 1;
nodes = (
"56 0 LINE",
"147 -5 OFFCURVE",
"291 -3 OFFCURVE",
"383 0 CURVE",
"389 56 OFFCURVE",
"380 111 OFFCURVE",
"373 167 CURVE",
"325 140 OFFCURVE",
"288 100 OFFCURVE",
"267 77 CURVE",
"241 69 OFFCURVE",
"171 74 OFFCURVE",
"129 73 CURVE"
);
}
);
width = 403;
}
);
leftKerningGroup = H;
leftMetricsKey = H;
rightKerningGroup = L;
unicode = 004C;
},
{
color = 3;
glyphname = Lslash;
lastChange = "2025-07-23 15:50:24 +0000";
layers = (
{
anchors = (
{
name = bottom;
position = "{276, 60}";
},
{
name = center;
position = "{276, 375}";
},
{
name = top;
position = "{276, 645}";
},
{
name = topright;
position = "{434, 645}";
}
);
layerId = "F5421C71-FF83-445B-9C53-783D261A57C9";
paths = (
{
closed = 1;
nodes = (
"133 343 LINE",
"35 303 LINE",
"42 188 LINE",
"133 259 LINE"
);
},
{
closed = 1;
nodes = (
"133 258 LINE",
"327 369 LINE",
"388 396 LINE",
"378 512 LINE",
"133 342 LINE"
);
},
{
closed = 1;
nodes = (
"118 0 LINE",
"263 0 LINE",
"263 696 LINE",
"118 696 LINE"
);
},
{
closed = 1;
nodes = (
"118 0 LINE",
"443 0 LINE",
"429 168 LINE",
"342 68 LINE",
"189 68 LINE"
);
}
);
width = 471;
},
{
anchors = (
{
name = bottom;
position = "{275, 0}";
},
{
name = center;
position = "{275, 375}";
},
{
name = top;
position = "{275, 645}";
},
{
name = topright;
position = "{432, 645}";
}
);
layerId = "20F347C1-683B-45AE-B240-2F1F38013DFA";
paths = (
{
closed = 1;
nodes = (
"332 0 LINE",
"441 0 LINE",
"428 168 LINE",
"332 68 LINE"
);
},
{
closed = 1;
nodes = (
"117 151 LINE",
"117 0 LINE",
"263 0 LINE",
"263 268 LINE"
);
},
{
closed = 1;
nodes = (
"263 328 LINE",
"263 696 LINE",
"117 696 LINE",
"117 209 LINE"
);
},
{
closed = 1;
nodes = (
"304 445 LINE",
"143 315 LINE",
"45 249 LINE",
"48 133 LINE",
"105 186 LINE",
"331 367 LINE",
"392 410 LINE",
"388 524 LINE"
);
}
);
width = 466;
},
{
anchors = (
{
name = bottom;
position = "{276, 60}";
},
{
name = center;
position = "{276, 375}";
},
{
name = top;
position = "{276, 645}";
},
{
name = topright;
position = "{434, 645}";
}
);
components = (
{
name = L;
}
);
layerId = "BB1D9E28-2A49-4EEB-AB77-8ACE100BF2E3";
paths = (
{
closed = 1;
nodes = (
"115 341 LINE",
"-27 246 LINE",
"-19 108 LINE",
"115 235 LINE"
);
},
{
closed = 1;
nodes = (
"71 188 LINE",
"273 343 LINE",
"342 385 LINE",
"333 529 LINE",
"218 417 LINE",
"71 304 LINE"
);
}
);
width = 406;
},
{
anchors = (
{
name = bottom;
position = "{189, 0}";
},
{
name = center;
position = "{189, 375}";
},
{
name = top;
position = "{189, 645}";
},
{
name = topright;
position = "{347, 645}";
}
);
components = (
{
name = L;
transform = "{1, 0, 0, 1, -30, 0}";
}
);
layerId = "C78A6D26-59D2-48D5-9C7D-482EE6030F02";
paths = (
{
closed = 1;
nodes = (
"53 326 LINE",
"-45 249 LINE",
"-60 209 OFFCURVE",
"-44 169 OFFCURVE",
"-32 129 CURVE",
"53 221 LINE"
);
},
{
closed = 1;
nodes = (
"53 199 LINE",
"131 277 OFFCURVE",
"233 357 OFFCURVE",
"308 415 CURVE",
"315 453 OFFCURVE",
"311 491 OFFCURVE",
"290 529 CURVE",
"208 491 OFFCURVE",
"87 320 OFFCURVE",
"53 292 CURVE"
);
}
);
width = 368;
}
);
leftKerningGroup = Lslash;
rightKerningGroup = L;
rightMetricsKey = "=L-5";
unicode = 0141;
},
{
glyphname = M;
lastChange = "2025-07-23 15:51:59 +0000";
layers = (
{
anchors = (
{
name = bottom;
position = "{342, 0}";
},
{
name = top;
position = "{342, 645}";
}
);
layerId = "F5421C71-FF83-445B-9C53-783D261A57C9";
paths = (
{
closed = 1;
nodes = (
"378 0 LINE",
"502 513 LINE",
"502 0 LINE",
"641 0 LINE",
"641 696 LINE",
"455 696 LINE",
"356 252 LINE",
"232 696 LINE",
"58 696 LINE",
"58 0 LINE",
"153 0 LINE",
"153 517 LINE",
"294 0 LINE"
);
}
);
width = 699;
},
{
anchors = (
{
name = bottom;
position = "{327, 0}";
},
{
name = top;
position = "{327, 645}";
}
);
layerId = "BB1D9E28-2A49-4EEB-AB77-8ACE100BF2E3";
paths = (
{
closed = 1;
nodes = (
"442 696 LINE",
"373 429 LINE",
"326 220 LINE",
"368 221 LINE",
"318 431 LINE",
"244 696 LINE",
"35 696 LINE",
"35 0 LINE",
"160 0 LINE",
"160 282 LINE",
"157 417 LINE",
"142 427 LINE",
"171 306 LINE",
"256 0 LINE",
"378 0 LINE",
"457 291 LINE",
"490 420 LINE",
"472 411 LINE",
"470 264 LINE",
"470 0 LINE",
"651 0 LINE",
"651 696 LINE"
);
}
);
width = 686;
},
{
anchors = (
{
name = bottom;
position = "{341, 0}";
},
{
name = top;
position = "{341, 645}";
}
);
guideLines = (
{
position = "{283, -3}";
},
{
angle = 107.1663;
position = "{120, 348}";
},
{
angle = 90;
position = "{446, 348}";
}
);
layerId = "20F347C1-683B-45AE-B240-2F1F38013DFA";
paths = (
{
closed = 1;
nodes = (
"389 117 LINE",
"237 696 LINE",
"72 696 LINE",
"287 0 LINE"
);
},
{
closed = 1;
nodes = (
"446 559 LINE",
"287 0 LINE",
"372 0 LINE",
"446 241 LINE"
);
},
{
closed = 1;
nodes = (
"57 556 LINE",
"57 0 LINE",
"152 0 LINE",
"152 240 LINE"
);
},
{
closed = 1;
nodes = (
"506 696 LINE",
"506 0 LINE",
"645 0 LINE",
"645 696 LINE"
);
}
);
width = 702;
},
{
anchors = (
{
name = bottom;
position = "{351, 0}";
},
{
name = top;
position = "{351, 645}";
}
);
layerId = "C78A6D26-59D2-48D5-9C7D-482EE6030F02";
paths = (
{
closed = 1;
nodes = (
"57 678 LINE",
"57 647 OFFCURVE",
"57 614 OFFCURVE",
"57 591 CURVE",
"56 390 LINE",
"157 401 LINE",
"165 674 LINE SMOOTH",
"165 683 OFFCURVE",
"156 689 OFFCURVE",
"116 690 CURVE",
"95 696 OFFCURVE",
"78 692 OFFCURVE",
"66 687 CURVE"
);
},
{
closed = 1;
nodes = (
"57 71 LINE",
"56 0 LINE",
"78 -5 OFFCURVE",
"99 -3 OFFCURVE",
"139 -3 CURVE",
"157 0 LINE",
"157 402 LINE",
"56 420 LINE"
);
},
{
closed = 1;
nodes = (
"500 672 LINE",
"505 672 OFFCURVE",
"503 612 OFFCURVE",
"503 591 CURVE",
"502 390 LINE",
"641 381 LINE",
"643 681 LINE SMOOTH",
"643 690 OFFCURVE",
"614 698 OFFCURVE",
"562 699 CURVE",
"539 699 OFFCURVE",
"523 686 OFFCURVE",
"509 681 CURVE"
);
},
{
closed = 1;
nodes = (
"503 71 LINE",
"502 0 LINE",
"524 -5 OFFCURVE",
"583 -3 OFFCURVE",
"623 -3 CURVE",
"641 0 LINE",
"641 381 LINE",
"502 401 LINE"
);
},
{
closed = 1;
nodes = (
"366 15 OFFCURVE",
"388 102 OFFCURVE",
"385 117 CURVE",
"349 267 OFFCURVE",
"328 339 OFFCURVE",
"286 488 CURVE",
"241 668 LINE",
"233 690 LINE",
"218 696 OFFCURVE",
"205 698 OFFCURVE",
"190 699 CURVE SMOOTH",
"142 702 OFFCURVE",
"101 702 OFFCURVE",
"66 687 CURVE",
"142 534 LINE",
"198 327 OFFCURVE",
"233 204 OFFCURVE",
"292 -2 CURVE",
"369 0 LINE"
);
},
{
closed = 1;
nodes = (
"292 -2 LINE",
"323 -6 OFFCURVE",
"331 -6 OFFCURVE",
"369 -2 CURVE",
"435 212 OFFCURVE",
"481 399 OFFCURVE",
"539 627 CURVE SMOOTH",
"541 635 OFFCURVE",
"592 627 OFFCURVE",
"643 668 CURVE",
"643 680 OFFCURVE",
"643 687 OFFCURVE",
"643 690 CURVE",
"635 695 OFFCURVE",
"504 710 OFFCURVE",
"459 693 CURVE",
"358 331 OFFCURVE",
"370 298 OFFCURVE",
"298 32 CURVE"
);
}
);
width = 699;
}
);
leftKerningGroup = H;
leftMetricsKey = I;
rightKerningGroup = H;
rightMetricsKey = I;
unicode = 004D;
},
{
glyphname = N;
lastChange = "2025-07-23 15:51:59 +0000";
layers = (
{
anchors = (
{
name = bottom;
position = "{291, 0}";
},
{
name = top;
position = "{300, 645}";
}
);
layerId = "F5421C71-FF83-445B-9C53-783D261A57C9";
leftMetricsKey = "=H-10";
paths = (
{
closed = 1;
nodes = (
"409 281 LINE",
"204 696 LINE",
"48 696 LINE",
"71 646 LINE",
"71 0 LINE",
"174 0 LINE",
"174 460 LINE",
"405 0 LINE",
"518 0 LINE",
"518 696 LINE",
"409 696 LINE"
);
}
);
width = 576;
},
{
anchors = (
{
name = bottom;
position = "{287, 60}";
},
{
name = top;
position = "{296, 645}";
}
);
layerId = "BB1D9E28-2A49-4EEB-AB77-8ACE100BF2E3";
leftMetricsKey = "=H-10";
paths = (
{
closed = 1;
nodes = (
"379 399 LINE",
"380 230 LINE",
"417 278 LINE",
"352 408 LINE",
"195 696 LINE",
"25 696 LINE",
"49 645 LINE",
"49 0 LINE",
"196 0 LINE",
"196 302 LINE",
"194 474 LINE",
"157 411 LINE",
"225 285 LINE",
"385 0 LINE",
"532 0 LINE",
"532 696 LINE",
"379 696 LINE"
);
}
);
width = 567;
},
{
anchors = (
{
name = bottom;
position = "{281, 0}";
},
{
name = top;
position = "{290, 645}";
}
);
guideLines = (
{
angle = 114.2825;
position = "{144, 348}";
},
{
angle = 114.4191;
position = "{416, 348}";
}
);
layerId = "20F347C1-683B-45AE-B240-2F1F38013DFA";
leftMetricsKey = "=H";
paths = (
{
closed = 1;
nodes = (
"188 696 LINE",
"57 696 LINE",
"371 0 LINE",
"504 0 LINE"
);
},
{
closed = 1;
nodes = (
"395 369 LINE",
"504 122 LINE",
"504 696 LINE",
"395 696 LINE"
);
},
{
closed = 1;
nodes = (
"65 536 LINE",
"65 0 LINE",
"168 0 LINE",
"168 307 LINE"
);
}
);
width = 561;
},
{
anchors = (
{
name = bottom;
position = "{274, 0}";
},
{
name = top;
position = "{283, 645}";
}
);
layerId = "C78A6D26-59D2-48D5-9C7D-482EE6030F02";
leftMetricsKey = "=H-10";
paths = (
{
closed = 1;
nodes = (
"50 671 OFFCURVE",
"54 662 OFFCURVE",
"62 650 CURVE",
"63 620 OFFCURVE",
"62 612 OFFCURVE",
"62 591 CURVE",
"60 390 LINE",
"168 410 LINE",
"175 687 LINE SMOOTH",
"175 695 OFFCURVE",
"147 702 OFFCURVE",
"112 702 CURVE",
"102 702 OFFCURVE",
"56 702 OFFCURVE",
"46 688 CURVE"
);
},
{
closed = 1;
nodes = (
"60 236 LINE",
"62 0 LINE",
"84 -5 OFFCURVE",
"112 -3 OFFCURVE",
"153 -3 CURVE",
"171 0 LINE",
"168 412 LINE",
"60 420 LINE"
);
},
{
closed = 1;
nodes = (
"392 682 LINE",
"392 652 OFFCURVE",
"391 622 OFFCURVE",
"391 601 CURVE",
"391 390 LINE",
"499 381 LINE",
"501 637 LINE",
"501 688 LINE",
"486 700 OFFCURVE",
"463 700 OFFCURVE",
"442 700 CURVE",
"430 700 OFFCURVE",
"413 700 OFFCURVE",
"400 696 CURVE"
);
},
{
closed = 1;
nodes = (
"394 71 LINE",
"387 0 LINE",
"406 -8 OFFCURVE",
"428 -6 OFFCURVE",
"471 -6 CURVE",
"499 2 LINE",
"499 381 LINE",
"391 420 LINE"
);
},
{
closed = 1;
nodes = (
"404 247 LINE",
"326 412 OFFCURVE",
"305 435 OFFCURVE",
"175 688 CURVE",
"62 675 LINE",
"69 633 LINE",
"157 440 LINE",
"224 309 OFFCURVE",
"308 165 OFFCURVE",
"387 0 CURVE",
"426 158 LINE"
);
}
);
width = 557;
}
);
leftKerningGroup = N;
leftMetricsKey = "H-10";
rightKerningGroup = N;
rightMetricsKey = H;
unicode = 004E;
},
{
glyphname = Nacute;
lastChange = "2025-07-22 10:47:25 +0000";
layers = (
{
anchors = (
{
name = bottom;
position = "{296, 60}";
},
{
name = top;
position = "{305, 645}";
}
);
components = (
{
name = N;
},
{
alignment = -1;
name = acutecomb;
transform = "{1, 0, 0, 1, 260, 127}";
}
);
layerId = "F5421C71-FF83-445B-9C53-783D261A57C9";
width = 576;
},
{
anchors = (
{
name = bottom;
position = "{281, 0}";
},
{
name = top;
position = "{290, 645}";
}
);
components = (
{
name = N;
},
{
name = acutecomb;
transform = "{1, 0, 0, 1, 222, 127}";
}
);
layerId = "20F347C1-683B-45AE-B240-2F1F38013DFA";
width = 561;
},
{
anchors = (
{
name = bottom;
position = "{296, 60}";
},
{
name = top;
position = "{305, 645}";
}
);
components = (
{
name = N;
},
{
alignment = -1;
name = acutecomb;
transform = "{1, 0, 0, 1, 242, 127}";
}
);
layerId = "BB1D9E28-2A49-4EEB-AB77-8ACE100BF2E3";
width = 567;
},
{
anchors = (
{
name = bottom;
position = "{267, 0}";
},
{
name = top;
position = "{276, 645}";
}
);
layerId = "C78A6D26-59D2-48D5-9C7D-482EE6030F02";
paths = (
{
closed = 1;
nodes = (
"41 672 LINE",
"42 642 OFFCURVE",
"44 612 OFFCURVE",
"44 591 CURVE",
"42 390 LINE",
"161 390 LINE",
"165 674 LINE SMOOTH",
"165 683 OFFCURVE",
"137 690 OFFCURVE",
"102 690 CURVE",
"80 690 OFFCURVE",
"63 686 OFFCURVE",
"50 681 CURVE"
);
},
{
closed = 1;
nodes = (
"42 236 LINE",
"44 0 LINE",
"66 -5 OFFCURVE",
"105 -3 OFFCURVE",
"146 -3 CURVE",
"164 0 LINE",
"161 392 LINE",
"42 420 LINE"
);
},
{
closed = 1;
nodes = (
"375 672 LINE",
"375 642 OFFCURVE",
"374 612 OFFCURVE",
"374 591 CURVE",
"372 390 LINE",
"492 381 LINE",
"494 627 LINE",
"494 678 LINE",
"479 690 OFFCURVE",
"456 690 OFFCURVE",
"435 690 CURVE",
"413 690 OFFCURVE",
"396 690 OFFCURVE",
"383 686 CURVE"
);
},
{
closed = 1;
nodes = (
"377 71 LINE",
"369 0 LINE",
"387 -8 OFFCURVE",
"423 -6 OFFCURVE",
"464 -6 CURVE",
"492 2 LINE",
"492 381 LINE",
"372 420 LINE"
);
},
{
closed = 1;
nodes = (
"387 227 LINE",
"308 411 OFFCURVE",
"297 441 OFFCURVE",
"165 675 CURVE",
"84 560 LINE",
"150 410 LINE",
"218 279 OFFCURVE",
"269 135 OFFCURVE",
"369 0 CURVE",
"419 158 LINE"
);
},
{
closed = 1;
nodes = (
"282 746 OFFCURVE",
"306 755 CURVE",
"335 797 OFFCURVE",
"357 875 OFFCURVE",
"365 908 CURVE",
"356 932 OFFCURVE",
"302 939 OFFCURVE",
"267 933 CURVE",
"261 933 OFFCURVE",
"257 930 OFFCURVE",
"251 917 CURVE",
"239 882 OFFCURVE",
"231 815 OFFCURVE",
"230 767 CURVE",
"245 749 OFFCURVE"
);
}
);
width = 533;
}
);
leftKerningGroup = H;
rightKerningGroup = H;
unicode = 0143;
},
{
glyphname = Ncaron;
lastChange = "2025-07-22 10:47:25 +0000";
layers = (
{
anchors = (
{
name = bottom;
position = "{296, 60}";
},
{
name = top;
position = "{305, 645}";
}
);
components = (
{
name = N;
},
{
name = caroncomb;
transform = "{1, 0, 0, 1, 169, 127}";
}
);
layerId = "F5421C71-FF83-445B-9C53-783D261A57C9";
width = 576;
},
{
anchors = (
{
name = bottom;
position = "{281, 0}";
},
{
name = top;
position = "{290, 645}";
}
);
components = (
{
name = N;
},
{
name = caroncomb;
transform = "{1, 0, 0, 1, 159, 127}";
}
);
layerId = "20F347C1-683B-45AE-B240-2F1F38013DFA";
width = 561;
},
{
anchors = (
{
name = bottom;
position = "{296, 60}";
},
{
name = top;
position = "{305, 645}";
}
);
components = (
{
name = N;
},
{
name = caroncomb;
transform = "{1, 0, 0, 1, 165, 127}";
}
);
layerId = "BB1D9E28-2A49-4EEB-AB77-8ACE100BF2E3";
width = 567;
},
{
anchors = (
{
name = bottom;
position = "{267, 0}";
},
{
name = top;
position = "{276, 645}";
}
);
layerId = "C78A6D26-59D2-48D5-9C7D-482EE6030F02";
paths = (
{
closed = 1;
nodes = (
"41 672 LINE",
"42 642 OFFCURVE",
"44 612 OFFCURVE",
"44 591 CURVE",
"42 390 LINE",
"161 390 LINE",
"165 674 LINE SMOOTH",
"165 683 OFFCURVE",
"137 690 OFFCURVE",
"102 690 CURVE",
"80 690 OFFCURVE",
"63 686 OFFCURVE",
"50 681 CURVE"
);
},
{
closed = 1;
nodes = (
"42 236 LINE",
"44 0 LINE",
"66 -5 OFFCURVE",
"105 -3 OFFCURVE",
"146 -3 CURVE",
"164 0 LINE",
"161 392 LINE",
"42 420 LINE"
);
},
{
closed = 1;
nodes = (
"375 672 LINE",
"375 642 OFFCURVE",
"374 612 OFFCURVE",
"374 591 CURVE",
"372 390 LINE",
"492 381 LINE",
"494 627 LINE",
"494 678 LINE",
"479 690 OFFCURVE",
"456 690 OFFCURVE",
"435 690 CURVE",
"413 690 OFFCURVE",
"396 690 OFFCURVE",
"383 686 CURVE"
);
},
{
closed = 1;
nodes = (
"377 71 LINE",
"369 0 LINE",
"387 -8 OFFCURVE",
"423 -6 OFFCURVE",
"464 -6 CURVE",
"492 2 LINE",
"492 381 LINE",
"372 420 LINE"
);
},
{
closed = 1;
nodes = (
"387 227 LINE",
"308 411 OFFCURVE",
"297 441 OFFCURVE",
"165 675 CURVE",
"84 560 LINE",
"150 410 LINE",
"218 279 OFFCURVE",
"269 135 OFFCURVE",
"369 0 CURVE",
"419 158 LINE"
);
},
{
closed = 1;
nodes = (
"296 866 OFFCURVE",
"258 795 OFFCURVE",
"233 752 CURVE",
"230 753 OFFCURVE",
"278 747 OFFCURVE",
"324 752 CURVE",
"342 767 OFFCURVE",
"386 854 OFFCURVE",
"405 918 CURVE",
"390 936 OFFCURVE",
"360 939 OFFCURVE",
"336 930 CURVE"
);
},
{
closed = 1;
nodes = (
"189 939 OFFCURVE",
"159 936 OFFCURVE",
"144 918 CURVE",
"164 854 OFFCURVE",
"201 767 OFFCURVE",
"221 752 CURVE",
"266 747 OFFCURVE",
"315 753 OFFCURVE",
"312 752 CURVE",
"288 795 OFFCURVE",
"251 866 OFFCURVE",
"213 930 CURVE"
);
}
);
width = 533;
}
);
leftKerningGroup = H;
rightKerningGroup = H;
unicode = 0147;
},
{
glyphname = Ncommaaccent;
lastChange = "2025-07-22 10:47:25 +0000";
layers = (
{
anchors = (
{
name = bottom;
position = "{296, -45}";
},
{
name = top;
position = "{305, 645}";
}
);
components = (
{
name = N;
},
{
name = commaaccentcomb;
transform = "{1, 0, 0, 1, 198, 0}";
}
);
layerId = "F5421C71-FF83-445B-9C53-783D261A57C9";
width = 576;
},
{
anchors = (
{
name = bottom;
position = "{281, -105}";
},
{
name = top;
position = "{290, 645}";
}
);
components = (
{
name = N;
},
{
name = commaaccentcomb;
transform = "{1, 0, 0, 1, 188, 0}";
}
);
layerId = "20F347C1-683B-45AE-B240-2F1F38013DFA";
width = 561;
},
{
anchors = (
{
name = bottom;
position = "{296, -45}";
},
{
name = top;
position = "{305, 645}";
}
);
components = (
{
name = N;
},
{
name = commaaccentcomb;
transform = "{1, 0, 0, 1, 194, 0}";
}
);
layerId = "BB1D9E28-2A49-4EEB-AB77-8ACE100BF2E3";
width = 567;
},
{
anchors = (
{
name = bottom;
position = "{267, -105}";
},
{
name = top;
position = "{276, 645}";
}
);
layerId = "C78A6D26-59D2-48D5-9C7D-482EE6030F02";
paths = (
{
closed = 1;
nodes = (
"41 672 LINE",
"42 642 OFFCURVE",
"44 612 OFFCURVE",
"44 591 CURVE",
"42 390 LINE",
"161 390 LINE",
"165 674 LINE SMOOTH",
"165 683 OFFCURVE",
"137 690 OFFCURVE",
"102 690 CURVE",
"80 690 OFFCURVE",
"63 686 OFFCURVE",
"50 681 CURVE"
);
},
{
closed = 1;
nodes = (
"42 236 LINE",
"44 0 LINE",
"66 -5 OFFCURVE",
"105 -3 OFFCURVE",
"146 -3 CURVE",
"164 0 LINE",
"161 392 LINE",
"42 420 LINE"
);
},
{
closed = 1;
nodes = (
"375 672 LINE",
"375 642 OFFCURVE",
"374 612 OFFCURVE",
"374 591 CURVE",
"372 390 LINE",
"492 381 LINE",
"494 627 LINE",
"494 678 LINE",
"479 690 OFFCURVE",
"456 690 OFFCURVE",
"435 690 CURVE",
"413 690 OFFCURVE",
"396 690 OFFCURVE",
"383 686 CURVE"
);
},
{
closed = 1;
nodes = (
"377 71 LINE",
"369 0 LINE",
"387 -8 OFFCURVE",
"423 -6 OFFCURVE",
"464 -6 CURVE",
"492 2 LINE",
"492 381 LINE",
"372 420 LINE"
);
},
{
closed = 1;
nodes = (
"387 227 LINE",
"308 411 OFFCURVE",
"297 441 OFFCURVE",
"165 675 CURVE",
"84 560 LINE",
"150 410 LINE",
"218 279 OFFCURVE",
"269 135 OFFCURVE",
"369 0 CURVE",
"419 158 LINE"
);
},
{
closed = 1;
nodes = (
"224 -99 OFFCURVE",
"215 -133 OFFCURVE",
"212 -166 CURVE",
"197 -194 OFFCURVE",
"188 -227 OFFCURVE",
"178 -255 CURVE",
"190 -263 OFFCURVE",
"217 -290 OFFCURVE",
"245 -291 CURVE",
"266 -291 LINE",
"287 -264 OFFCURVE",
"304 -214 OFFCURVE",
"327 -93 CURVE",
"310 -85 OFFCURVE",
"282 -78 OFFCURVE",
"254 -80 CURVE",
"242 -82 OFFCURVE",
"234 -83 OFFCURVE",
"228 -86 CURVE"
);
}
);
width = 533;
}
);
leftKerningGroup = H;
rightKerningGroup = H;
unicode = 0145;
},
{
glyphname = Ntilde;
lastChange = "2025-07-22 10:47:25 +0000";
layers = (
{
anchors = (
{
name = bottom;
position = "{296, 60}";
},
{
name = top;
position = "{305, 645}";
}
);
components = (
{
name = N;
},
{
alignment = -1;
name = tildecomb;
transform = "{1, 0, 0, 1, 114, 127}";
}
);
layerId = "F5421C71-FF83-445B-9C53-783D261A57C9";
width = 576;
},
{
anchors = (
{
name = bottom;
position = "{281, 0}";
},
{
name = top;
position = "{290, 645}";
}
);
components = (
{
name = N;
},
{
name = tildecomb;
transform = "{1, 0, 0, 1, 89, 127}";
}
);
layerId = "20F347C1-683B-45AE-B240-2F1F38013DFA";
width = 561;
},
{
anchors = (
{
name = bottom;
position = "{296, 60}";
},
{
name = top;
position = "{305, 645}";
}
);
components = (
{
name = N;
},
{
name = tildecomb;
transform = "{1, 0, 0, 1, 95, 127}";
}
);
layerId = "BB1D9E28-2A49-4EEB-AB77-8ACE100BF2E3";
width = 567;
},
{
anchors = (
{
name = bottom;
position = "{267, 0}";
},
{
name = top;
position = "{276, 645}";
}
);
layerId = "C78A6D26-59D2-48D5-9C7D-482EE6030F02";
paths = (
{
closed = 1;
nodes = (
"41 672 LINE",
"42 642 OFFCURVE",
"44 612 OFFCURVE",
"44 591 CURVE",
"42 390 LINE",
"161 390 LINE",
"165 674 LINE SMOOTH",
"165 683 OFFCURVE",
"137 690 OFFCURVE",
"102 690 CURVE",
"80 690 OFFCURVE",
"63 686 OFFCURVE",
"50 681 CURVE"
);
},
{
closed = 1;
nodes = (
"42 236 LINE",
"44 0 LINE",
"66 -5 OFFCURVE",
"105 -3 OFFCURVE",
"146 -3 CURVE",
"164 0 LINE",
"161 392 LINE",
"42 420 LINE"
);
},
{
closed = 1;
nodes = (
"375 672 LINE",
"375 642 OFFCURVE",
"374 612 OFFCURVE",
"374 591 CURVE",
"372 390 LINE",
"492 381 LINE",
"494 627 LINE",
"494 678 LINE",
"479 690 OFFCURVE",
"456 690 OFFCURVE",
"435 690 CURVE",
"413 690 OFFCURVE",
"396 690 OFFCURVE",
"383 686 CURVE"
);
},
{
closed = 1;
nodes = (
"377 71 LINE",
"369 0 LINE",
"387 -8 OFFCURVE",
"423 -6 OFFCURVE",
"464 -6 CURVE",
"492 2 LINE",
"492 381 LINE",
"372 420 LINE"
);
},
{
closed = 1;
nodes = (
"387 227 LINE",
"308 411 OFFCURVE",
"297 441 OFFCURVE",
"165 675 CURVE",
"84 560 LINE",
"150 410 LINE",
"218 279 OFFCURVE",
"269 135 OFFCURVE",
"369 0 CURVE",
"419 158 LINE"
);
},
{
closed = 1;
nodes = (
"356 872 OFFCURVE",
"347 845 OFFCURVE",
"345 834 CURVE",
"285 885 OFFCURVE",
"260 930 OFFCURVE",
"180 918 CURVE",
"144 897 OFFCURVE",
"113 867 OFFCURVE",
"101 789 CURVE",
"117 774 OFFCURVE",
"132 770 OFFCURVE",
"171 770 CURVE",
"186 806 OFFCURVE",
"195 834 OFFCURVE",
"195 843 CURVE",
"246 803 OFFCURVE",
"294 738 OFFCURVE",
"366 759 CURVE",
"399 782 OFFCURVE",
"429 815 OFFCURVE",
"440 888 CURVE",
"423 900 OFFCURVE",
"408 905 OFFCURVE",
"371 908 CURVE"
);
}
);
width = 533;
}
);
leftKerningGroup = H;
rightKerningGroup = H;
unicode = 00D1;
},
{
glyphname = Eng;
lastChange = "2025-07-22 10:47:25 +0000";
layers = (
{
anchors = (
{
name = bottom;
position = "{296, 60}";
},
{
name = top;
position = "{305, 645}";
}
);
layerId = "F5421C71-FF83-445B-9C53-783D261A57C9";
paths = (
{
closed = 1;
nodes = (
"410 -114 LINE",
"276 -114 LINE",
"276 -203 LINE",
"365 -203 LINE",
"488 -203 OFFCURVE",
"519 -152 OFFCURVE",
"519 -15 CURVE SMOOTH",
"519 486 LINE",
"410 486 LINE"
);
},
{
closed = 1;
nodes = (
"395 308 LINE",
"188 696 LINE",
"57 696 LINE",
"143 510 LINE",
"171 432 LINE",
"410 0 LINE",
"458 176 LINE"
);
},
{
closed = 1;
nodes = (
"410 0 LINE",
"519 0 LINE",
"519 696 LINE",
"410 696 LINE"
);
},
{
closed = 1;
nodes = (
"80 695 LINE",
"80 0 LINE",
"183 0 LINE",
"183 695 LINE"
);
},
{
closed = 1;
nodes = (
"410 -114 LINE",
"276 -114 LINE",
"276 -203 LINE",
"365 -203 LINE",
"488 -203 OFFCURVE",
"519 -152 OFFCURVE",
"519 -15 CURVE SMOOTH",
"519 486 LINE",
"410 486 LINE"
);
}
);
width = 576;
},
{
anchors = (
{
name = bottom;
position = "{281, 0}";
},
{
name = top;
position = "{290, 645}";
}
);
layerId = "20F347C1-683B-45AE-B240-2F1F38013DFA";
paths = (
{
closed = 1;
nodes = (
"395 -132 LINE",
"260 -132 LINE",
"261 -221 LINE",
"350 -221 LINE",
"473 -221 OFFCURVE",
"504 -180 OFFCURVE",
"504 -55 CURVE SMOOTH",
"504 -39 LINE",
"395 -39 LINE"
);
},
{
closed = 1;
nodes = (
"188 696 LINE",
"57 696 LINE",
"371 0 LINE",
"504 0 LINE"
);
},
{
closed = 1;
nodes = (
"395 330 LINE",
"504 90 LINE",
"504 696 LINE",
"395 696 LINE"
);
},
{
closed = 1;
nodes = (
"65 569 LINE",
"65 0 LINE",
"168 0 LINE",
"168 336 LINE"
);
}
);
width = 576;
},
{
anchors = (
{
name = bottom;
position = "{296, 60}";
},
{
name = top;
position = "{305, 645}";
}
);
layerId = "BB1D9E28-2A49-4EEB-AB77-8ACE100BF2E3";
paths = (
{
closed = 1;
nodes = (
"388 -128 LINE",
"252.956 -128 LINE",
"254.046 -225 LINE",
"365 -225 LINE SMOOTH",
"501.605 -225 OFFCURVE",
"541 -176.156 OFFCURVE",
"541 -15 CURVE SMOOTH",
"541 490 LINE",
"388 490 LINE"
);
},
{
closed = 1;
nodes = (
"414.855 309.723 LINE",
"206.281 700 LINE",
"34.406 700 LINE",
"123.031 508.321 LINE",
"122.294 508.649 LINE",
"148.201 436.477 LINE",
"417.699 -50.648 LINE",
"479.208 174.887 LINE"
);
},
{
closed = 1;
nodes = (
"388 -4 LINE",
"541 -4 LINE",
"541 700 LINE",
"388 700 LINE"
);
},
{
closed = 1;
nodes = (
"58 699 LINE",
"58 -4 LINE",
"205 -4 LINE",
"205 699 LINE"
);
}
);
width = 576;
},
{
components = (
{
name = N;
}
);
layerId = "C78A6D26-59D2-48D5-9C7D-482EE6030F02";
paths = (
{
closed = 1;
nodes = (
"390 -114 LINE",
"347 -112 OFFCURVE",
"303 -112 OFFCURVE",
"260 -113 CURVE",
"250 -143 OFFCURVE",
"250 -173 OFFCURVE",
"260 -203 CURVE",
"290 -205 OFFCURVE",
"319 -205 OFFCURVE",
"359 -203 CURVE",
"472 -200 OFFCURVE",
"503 -152 OFFCURVE",
"503 -15 CURVE SMOOTH",
"503 66 LINE",
"390 66 LINE"
);
}
);
width = 561;
}
);
leftKerningGroup = N;
rightKerningGroup = N;
unicode = 014A;
},
{
glyphname = O;
lastChange = "2025-07-23 15:58:54 +0000";
layers = (
{
anchors = (
{
name = bottom;
position = "{270, 0}";
},
{
name = center;
position = "{276, 375}";
},
{
name = ogonek;
position = "{476, 15}";
},
{
name = top;
position = "{270, 645}";
},
{
name = topleft;
position = "{54, 645}";
},
{
name = topright;
position = "{497, 645}";
}
);
layerId = "F5421C71-FF83-445B-9C53-783D261A57C9";
paths = (
{
closed = 1;
nodes = (
"507 357 LINE SMOOTH",
"507 534 OFFCURVE",
"453 701 OFFCURVE",
"277 701 CURVE SMOOTH",
"264 701 LINE SMOOTH",
"88 701 OFFCURVE",
"34 534 OFFCURVE",
"34 357 CURVE SMOOTH",
"34 329 LINE SMOOTH",
"34 155 OFFCURVE",
"88 -11 OFFCURVE",
"264 -11 CURVE SMOOTH",
"277 -11 LINE SMOOTH",
"453 -11 OFFCURVE",
"507 155 OFFCURVE",
"507 329 CURVE SMOOTH"
);
},
{
closed = 1;
nodes = (
"212 71 LINE",
"210 103 OFFCURVE",
"202 184 OFFCURVE",
"202 343 CURVE SMOOTH",
"202 507 OFFCURVE",
"210 588 OFFCURVE",
"212 618 CURVE",
"329 618 LINE",
"331 588 OFFCURVE",
"339 507 OFFCURVE",
"339 343 CURVE SMOOTH",
"339 184 OFFCURVE",
"331 103 OFFCURVE",
"329 71 CURVE"
);
}
);
width = 541;
},
{
anchors = (
{
name = bottom;
position = "{257, 0}";
},
{
name = center;
position = "{257, 375}";
},
{
name = ogonek;
position = "{457, 15}";
},
{
name = top;
position = "{241, 645}";
},
{
name = topleft;
position = "{35, 645}";
},
{
name = topright;
position = "{478, 645}";
}
);
layerId = "20F347C1-683B-45AE-B240-2F1F38013DFA";
paths = (
{
closed = 1;
nodes = (
"292 617 LINE",
"310 617 LINE",
"310 78 LINE",
"292 78 LINE",
"292 -6 LINE",
"434 -6 OFFCURVE",
"468 170 OFFCURVE",
"472 329 CURVE",
"472 329 LINE",
"472 344 LINE",
"472 357 LINE",
"468 523 OFFCURVE",
"434 701 OFFCURVE",
"292 701 CURVE"
);
},
{
closed = 1;
nodes = (
"211 701 LINE",
"69 701 OFFCURVE",
"35 523 OFFCURVE",
"30 357 CURVE SMOOTH",
"30 353 OFFCURVE",
"30 348 OFFCURVE",
"30 344 CURVE SMOOTH",
"30 329 LINE SMOOTH",
"35 170 OFFCURVE",
"69 -6 OFFCURVE",
"211 -6 CURVE",
"211 78 LINE",
"193 78 LINE",
"193 617 LINE",
"211 617 LINE"
);
}
);
width = 502;
},
{
anchors = (
{
name = bottom;
position = "{272, 0}";
},
{
name = center;
position = "{272, 375}";
},
{
name = ogonek;
position = "{472, 15}";
},
{
name = top;
position = "{256, 645}";
},
{
name = topleft;
position = "{50, 645}";
},
{
name = topright;
position = "{493, 645}";
}
);
layerId = "BB1D9E28-2A49-4EEB-AB77-8ACE100BF2E3";
paths = (
{
closed = 1;
nodes = (
"519 357 LINE SMOOTH",
"513 590 OFFCURVE",
"441 705 OFFCURVE",
"284 705 CURVE SMOOTH",
"254 705 LINE SMOOTH",
"97 705 OFFCURVE",
"24 589 OFFCURVE",
"18 357 CURVE SMOOTH",
"18 329 LINE SMOOTH",
"24 100 OFFCURVE",
"97 -15 OFFCURVE",
"254 -15 CURVE SMOOTH",
"284 -15 LINE SMOOTH",
"440 -15 OFFCURVE",
"513 99 OFFCURVE",
"519 329 CURVE SMOOTH"
);
},
{
closed = 1;
nodes = (
"234 82 LINE",
"234 608 LINE",
"304 608 LINE",
"304 82 LINE"
);
}
);
width = 537;
},
{
anchors = (
{
name = bottom;
position = "{253, 0}";
},
{
name = center;
position = "{253, 375}";
},
{
name = ogonek;
position = "{452, 15}";
},
{
name = top;
position = "{263, 645}";
},
{
name = topleft;
position = "{31, 645}";
},
{
name = topright;
position = "{473, 645}";
}
);
layerId = "C78A6D26-59D2-48D5-9C7D-482EE6030F02";
paths = (
{
closed = 1;
nodes = (
"251 611 LINE",
"304 611 LINE",
"318 600 OFFCURVE",
"330 532 OFFCURVE",
"330 338 CURVE",
"487 341 LINE",
"487 577 OFFCURVE",
"426 696 OFFCURVE",
"279 696 CURVE",
"251 696 LINE"
);
},
{
closed = 1;
nodes = (
"239 696 LINE",
"92 696 OFFCURVE",
"31 577 OFFCURVE",
"31 341 CURVE",
"188 338 LINE",
"188 532 OFFCURVE",
"200 600 OFFCURVE",
"214 611 CURVE",
"267 611 LINE",
"267 696 LINE"
);
},
{
closed = 1;
nodes = (
"279 -9 LINE",
"426 -9 OFFCURVE",
"487 110 OFFCURVE",
"487 346 CURVE",
"330 349 LINE",
"330 155 OFFCURVE",
"318 87 OFFCURVE",
"304 76 CURVE",
"251 76 LINE",
"251 -9 LINE"
);
},
{
closed = 1;
nodes = (
"267 76 LINE",
"214 76 LINE",
"200 87 OFFCURVE",
"188 155 OFFCURVE",
"188 349 CURVE",
"31 346 LINE",
"31 110 OFFCURVE",
"92 -9 OFFCURVE",
"239 -9 CURVE",
"267 -9 LINE"
);
}
);
width = 518;
}
);
leftKerningGroup = O;
rightKerningGroup = O;
unicode = 004F;
},
{
glyphname = Oacute;
lastChange = "2025-07-23 11:49:57 +0000";
layers = (
{
anchors = (
{
name = bottom;
position = "{267, 0}";
},
{
name = center;
position = "{267, 375}";
},
{
name = ogonek;
position = "{467, 15}";
},
{
name = top;
position = "{251, 645}";
},
{
name = topleft;
position = "{45, 645}";
},
{
name = topright;
position = "{488, 645}";
}
);
components = (
{
name = O;
},
{
name = acutecomb;
transform = "{1, 0, 0, 1, 208, 127}";
}
);
layerId = "F5421C71-FF83-445B-9C53-783D261A57C9";
width = 541;
},
{
anchors = (
{
name = bottom;
position = "{267, 0}";
},
{
name = center;
position = "{267, 375}";
},
{
name = ogonek;
position = "{467, 15}";
},
{
name = top;
position = "{251, 645}";
},
{
name = topleft;
position = "{45, 645}";
},
{
name = topright;
position = "{488, 645}";
}
);
components = (
{
name = O;
},
{
name = acutecomb;
transform = "{1, 0, 0, 1, 173, 127}";
}
);
layerId = "20F347C1-683B-45AE-B240-2F1F38013DFA";
width = 502;
},
{
anchors = (
{
name = bottom;
position = "{267, 0}";
},
{
name = center;
position = "{267, 375}";
},
{
name = ogonek;
position = "{467, 15}";
},
{
name = top;
position = "{251, 645}";
},
{
name = topleft;
position = "{45, 645}";
},
{
name = topright;
position = "{488, 645}";
}
);
components = (
{
name = O;
},
{
alignment = -1;
name = acutecomb;
transform = "{1, 0, 0, 1, 219, 127}";
}
);
layerId = "BB1D9E28-2A49-4EEB-AB77-8ACE100BF2E3";
width = 537;
},
{
anchors = (
{
name = bottom;
position = "{257, 0}";
},
{
name = center;
position = "{257, 375}";
},
{
name = ogonek;
position = "{456, 15}";
},
{
name = top;
position = "{267, 645}";
},
{
name = topleft;
position = "{35, 645}";
},
{
name = topright;
position = "{477, 645}";
}
);
layerId = "C78A6D26-59D2-48D5-9C7D-482EE6030F02";
paths = (
{
closed = 1;
nodes = (
"240 696 LINE",
"68 684 OFFCURVE",
"20 500 OFFCURVE",
"20 329 CURVE SMOOTH",
"20 165 OFFCURVE",
"74 0 OFFCURVE",
"216 -8 CURVE",
"272 -8 LINE",
"435 -3 OFFCURVE",
"492 182 OFFCURVE",
"492 341 CURVE SMOOTH",
"492 557 OFFCURVE",
"420 696 OFFCURVE",
"273 696 CURVE"
);
},
{
closed = 1;
nodes = (
"312 597 OFFCURVE",
"335 530 OFFCURVE",
"335 338 CURVE SMOOTH",
"335 227 OFFCURVE",
"317 119 OFFCURVE",
"300 81 CURVE",
"233 81 LINE",
"200 92 OFFCURVE",
"180 185 OFFCURVE",
"180 329 CURVE SMOOTH",
"180 471 OFFCURVE",
"192 576 OFFCURVE",
"216 608 CURVE",
"288 608 LINE"
);
},
{
closed = 1;
nodes = (
"273 746 OFFCURVE",
"297 755 CURVE",
"326 797 OFFCURVE",
"348 875 OFFCURVE",
"356 908 CURVE",
"347 932 OFFCURVE",
"293 939 OFFCURVE",
"258 933 CURVE",
"252 933 OFFCURVE",
"248 930 OFFCURVE",
"242 917 CURVE",
"230 882 OFFCURVE",
"222 815 OFFCURVE",
"221 767 CURVE",
"236 749 OFFCURVE"
);
}
);
width = 512;
}
);
leftKerningGroup = O;
rightKerningGroup = O;
unicode = 00D3;
},
{
glyphname = Ocircumflex;
lastChange = "2025-07-22 12:54:31 +0000";
layers = (
{
anchors = (
{
name = bottom;
position = "{267, 0}";
},
{
name = center;
position = "{267, 375}";
},
{
name = ogonek;
position = "{467, 15}";
},
{
name = top;
position = "{251, 645}";
},
{
name = topleft;
position = "{45, 645}";
},
{
name = topright;
position = "{488, 645}";
}
);
components = (
{
name = O;
},
{
alignment = -1;
name = circumflexcomb;
transform = "{1, 0, 0, 1, 129, 127}";
}
);
layerId = "F5421C71-FF83-445B-9C53-783D261A57C9";
width = 541;
},
{
anchors = (
{
name = bottom;
position = "{267, 0}";
},
{
name = center;
position = "{267, 375}";
},
{
name = ogonek;
position = "{467, 15}";
},
{
name = top;
position = "{251, 645}";
},
{
name = topleft;
position = "{45, 645}";
},
{
name = topright;
position = "{488, 645}";
}
);
components = (
{
name = O;
},
{
name = circumflexcomb;
transform = "{1, 0, 0, 1, 100, 127}";
}
);
layerId = "20F347C1-683B-45AE-B240-2F1F38013DFA";
width = 502;
},
{
anchors = (
{
name = bottom;
position = "{267, 0}";
},
{
name = center;
position = "{267, 375}";
},
{
name = ogonek;
position = "{467, 15}";
},
{
name = top;
position = "{251, 645}";
},
{
name = topleft;
position = "{45, 645}";
},
{
name = topright;
position = "{488, 645}";
}
);
components = (
{
name = O;
},
{
name = circumflexcomb;
transform = "{1, 0, 0, 1, 92, 127}";
}
);
layerId = "BB1D9E28-2A49-4EEB-AB77-8ACE100BF2E3";
width = 537;
},
{
anchors = (
{
name = bottom;
position = "{257, 0}";
},
{
name = center;
position = "{257, 375}";
},
{
name = ogonek;
position = "{456, 15}";
},
{
name = top;
position = "{267, 645}";
},
{
name = topleft;
position = "{35, 645}";
},
{
name = topright;
position = "{477, 645}";
}
);
layerId = "C78A6D26-59D2-48D5-9C7D-482EE6030F02";
paths = (
{
closed = 1;
nodes = (
"240 696 LINE",
"68 684 OFFCURVE",
"20 500 OFFCURVE",
"20 329 CURVE SMOOTH",
"20 165 OFFCURVE",
"74 0 OFFCURVE",
"216 -8 CURVE",
"272 -8 LINE",
"435 -3 OFFCURVE",
"492 182 OFFCURVE",
"492 341 CURVE SMOOTH",
"492 557 OFFCURVE",
"420 696 OFFCURVE",
"273 696 CURVE"
);
},
{
closed = 1;
nodes = (
"312 597 OFFCURVE",
"335 530 OFFCURVE",
"335 338 CURVE SMOOTH",
"335 227 OFFCURVE",
"317 119 OFFCURVE",
"300 81 CURVE",
"233 81 LINE",
"200 92 OFFCURVE",
"180 185 OFFCURVE",
"180 329 CURVE SMOOTH",
"180 471 OFFCURVE",
"192 576 OFFCURVE",
"216 608 CURVE",
"288 608 LINE"
);
},
{
closed = 1;
nodes = (
"350 746 OFFCURVE",
"380 749 OFFCURVE",
"395 767 CURVE",
"375 831 OFFCURVE",
"332 918 OFFCURVE",
"314 933 CURVE",
"267 938 OFFCURVE",
"219 932 OFFCURVE",
"222 933 CURVE",
"248 890 OFFCURVE",
"285 819 OFFCURVE",
"320 755 CURVE"
);
},
{
closed = 1;
nodes = (
"240 819 OFFCURVE",
"278 890 OFFCURVE",
"302 933 CURVE",
"305 932 OFFCURVE",
"255 938 OFFCURVE",
"210 933 CURVE",
"191 918 OFFCURVE",
"153 831 OFFCURVE",
"134 767 CURVE",
"149 749 OFFCURVE",
"179 746 OFFCURVE",
"209 755 CURVE"
);
}
);
width = 512;
}
);
leftKerningGroup = O;
rightKerningGroup = O;
unicode = 00D4;
},
{
glyphname = Odieresis;
lastChange = "2025-07-23 16:04:46 +0000";
layers = (
{
components = (
{
name = O;
},
{
name = dieresiscomb;
transform = "{1, 0, 0, 1, 110, 127}";
}
);
layerId = "F5421C71-FF83-445B-9C53-783D261A57C9";
width = 541;
},
{
anchors = (
{
name = bottom;
position = "{267, 0}";
},
{
name = center;
position = "{267, 375}";
},
{
name = ogonek;
position = "{467, 15}";
},
{
name = top;
position = "{251, 645}";
},
{
name = topleft;
position = "{45, 645}";
},
{
name = topright;
position = "{488, 645}";
}
);
components = (
{
name = O;
},
{
name = dieresiscomb;
transform = "{1, 0, 0, 1, 84, 127}";
}
);
layerId = "20F347C1-683B-45AE-B240-2F1F38013DFA";
width = 502;
},
{
anchors = (
{
name = bottom;
position = "{267, 0}";
},
{
name = center;
position = "{267, 375}";
},
{
name = ogonek;
position = "{467, 15}";
},
{
name = top;
position = "{251, 645}";
},
{
name = topleft;
position = "{45, 645}";
},
{
name = topright;
position = "{488, 645}";
}
);
components = (
{
name = O;
},
{
name = dieresiscomb;
transform = "{1, 0, 0, 1, 79, 127}";
}
);
layerId = "BB1D9E28-2A49-4EEB-AB77-8ACE100BF2E3";
width = 537;
},
{
anchors = (
{
name = bottom;
position = "{257, 0}";
},
{
name = center;
position = "{257, 375}";
},
{
name = ogonek;
position = "{456, 15}";
},
{
name = top;
position = "{267, 645}";
},
{
name = topleft;
position = "{35, 645}";
},
{
name = topright;
position = "{477, 645}";
}
);
layerId = "C78A6D26-59D2-48D5-9C7D-482EE6030F02";
paths = (
{
closed = 1;
nodes = (
"240 696 LINE",
"68 684 OFFCURVE",
"20 500 OFFCURVE",
"20 329 CURVE SMOOTH",
"20 165 OFFCURVE",
"74 0 OFFCURVE",
"216 -8 CURVE",
"272 -8 LINE",
"435 -3 OFFCURVE",
"492 182 OFFCURVE",
"492 341 CURVE SMOOTH",
"492 557 OFFCURVE",
"420 696 OFFCURVE",
"273 696 CURVE"
);
},
{
closed = 1;
nodes = (
"312 597 OFFCURVE",
"335 530 OFFCURVE",
"335 338 CURVE SMOOTH",
"335 227 OFFCURVE",
"317 119 OFFCURVE",
"300 81 CURVE",
"233 81 LINE",
"200 92 OFFCURVE",
"180 185 OFFCURVE",
"180 329 CURVE SMOOTH",
"180 471 OFFCURVE",
"192 576 OFFCURVE",
"216 608 CURVE",
"288 608 LINE"
);
},
{
closed = 1;
nodes = (
"189 749 OFFCURVE",
"213 771 CURVE",
"234 797 OFFCURVE",
"240 854 OFFCURVE",
"230 887 CURVE",
"212 929 OFFCURVE",
"137 939 OFFCURVE",
"111 909 CURVE",
"87 879 OFFCURVE",
"87 818 OFFCURVE",
"105 782 CURVE",
"125 752 OFFCURVE"
);
},
{
closed = 1;
nodes = (
"402 749 OFFCURVE",
"426 771 CURVE",
"447 797 OFFCURVE",
"452 854 OFFCURVE",
"441 887 CURVE",
"425 929 OFFCURVE",
"350 939 OFFCURVE",
"323 909 CURVE",
"300 879 OFFCURVE",
"299 818 OFFCURVE",
"317 782 CURVE",
"336 752 OFFCURVE"
);
}
);
width = 512;
}
);
leftKerningGroup = O;
rightKerningGroup = O;
unicode = 00D6;
},
{
glyphname = Ograve;
lastChange = "2025-07-23 11:50:51 +0000";
layers = (
{
anchors = (
{
name = bottom;
position = "{267, 0}";
},
{
name = center;
position = "{267, 375}";
},
{
name = ogonek;
position = "{467, 15}";
},
{
name = top;
position = "{251, 645}";
},
{
name = topleft;
position = "{45, 645}";
},
{
name = topright;
position = "{488, 645}";
}
);
components = (
{
name = O;
},
{
name = gravecomb;
transform = "{1, 0, 0, 1, 149, 127}";
}
);
layerId = "F5421C71-FF83-445B-9C53-783D261A57C9";
width = 541;
},
{
anchors = (
{
name = bottom;
position = "{267, 0}";
},
{
name = center;
position = "{267, 375}";
},
{
name = ogonek;
position = "{467, 15}";
},
{
name = top;
position = "{251, 645}";
},
{
name = topleft;
position = "{45, 645}";
},
{
name = topright;
position = "{488, 645}";
}
);
components = (
{
name = O;
},
{
name = gravecomb;
transform = "{1, 0, 0, 1, 144, 127}";
}
);
layerId = "20F347C1-683B-45AE-B240-2F1F38013DFA";
width = 502;
},
{
anchors = (
{
name = bottom;
position = "{267, 0}";
},
{
name = center;
position = "{267, 375}";
},
{
name = ogonek;
position = "{467, 15}";
},
{
name = top;
position = "{251, 645}";
},
{
name = topleft;
position = "{45, 645}";
},
{
name = topright;
position = "{488, 645}";
}
);
components = (
{
name = O;
},
{
alignment = -1;
name = gravecomb;
transform = "{1, 0, 0, 1, 178, 127}";
}
);
layerId = "BB1D9E28-2A49-4EEB-AB77-8ACE100BF2E3";
width = 537;
},
{
anchors = (
{
name = bottom;
position = "{257, 0}";
},
{
name = center;
position = "{257, 375}";
},
{
name = ogonek;
position = "{456, 15}";
},
{
name = top;
position = "{267, 645}";
},
{
name = topleft;
position = "{35, 645}";
},
{
name = topright;
position = "{477, 645}";
}
);
layerId = "C78A6D26-59D2-48D5-9C7D-482EE6030F02";
paths = (
{
closed = 1;
nodes = (
"240 696 LINE",
"68 684 OFFCURVE",
"20 500 OFFCURVE",
"20 329 CURVE SMOOTH",
"20 165 OFFCURVE",
"74 0 OFFCURVE",
"216 -8 CURVE",
"272 -8 LINE",
"435 -3 OFFCURVE",
"492 182 OFFCURVE",
"492 341 CURVE SMOOTH",
"492 557 OFFCURVE",
"420 696 OFFCURVE",
"273 696 CURVE"
);
},
{
closed = 1;
nodes = (
"312 597 OFFCURVE",
"335 530 OFFCURVE",
"335 338 CURVE SMOOTH",
"335 227 OFFCURVE",
"317 119 OFFCURVE",
"300 81 CURVE",
"233 81 LINE",
"200 92 OFFCURVE",
"180 185 OFFCURVE",
"180 329 CURVE SMOOTH",
"180 471 OFFCURVE",
"192 576 OFFCURVE",
"216 608 CURVE",
"288 608 LINE"
);
},
{
closed = 1;
nodes = (
"312 767 CURVE",
"311 815 OFFCURVE",
"309 882 OFFCURVE",
"291 917 CURVE",
"285 930 OFFCURVE",
"281 933 OFFCURVE",
"275 933 CURVE",
"240 939 OFFCURVE",
"186 932 OFFCURVE",
"177 908 CURVE",
"185 875 OFFCURVE",
"207 797 OFFCURVE",
"236 755 CURVE",
"260 746 OFFCURVE",
"297 749 OFFCURVE"
);
}
);
width = 512;
}
);
leftKerningGroup = O;
rightKerningGroup = O;
unicode = 00D2;
},
{
glyphname = Ohungarumlaut;
lastChange = "2025-07-22 10:47:25 +0000";
layers = (
{
anchors = (
{
name = bottom;
position = "{267, 0}";
},
{
name = center;
position = "{267, 375}";
},
{
name = ogonek;
position = "{467, 15}";
},
{
name = top;
position = "{251, 645}";
},
{
name = topleft;
position = "{45, 645}";
},
{
name = topright;
position = "{488, 645}";
}
);
components = (
{
name = O;
},
{
alignment = -1;
name = hungarumlautcomb;
transform = "{1, 0, 0, 1, 43, 127}";
}
);
layerId = "F5421C71-FF83-445B-9C53-783D261A57C9";
width = 541;
},
{
anchors = (
{
name = bottom;
position = "{267, 0}";
},
{
name = center;
position = "{267, 375}";
},
{
name = ogonek;
position = "{467, 15}";
},
{
name = top;
position = "{251, 645}";
},
{
name = topleft;
position = "{45, 645}";
},
{
name = topright;
position = "{488, 645}";
}
);
components = (
{
name = O;
},
{
name = hungarumlautcomb;
transform = "{1, 0, 0, 1, 2, 127}";
}
);
layerId = "20F347C1-683B-45AE-B240-2F1F38013DFA";
width = 502;
},
{
anchors = (
{
name = bottom;
position = "{267, 0}";
},
{
name = center;
position = "{267, 375}";
},
{
name = ogonek;
position = "{467, 15}";
},
{
name = top;
position = "{251, 645}";
},
{
name = topleft;
position = "{45, 645}";
},
{
name = topright;
position = "{488, 645}";
}
);
components = (
{
name = O;
},
{
name = hungarumlautcomb;
transform = "{1, 0, 0, 1, 91, 127}";
}
);
layerId = "BB1D9E28-2A49-4EEB-AB77-8ACE100BF2E3";
width = 537;
},
{
anchors = (
{
name = bottom;
position = "{257, 0}";
},
{
name = center;
position = "{257, 375}";
},
{
name = ogonek;
position = "{456, 15}";
},
{
name = top;
position = "{267, 645}";
},
{
name = topleft;
position = "{35, 645}";
},
{
name = topright;
position = "{477, 645}";
}
);
layerId = "C78A6D26-59D2-48D5-9C7D-482EE6030F02";
paths = (
{
closed = 1;
nodes = (
"240 696 LINE",
"68 684 OFFCURVE",
"20 500 OFFCURVE",
"20 329 CURVE SMOOTH",
"20 165 OFFCURVE",
"74 0 OFFCURVE",
"216 -8 CURVE",
"272 -8 LINE",
"435 -3 OFFCURVE",
"492 182 OFFCURVE",
"492 341 CURVE SMOOTH",
"492 557 OFFCURVE",
"420 696 OFFCURVE",
"273 696 CURVE"
);
},
{
closed = 1;
nodes = (
"312 597 OFFCURVE",
"335 530 OFFCURVE",
"335 338 CURVE SMOOTH",
"335 227 OFFCURVE",
"317 119 OFFCURVE",
"300 81 CURVE",
"233 81 LINE",
"200 92 OFFCURVE",
"180 185 OFFCURVE",
"180 329 CURVE SMOOTH",
"180 471 OFFCURVE",
"192 576 OFFCURVE",
"216 608 CURVE",
"288 608 LINE"
);
},
{
closed = 1;
nodes = (
"192 746 OFFCURVE",
"216 755 CURVE",
"245 797 OFFCURVE",
"267 875 OFFCURVE",
"275 908 CURVE",
"266 932 OFFCURVE",
"212 939 OFFCURVE",
"177 933 CURVE",
"171 933 OFFCURVE",
"167 930 OFFCURVE",
"161 917 CURVE",
"152 882 OFFCURVE",
"141 815 OFFCURVE",
"140 767 CURVE",
"155 749 OFFCURVE"
);
},
{
closed = 1;
nodes = (
"383 746 OFFCURVE",
"408 755 CURVE",
"437 797 OFFCURVE",
"459 875 OFFCURVE",
"467 908 CURVE",
"458 932 OFFCURVE",
"404 939 OFFCURVE",
"369 933 CURVE",
"363 933 OFFCURVE",
"359 930 OFFCURVE",
"353 917 CURVE",
"344 882 OFFCURVE",
"327 815 OFFCURVE",
"320 767 CURVE",
"342 749 OFFCURVE"
);
}
);
width = 512;
}
);
leftKerningGroup = O;
rightKerningGroup = O;
unicode = 0150;
},
{
glyphname = Omacron;
lastChange = "2025-07-22 12:45:23 +0000";
layers = (
{
anchors = (
{
name = bottom;
position = "{267, 0}";
},
{
name = center;
position = "{267, 375}";
},
{
name = ogonek;
position = "{467, 15}";
},
{
name = top;
position = "{251, 645}";
},
{
name = topleft;
position = "{45, 645}";
},
{
name = topright;
position = "{488, 645}";
}
);
components = (
{
name = O;
},
{
name = macroncomb;
transform = "{1, 0, 0, 1, 127, 127}";
}
);
layerId = "F5421C71-FF83-445B-9C53-783D261A57C9";
width = 541;
},
{
anchors = (
{
name = bottom;
position = "{267, 0}";
},
{
name = center;
position = "{267, 375}";
},
{
name = ogonek;
position = "{467, 15}";
},
{
name = top;
position = "{251, 645}";
},
{
name = topleft;
position = "{45, 645}";
},
{
name = topright;
position = "{488, 645}";
}
);
components = (
{
name = O;
},
{
name = macroncomb;
transform = "{1, 0, 0, 1, 98, 127}";
}
);
layerId = "20F347C1-683B-45AE-B240-2F1F38013DFA";
width = 502;
},
{
anchors = (
{
name = bottom;
position = "{267, 0}";
},
{
name = center;
position = "{267, 375}";
},
{
name = ogonek;
position = "{467, 15}";
},
{
name = top;
position = "{251, 645}";
},
{
name = topleft;
position = "{45, 645}";
},
{
name = topright;
position = "{488, 645}";
}
);
components = (
{
name = O;
},
{
name = macroncomb;
transform = "{1, 0, 0, 1, 113, 127}";
}
);
layerId = "BB1D9E28-2A49-4EEB-AB77-8ACE100BF2E3";
width = 537;
},
{
anchors = (
{
name = bottom;
position = "{257, 0}";
},
{
name = center;
position = "{257, 375}";
},
{
name = ogonek;
position = "{456, 15}";
},
{
name = top;
position = "{267, 645}";
},
{
name = topleft;
position = "{35, 645}";
},
{
name = topright;
position = "{477, 645}";
}
);
layerId = "C78A6D26-59D2-48D5-9C7D-482EE6030F02";
paths = (
{
closed = 1;
nodes = (
"240 696 LINE",
"68 684 OFFCURVE",
"20 500 OFFCURVE",
"20 329 CURVE SMOOTH",
"20 165 OFFCURVE",
"74 0 OFFCURVE",
"216 -8 CURVE",
"272 -8 LINE",
"435 -3 OFFCURVE",
"492 182 OFFCURVE",
"492 341 CURVE SMOOTH",
"492 557 OFFCURVE",
"420 696 OFFCURVE",
"273 696 CURVE"
);
},
{
closed = 1;
nodes = (
"312 597 OFFCURVE",
"335 530 OFFCURVE",
"335 338 CURVE SMOOTH",
"335 227 OFFCURVE",
"317 119 OFFCURVE",
"300 81 CURVE",
"233 81 LINE",
"200 92 OFFCURVE",
"180 185 OFFCURVE",
"180 329 CURVE SMOOTH",
"180 471 OFFCURVE",
"192 576 OFFCURVE",
"216 608 CURVE",
"288 608 LINE"
);
},
{
closed = 1;
nodes = (
"122 843 OFFCURVE",
"120 822 OFFCURVE",
"129 792 CURVE",
"240 791 OFFCURVE",
"293 792 OFFCURVE",
"404 792 CURVE",
"411 834 OFFCURVE",
"411 843 OFFCURVE",
"404 885 CURVE",
"302 894 OFFCURVE",
"224 884 OFFCURVE",
"129 885 CURVE"
);
}
);
width = 512;
}
);
leftKerningGroup = O;
rightKerningGroup = O;
unicode = 014C;
},
{
glyphname = Oslash;
lastChange = "2025-07-22 10:47:25 +0000";
layers = (
{
anchors = (
{
name = bottom;
position = "{299, 0}";
},
{
name = center;
position = "{299, 375}";
},
{
name = ogonek;
position = "{499, 15}";
},
{
name = top;
position = "{283, 645}";
},
{
name = topleft;
position = "{77, 645}";
},
{
name = topright;
position = "{520, 645}";
}
);
components = (
{
alignment = -1;
name = O;
transform = "{1, 0, 0, 1, 32, 0}";
},
{
name = slashlongcomb;
transform = "{1, 0, 0, 1, 32, 0}";
}
);
layerId = "F5421C71-FF83-445B-9C53-783D261A57C9";
width = 563;
},
{
layerId = "20F347C1-683B-45AE-B240-2F1F38013DFA";
paths = (
{
closed = 1;
nodes = (
"509 696 LINE",
"409 696 LINE",
"30 0 LINE",
"130 0 LINE"
);
},
{
closed = 1;
nodes = (
"351 311 LINE",
"351 192 OFFCURVE",
"345 106 OFFCURVE",
"339 78 CURVE",
"233 78 LINE",
"185 2 LINE",
"205 -6 OFFCURVE",
"229 -11 OFFCURVE",
"255 -11 CURVE SMOOTH",
"306 -11 LINE SMOOTH",
"468 -11 OFFCURVE",
"507 165 OFFCURVE",
"511 329 CURVE",
"511 329 LINE",
"511 343 LINE",
"511 357 LINE",
"509 426 OFFCURVE",
"502 497 OFFCURVE",
"484 558 CURVE"
);
},
{
closed = 1;
nodes = (
"210 422 LINE",
"211 525 OFFCURVE",
"217 588 OFFCURVE",
"222 612 CURVE",
"308 612 LINE",
"360 697 LINE",
"344 700 OFFCURVE",
"325 701 OFFCURVE",
"306 701 CURVE SMOOTH",
"255 701 LINE SMOOTH",
"93 701 OFFCURVE",
"53 524 OFFCURVE",
"49 357 CURVE SMOOTH",
"49 352 OFFCURVE",
"49 348 OFFCURVE",
"49 343 CURVE SMOOTH",
"49 329 LINE SMOOTH",
"50 276 OFFCURVE",
"55 221 OFFCURVE",
"67 172 CURVE"
);
}
);
width = 541;
},
{
anchors = (
{
name = bottom;
position = "{293, 0}";
},
{
name = center;
position = "{293, 375}";
},
{
name = ogonek;
position = "{493, 15}";
},
{
name = top;
position = "{277, 645}";
},
{
name = topleft;
position = "{71, 645}";
},
{
name = topright;
position = "{514, 645}";
}
);
components = (
{
alignment = -1;
name = O;
transform = "{1, 0, 0, 1, 8, 0}";
},
{
name = slashlongcomb;
transform = "{1, 0, 0, 1, 1, 0}";
}
);
layerId = "BB1D9E28-2A49-4EEB-AB77-8ACE100BF2E3";
width = 547;
},
{
components = (
{
name = O;
},
{
name = slashlongcomb;
transform = "{1, 0, 0, 1, -12, 0}";
}
);
layerId = "C78A6D26-59D2-48D5-9C7D-482EE6030F02";
width = 518;
}
);
leftKerningGroup = O;
rightKerningGroup = O;
unicode = 00D8;
},
{
glyphname = Otilde;
lastChange = "2025-07-22 10:47:25 +0000";
layers = (
{
anchors = (
{
name = bottom;
position = "{267, 0}";
},
{
name = center;
position = "{267, 375}";
},
{
name = ogonek;
position = "{467, 15}";
},
{
name = top;
position = "{251, 645}";
},
{
name = topleft;
position = "{45, 645}";
},
{
name = topright;
position = "{488, 645}";
}
);
components = (
{
name = O;
},
{
alignment = -1;
name = tildecomb;
transform = "{1, 0, 0, 1, 74, 127}";
}
);
layerId = "F5421C71-FF83-445B-9C53-783D261A57C9";
width = 541;
},
{
anchors = (
{
name = bottom;
position = "{267, 0}";
},
{
name = center;
position = "{267, 375}";
},
{
name = ogonek;
position = "{467, 15}";
},
{
name = top;
position = "{251, 645}";
},
{
name = topleft;
position = "{45, 645}";
},
{
name = topright;
position = "{488, 645}";
}
);
layerId = "20F347C1-683B-45AE-B240-2F1F38013DFA";
paths = (
{
closed = 1;
nodes = (
"302 612 LINE",
"320 612 LINE",
"320 78 LINE",
"302 78 LINE",
"302 -11 LINE",
"452 0 OFFCURVE",
"488 170 OFFCURVE",
"492 329 CURVE",
"492 329 LINE",
"492 344 LINE",
"492 357 LINE",
"488 521 OFFCURVE",
"452 690 OFFCURVE",
"302 701 CURVE"
);
},
{
closed = 1;
nodes = (
"221 701 LINE",
"71 690 OFFCURVE",
"35 521 OFFCURVE",
"30 357 CURVE SMOOTH",
"30 353 OFFCURVE",
"30 348 OFFCURVE",
"30 344 CURVE SMOOTH",
"30 329 LINE SMOOTH",
"35 170 OFFCURVE",
"71 0 OFFCURVE",
"221 -11 CURVE",
"221 78 LINE",
"203 78 LINE",
"203 612 LINE",
"221 612 LINE"
);
},
{
closed = 1;
nodes = (
"335 834 LINE",
"305 834 LINE",
"254 890 OFFCURVE",
"227 930 OFFCURVE",
"155 918 CURVE",
"116 899 OFFCURVE",
"90 848 OFFCURVE",
"75 770 CURVE",
"155 770 LINE",
"155 843 LINE",
"185 843 LINE",
"230 797 OFFCURVE",
"275 737 OFFCURVE",
"341 759 CURVE",
"374 782 OFFCURVE",
"404 834 OFFCURVE",
"414 908 CURVE",
"335 908 LINE"
);
}
);
width = 522;
},
{
anchors = (
{
name = bottom;
position = "{267, 0}";
},
{
name = center;
position = "{267, 375}";
},
{
name = ogonek;
position = "{467, 15}";
},
{
name = top;
position = "{251, 645}";
},
{
name = topleft;
position = "{45, 645}";
},
{
name = topright;
position = "{488, 645}";
}
);
components = (
{
name = O;
},
{
alignment = -1;
name = tildecomb;
transform = "{1, 0, 0, 1, 82, 127}";
}
);
layerId = "BB1D9E28-2A49-4EEB-AB77-8ACE100BF2E3";
width = 537;
},
{
anchors = (
{
name = bottom;
position = "{257, 0}";
},
{
name = center;
position = "{257, 375}";
},
{
name = ogonek;
position = "{456, 15}";
},
{
name = top;
position = "{267, 645}";
},
{
name = topleft;
position = "{35, 645}";
},
{
name = topright;
position = "{477, 645}";
}
);
layerId = "C78A6D26-59D2-48D5-9C7D-482EE6030F02";
paths = (
{
closed = 1;
nodes = (
"240 696 LINE",
"68 684 OFFCURVE",
"20 500 OFFCURVE",
"20 329 CURVE SMOOTH",
"20 165 OFFCURVE",
"74 0 OFFCURVE",
"216 -8 CURVE",
"272 -8 LINE",
"435 -3 OFFCURVE",
"492 182 OFFCURVE",
"492 341 CURVE SMOOTH",
"492 557 OFFCURVE",
"420 696 OFFCURVE",
"273 696 CURVE"
);
},
{
closed = 1;
nodes = (
"312 597 OFFCURVE",
"335 530 OFFCURVE",
"335 338 CURVE SMOOTH",
"335 227 OFFCURVE",
"317 119 OFFCURVE",
"300 81 CURVE",
"233 81 LINE",
"200 92 OFFCURVE",
"180 185 OFFCURVE",
"180 329 CURVE SMOOTH",
"180 471 OFFCURVE",
"192 576 OFFCURVE",
"216 608 CURVE",
"288 608 LINE"
);
},
{
closed = 1;
nodes = (
"347 872 OFFCURVE",
"338 845 OFFCURVE",
"336 834 CURVE",
"276 885 OFFCURVE",
"251 930 OFFCURVE",
"171 918 CURVE",
"135 897 OFFCURVE",
"104 867 OFFCURVE",
"92 789 CURVE",
"108 774 OFFCURVE",
"123 770 OFFCURVE",
"162 770 CURVE",
"177 806 OFFCURVE",
"186 834 OFFCURVE",
"186 843 CURVE",
"237 803 OFFCURVE",
"285 738 OFFCURVE",
"357 759 CURVE",
"390 782 OFFCURVE",
"420 815 OFFCURVE",
"431 888 CURVE",
"414 900 OFFCURVE",
"399 905 OFFCURVE",
"362 908 CURVE"
);
}
);
width = 512;
}
);
leftKerningGroup = O;
rightKerningGroup = O;
unicode = 00D5;
},
{
glyphname = OE;
lastChange = "2025-07-22 11:04:30 +0000";
layers = (
{
anchors = (
{
name = bottom;
position = "{256, 0}";
},
{
name = center;
position = "{256, 375}";
},
{
name = ogonek;
position = "{456, 15}";
},
{
name = top;
position = "{240, 645}";
},
{
name = topleft;
position = "{34, 645}";
},
{
name = topright;
position = "{477, 645}";
}
);
layerId = "F5421C71-FF83-445B-9C53-783D261A57C9";
paths = (
{
closed = 1;
nodes = (
"352 612 LINE",
"336 696 LINE",
"250 696 LINE",
"250 612 LINE"
);
},
{
closed = 1;
nodes = (
"334 89 LINE",
"264 89 LINE",
"264 0 LINE",
"397 0 LINE"
);
},
{
closed = 1;
nodes = (
"333 696 LINE",
"333 0 LINE",
"478 0 LINE",
"478 696 LINE"
);
},
{
closed = 1;
nodes = (
"414 311 LINE",
"630 311 LINE",
"630 393 LINE",
"414 393 LINE"
);
},
{
closed = 1;
nodes = (
"414 0 LINE",
"652 0 LINE",
"640 173 LINE",
"556 68 LINE",
"414 68 LINE"
);
},
{
closed = 1;
nodes = (
"414 629 LINE",
"562 629 LINE",
"640 509 LINE",
"652 696 LINE",
"414 696 LINE"
);
},
{
closed = 1;
nodes = (
"201 118 OFFCURVE",
"195 214 OFFCURVE",
"195 344 CURVE SMOOTH",
"195 483 OFFCURVE",
"201 582 OFFCURVE",
"207 612 CURVE",
"250 612 LINE",
"250 696 LINE",
"240 696 LINE SMOOTH",
"89 696 OFFCURVE",
"34 542 OFFCURVE",
"34 343 CURVE SMOOTH",
"34 118 OFFCURVE",
"103 0 OFFCURVE",
"240 0 CURVE SMOOTH",
"265 0 LINE",
"265 89 LINE",
"207 89 LINE"
);
}
);
width = 694;
},
{
anchors = (
{
name = bottom;
position = "{515, 0}";
},
{
name = center;
position = "{264, 375}";
},
{
name = ogonek;
position = "{674, 15}";
},
{
name = top;
position = "{515, 645}";
},
{
name = topleft;
position = "{344, 645}";
},
{
name = topright;
position = "{485, 645}";
}
);
layerId = "20F347C1-683B-45AE-B240-2F1F38013DFA";
paths = (
{
closed = 1;
nodes = (
"299 612 LINE",
"317 612 LINE",
"317 82 LINE",
"299 82 LINE",
"299 -7 LINE",
"449 -7 OFFCURVE",
"485 172 OFFCURVE",
"489 329 CURVE",
"489 329 LINE",
"489 344 LINE",
"489 357 LINE",
"485 521 OFFCURVE",
"449 701 OFFCURVE",
"299 701 CURVE"
);
},
{
closed = 1;
nodes = (
"218 701 LINE",
"68 701 OFFCURVE",
"30 521 OFFCURVE",
"30 357 CURVE SMOOTH",
"30 353 OFFCURVE",
"30 348 OFFCURVE",
"30 344 CURVE SMOOTH",
"30 329 LINE SMOOTH",
"30 172 OFFCURVE",
"68 -8 OFFCURVE",
"218 -7 CURVE",
"218 82 LINE",
"200 82 LINE",
"200 612 LINE",
"218 612 LINE"
);
},
{
closed = 1;
nodes = (
"353 696 LINE",
"353 0 LINE",
"498 0 LINE",
"498 696 LINE"
);
},
{
closed = 1;
nodes = (
"569 311 LINE",
"650 296 LINE",
"650 408 LINE",
"569 393 LINE"
);
},
{
closed = 1;
nodes = (
"569 0 LINE",
"672 0 LINE",
"660 177 LINE",
"569 68 LINE"
);
},
{
closed = 1;
nodes = (
"569 629 LINE",
"660 509 LINE",
"672 696 LINE",
"569 696 LINE"
);
}
);
width = 714;
},
{
anchors = (
{
name = bottom;
position = "{262, 0}";
},
{
name = center;
position = "{262, 375}";
},
{
name = ogonek;
position = "{462, 15}";
},
{
name = top;
position = "{246, 645}";
},
{
name = topleft;
position = "{40, 645}";
},
{
name = topright;
position = "{483, 645}";
}
);
layerId = "BB1D9E28-2A49-4EEB-AB77-8ACE100BF2E3";
paths = (
{
closed = 1;
nodes = (
"223 325 LINE",
"223 469 OFFCURVE",
"229 575 OFFCURVE",
"234 608 CURVE",
"278 608 LINE",
"278 700 LINE",
"246 700 LINE SMOOTH",
"90 700 OFFCURVE",
"17 576 OFFCURVE",
"18 325 CURVE"
);
},
{
closed = 1;
nodes = (
"381 608 LINE",
"363 700 LINE",
"234 700 LINE",
"234 608 LINE"
);
},
{
closed = 1;
nodes = (
"17 119 OFFCURVE",
"91 -4 OFFCURVE",
"246 -4 CURVE SMOOTH",
"293 -4 LINE",
"293 93 LINE",
"234 93 LINE",
"229 125 OFFCURVE",
"223 227 OFFCURVE",
"223 361 CURVE",
"18 361 LINE"
);
},
{
closed = 1;
nodes = (
"357 93 LINE",
"248 93 LINE",
"248 -4 LINE",
"425 -4 LINE"
);
},
{
closed = 1;
nodes = (
"317 700 LINE",
"317 -4 LINE",
"506 -4 LINE",
"506 700 LINE"
);
},
{
closed = 1;
nodes = (
"398 307 LINE",
"658 307 LINE",
"658 397 LINE",
"398 397 LINE"
);
},
{
closed = 1;
nodes = (
"398 -4 LINE",
"680 -4 LINE",
"665 220 LINE",
"546 72 LINE",
"398 72 LINE"
);
},
{
closed = 1;
nodes = (
"398 625 LINE",
"551 625 LINE",
"664 450 LINE",
"680 700 LINE",
"398 700 LINE"
);
}
);
width = 703;
},
{
anchors = (
{
name = bottom;
position = "{512, 0}";
},
{
name = center;
position = "{268, 375}";
},
{
name = ogonek;
position = "{671, 15}";
},
{
name = top;
position = "{512, 645}";
},
{
name = topleft;
position = "{341, 645}";
},
{
name = topright;
position = "{488, 645}";
}
);
layerId = "C78A6D26-59D2-48D5-9C7D-482EE6030F02";
paths = (
{
closed = 1;
nodes = (
"251 696 LINE",
"79 684 OFFCURVE",
"31 500 OFFCURVE",
"31 329 CURVE SMOOTH",
"31 165 OFFCURVE",
"85 0 OFFCURVE",
"227 -8 CURVE",
"283 -8 LINE",
"446 -3 OFFCURVE",
"503 182 OFFCURVE",
"503 341 CURVE SMOOTH",
"503 557 OFFCURVE",
"431 696 OFFCURVE",
"284 696 CURVE"
);
},
{
closed = 1;
nodes = (
"323 597 OFFCURVE",
"346 530 OFFCURVE",
"346 338 CURVE SMOOTH",
"346 227 OFFCURVE",
"328 119 OFFCURVE",
"311 81 CURVE",
"244 81 LINE",
"211 92 OFFCURVE",
"191 185 OFFCURVE",
"191 329 CURVE SMOOTH",
"191 471 OFFCURVE",
"203 576 OFFCURVE",
"227 608 CURVE",
"299 608 LINE"
);
},
{
closed = 1;
nodes = (
"352 672 LINE",
"353 642 OFFCURVE",
"355 612 OFFCURVE",
"355 591 CURVE",
"358 390 LINE",
"500 381 LINE",
"497 657 LINE SMOOTH",
"497 690 OFFCURVE",
"449 690 OFFCURVE",
"428 690 CURVE",
"397 690 OFFCURVE",
"374 686 OFFCURVE",
"361 681 CURVE"
);
},
{
closed = 1;
nodes = (
"355 71 LINE",
"350 0 LINE",
"373 -5 OFFCURVE",
"433 0 OFFCURVE",
"473 0 CURVE",
"497 0 LINE",
"500 381 LINE",
"358 420 LINE"
);
},
{
closed = 1;
nodes = (
"386 300 LINE",
"478 296 OFFCURVE",
"578 297 OFFCURVE",
"668 300 CURVE",
"679 333 OFFCURVE",
"689 365 OFFCURVE",
"679 398 CURVE",
"662 398 OFFCURVE",
"638 398 OFFCURVE",
"622 398 CURVE SMOOTH",
"547 398 OFFCURVE",
"499 389 OFFCURVE",
"454 393 CURVE"
);
},
{
closed = 1;
nodes = (
"386 597 LINE",
"478 593 OFFCURVE",
"589 594 OFFCURVE",
"682 597 CURVE",
"689 615 OFFCURVE",
"700 647 OFFCURVE",
"686 695 CURVE",
"673 695 OFFCURVE",
"649 695 OFFCURVE",
"632 695 CURVE SMOOTH",
"557 695 OFFCURVE",
"487 690 OFFCURVE",
"439 690 CURVE"
);
},
{
closed = 1;
nodes = (
"392 -2 LINE",
"484 -6 OFFCURVE",
"592 -5 OFFCURVE",
"691 -2 CURVE",
"694 32 OFFCURVE",
"698 62 OFFCURVE",
"692 96 CURVE",
"676 96 OFFCURVE",
"652 96 OFFCURVE",
"635 96 CURVE SMOOTH",
"559 96 OFFCURVE",
"503 93 OFFCURVE",
"457 95 CURVE"
);
}
);
width = 709;
}
);
leftKerningGroup = O;
leftMetricsKey = O;
rightKerningGroup = E;
rightMetricsKey = E;
unicode = 0152;
},
{
color = 3;
glyphname = P;
lastChange = "2025-07-23 15:23:39 +0000";
layers = (
{
anchors = (
{
name = bottom;
position = "{246, 0}";
},
{
name = top;
position = "{246, 645}";
}
);
background = {
paths = (
{
closed = 1;
nodes = (
"58 696 LINE",
"58 0 LINE",
"203 0 LINE",
"203 215 LINE",
"269 215 LINE SMOOTH",
"420 215 OFFCURVE",
"460 348 OFFCURVE",
"460 462 CURVE SMOOTH",
"460 571 OFFCURVE",
"425 696 OFFCURVE",
"263 696 CURVE"
);
},
{
closed = 1;
nodes = (
"203 291 LINE",
"203 620 LINE",
"302 620 LINE",
"305 609 OFFCURVE",
"306 513 OFFCURVE",
"306 452 CURVE SMOOTH",
"306 383 OFFCURVE",
"305 330 OFFCURVE",
"303 291 CURVE"
);
}
);
};
layerId = "F5421C71-FF83-445B-9C53-783D261A57C9";
paths = (
{
closed = 1;
nodes = (
"58 696 LINE",
"58 0 LINE",
"203 0 LINE",
"203 215 LINE",
"269 215 LINE SMOOTH",
"420 215 OFFCURVE",
"460 339 OFFCURVE",
"460 463 CURVE SMOOTH",
"460 581 OFFCURVE",
"421 696 OFFCURVE",
"259 696 CURVE"
);
},
{
closed = 1;
nodes = (
"203 291 LINE",
"203 620 LINE",
"302 620 LINE",
"305 609 OFFCURVE",
"306 513 OFFCURVE",
"306 452 CURVE SMOOTH",
"306 383 OFFCURVE",
"305 330 OFFCURVE",
"303 291 CURVE"
);
}
);
width = 477;
},
{
anchors = (
{
name = bottom;
position = "{243, 0}";
},
{
name = top;
position = "{243, 645}";
}
);
layerId = "20F347C1-683B-45AE-B240-2F1F38013DFA";
paths = (
{
closed = 1;
nodes = (
"200 696 LINE",
"57 696 LINE",
"57 0 LINE",
"200 0 LINE"
);
},
{
closed = 1;
nodes = (
"293 203 LINE",
"398 203 OFFCURVE",
"448 332 OFFCURVE",
"448 446 CURVE SMOOTH",
"448 548 OFFCURVE",
"425 696 OFFCURVE",
"293 696 CURVE"
);
}
);
width = 469;
},
{
anchors = (
{
name = bottom;
position = "{246, 0}";
},
{
name = top;
position = "{246, 645}";
}
);
layerId = "BB1D9E28-2A49-4EEB-AB77-8ACE100BF2E3";
paths = (
{
closed = 1;
nodes = (
"35 696 LINE",
"35 0 LINE",
"225 0 LINE",
"225 199 LINE",
"260 199 LINE SMOOTH",
"399 199 OFFCURVE",
"483 293 OFFCURVE",
"483 446 CURVE SMOOTH",
"483 608 OFFCURVE",
"410 696 OFFCURVE",
"269 696 CURVE SMOOTH"
);
},
{
closed = 1;
nodes = (
"225 289 LINE",
"225 606 LINE",
"283 606 LINE",
"283 289 LINE"
);
}
);
width = 477;
},
{
anchors = (
{
name = bottom;
position = "{245, 0}";
},
{
name = top;
position = "{245, 645}";
}
);
layerId = "C78A6D26-59D2-48D5-9C7D-482EE6030F02";
paths = (
{
closed = 1;
nodes = (
"56 660 LINE",
"196 611 LINE",
"197 612 OFFCURVE",
"197 612 OFFCURVE",
"199 614 CURVE",
"301 614 LINE",
"306 603 OFFCURVE",
"308 507 OFFCURVE",
"308 446 CURVE SMOOTH",
"308 377 OFFCURVE",
"304 324 OFFCURVE",
"302 285 CURVE",
"208 285 LINE",
"203 287 OFFCURVE",
"200 288 OFFCURVE",
"196 293 CURVE",
"196 203 LINE",
"259 203 LINE",
"413 207 OFFCURVE",
"463 332 OFFCURVE",
"463 446 CURVE SMOOTH",
"463 555 OFFCURVE",
"431 692 OFFCURVE",
"268 692 CURVE",
"223 692 LINE",
"215 692 OFFCURVE",
"173 691 OFFCURVE",
"127 691 CURVE SMOOTH",
"121 691 OFFCURVE",
"77 696 OFFCURVE",
"56 686 CURVE"
);
},
{
closed = 1;
nodes = (
"56 671 LINE",
"56 641 OFFCURVE",
"56 606 OFFCURVE",
"56 586 CURVE",
"58 390 LINE",
"200 381 LINE",
"200 650 LINE SMOOTH",
"200 663 OFFCURVE",
"194 671 OFFCURVE",
"185 677 CURVE",
"166 682 OFFCURVE",
"152 682 OFFCURVE",
"131 682 CURVE",
"100 689 OFFCURVE",
"79 684 OFFCURVE",
"65 680 CURVE"
);
},
{
closed = 1;
nodes = (
"58 71 LINE",
"59 0 LINE",
"81 -5 OFFCURVE",
"113 -6 OFFCURVE",
"151 -6 CURVE",
"202 0 LINE",
"200 381 LINE",
"58 420 LINE"
);
}
);
width = 476;
}
);
leftKerningGroup = H;
leftMetricsKey = H;
rightKerningGroup = P;
unicode = 0050;
},
{
glyphname = Thorn;
lastChange = "2025-07-23 12:01:16 +0000";
layers = (
{
layerId = "F5421C71-FF83-445B-9C53-783D261A57C9";
paths = (
{
closed = 1;
nodes = (
"203 602 LINE",
"203 696 LINE",
"58 696 LINE",
"58 0 LINE",
"203 0 LINE",
"203 109 LINE",
"260 109 LINE SMOOTH",
"411 109 OFFCURVE",
"461 237 OFFCURVE",
"461 351 CURVE SMOOTH",
"461 461 OFFCURVE",
"431 602 OFFCURVE",
"269 602 CURVE SMOOTH"
);
},
{
closed = 1;
nodes = (
"203 191 LINE",
"203 519 LINE",
"302 519 LINE",
"305 509 OFFCURVE",
"306 413 OFFCURVE",
"306 351 CURVE SMOOTH",
"306 282 OFFCURVE",
"305 230 OFFCURVE",
"303 191 CURVE"
);
}
);
width = 478;
},
{
layerId = "20F347C1-683B-45AE-B240-2F1F38013DFA";
paths = (
{
closed = 1;
nodes = (
"296 107 LINE",
"413 109 OFFCURVE",
"453 236 OFFCURVE",
"453 350 CURVE SMOOTH",
"453 460 OFFCURVE",
"413 601 OFFCURVE",
"296 601 CURVE"
);
},
{
closed = 1;
nodes = (
"203 696 LINE",
"57 696 LINE",
"57 0 LINE",
"203 0 LINE"
);
}
);
width = 474;
},
{
layerId = "BB1D9E28-2A49-4EEB-AB77-8ACE100BF2E3";
paths = (
{
closed = 1;
nodes = (
"226 606 LINE",
"226 696 LINE",
"35 696 LINE",
"35 0 LINE",
"225 0 LINE",
"225 109 LINE",
"259 109 LINE SMOOTH",
"398 109 OFFCURVE",
"482 203 OFFCURVE",
"482 356 CURVE SMOOTH",
"482 518 OFFCURVE",
"409 606 OFFCURVE",
"268 606 CURVE SMOOTH"
);
},
{
closed = 1;
nodes = (
"225 199 LINE",
"225 516 LINE",
"280 516 LINE",
"283 442 OFFCURVE",
"283 271 OFFCURVE",
"280 199 CURVE"
);
}
);
width = 476;
},
{
layerId = "C78A6D26-59D2-48D5-9C7D-482EE6030F02";
paths = (
{
closed = 1;
nodes = (
"56 560 LINE",
"196 511 LINE",
"197 512 OFFCURVE",
"197 512 OFFCURVE",
"199 514 CURVE",
"301 514 LINE",
"306 503 OFFCURVE",
"308 407 OFFCURVE",
"308 346 CURVE SMOOTH",
"308 277 OFFCURVE",
"304 224 OFFCURVE",
"302 185 CURVE",
"208 185 LINE",
"203 187 OFFCURVE",
"200 188 OFFCURVE",
"196 193 CURVE",
"196 103 LINE",
"259 103 LINE",
"413 107 OFFCURVE",
"463 232 OFFCURVE",
"463 346 CURVE SMOOTH",
"463 455 OFFCURVE",
"431 592 OFFCURVE",
"268 592 CURVE",
"223 592 LINE",
"215 592 OFFCURVE",
"173 591 OFFCURVE",
"127 591 CURVE SMOOTH",
"121 591 OFFCURVE",
"77 596 OFFCURVE",
"56 586 CURVE"
);
},
{
closed = 1;
nodes = (
"56 688 CURVE",
"56 658 OFFCURVE",
"56 612 OFFCURVE",
"56 586 CURVE",
"58 390 LINE",
"200 381 LINE",
"200 650 LINE SMOOTH",
"200 664 OFFCURVE",
"200 678 OFFCURVE",
"197 692 CURVE",
"183 700 OFFCURVE",
"159 703 OFFCURVE",
"121 703 CURVE",
"98 703 OFFCURVE",
"70 702 OFFCURVE"
);
},
{
closed = 1;
nodes = (
"58 71 LINE",
"59 0 LINE",
"81 -5 OFFCURVE",
"113 -6 OFFCURVE",
"151 -6 CURVE",
"202 0 LINE",
"200 381 LINE",
"58 420 LINE"
);
}
);
width = 476;
}
);
leftKerningGroup = H;
leftMetricsKey = P;
rightKerningGroup = P;
rightMetricsKey = P;
unicode = 00DE;
},
{
glyphname = Q;
lastChange = "2025-07-23 15:47:34 +0000";
layers = (
{
background = {
paths = (
{
closed = 1;
nodes = (
"484 357 LINE",
"484 524 OFFCURVE",
"443 701 OFFCURVE",
"281 701 CURVE SMOOTH",
"230 701 LINE SMOOTH",
"68 701 OFFCURVE",
"26 524 OFFCURVE",
"26 357 CURVE",
"26 329 LINE SMOOTH",
"26 165 OFFCURVE",
"68 -11 OFFCURVE",
"230 -11 CURVE SMOOTH",
"247 -11 LINE",
"348 -161 LINE",
"468 -92 LINE",
"359 6 LINE",
"456 54 OFFCURVE",
"484 196 OFFCURVE",
"484 329 CURVE"
);
},
{
closed = 1;
nodes = (
"185 483 OFFCURVE",
"191 582 OFFCURVE",
"197 612 CURVE",
"314 612 LINE",
"320 582 OFFCURVE",
"326 483 OFFCURVE",
"326 343 CURVE SMOOTH",
"326 208 OFFCURVE",
"320 109 OFFCURVE",
"314 78 CURVE",
"197 78 LINE",
"191 109 OFFCURVE",
"185 208 OFFCURVE",
"185 343 CURVE SMOOTH"
);
}
);
};
components = (
{
name = O;
}
);
layerId = "F5421C71-FF83-445B-9C53-783D261A57C9";
paths = (
{
closed = 1;
nodes = (
"212 19 LINE",
"328 -161 LINE",
"448 -102 LINE",
"309 36 LINE"
);
}
);
width = 541;
},
{
anchors = (
{
name = bottom;
position = "{252, 0}";
},
{
name = center;
position = "{267, 375}";
},
{
name = ogonek;
position = "{467, 15}";
},
{
name = top;
position = "{252, 645}";
},
{
name = topleft;
position = "{45, 645}";
},
{
name = topright;
position = "{488, 645}";
}
);
layerId = "20F347C1-683B-45AE-B240-2F1F38013DFA";
paths = (
{
closed = 1;
nodes = (
"303 612 LINE",
"320 612 LINE",
"320 78 LINE",
"296 78 LINE",
"296 -30 LINE",
"354 -161 LINE",
"474 -92 LINE",
"378 14 LINE",
"464 68 OFFCURVE",
"489 201 OFFCURVE",
"492 329 CURVE SMOOTH",
"492 333 OFFCURVE",
"492 338 OFFCURVE",
"492 344 CURVE SMOOTH",
"492 357 LINE",
"488 522 OFFCURVE",
"450 695 OFFCURVE",
"303 701 CURVE"
);
},
{
closed = 1;
nodes = (
"230 701 LINE",
"72 696 OFFCURVE",
"35 522 OFFCURVE",
"30 357 CURVE SMOOTH",
"30 353 OFFCURVE",
"30 348 OFFCURVE",
"30 344 CURVE SMOOTH",
"30 329 LINE SMOOTH",
"35 167 OFFCURVE",
"72 -6 OFFCURVE",
"230 -11 CURVE",
"230 78 LINE",
"203 78 LINE",
"203 612 LINE",
"230 612 LINE"
);
}
);
width = 522;
},
{
anchors = (
{
name = bottom;
position = "{252, 0}";
},
{
name = center;
position = "{267, 375}";
},
{
name = ogonek;
position = "{467, 15}";
},
{
name = top;
position = "{252, 645}";
},
{
name = topleft;
position = "{45, 645}";
},
{
name = topright;
position = "{488, 645}";
}
);
components = (
{
name = O;
}
);
layerId = "BB1D9E28-2A49-4EEB-AB77-8ACE100BF2E3";
paths = (
{
closed = 1;
nodes = (
"236 -15 LINE",
"344.504 -176.233 LINE",
"491.619 -91.642 LINE",
"382.52 6.447 LINE"
);
}
);
width = 537;
},
{
anchors = (
{
name = bottom;
position = "{263, 0}";
},
{
name = center;
position = "{268, 375}";
},
{
name = ogonek;
position = "{467, 15}";
},
{
name = top;
position = "{263, 645}";
},
{
name = topleft;
position = "{46, 645}";
},
{
name = topright;
position = "{488, 645}";
}
);
layerId = "C78A6D26-59D2-48D5-9C7D-482EE6030F02";
paths = (
{
closed = 1;
nodes = (
"239 26 LINE",
"277 -62 OFFCURVE",
"317 -113 OFFCURVE",
"350 -161 CURVE",
"359 -162 OFFCURVE",
"373 -162 OFFCURVE",
"385 -162 CURVE",
"437 -162 OFFCURVE",
"464 -125 OFFCURVE",
"485 -92 CURVE",
"461 -66 OFFCURVE",
"413 -6 OFFCURVE",
"367 53 CURVE",
"362 63 OFFCURVE",
"356 72 OFFCURVE",
"352 83 CURVE"
);
},
{
closed = 1;
nodes = (
"251 696 LINE",
"79 684 OFFCURVE",
"31 500 OFFCURVE",
"31 329 CURVE SMOOTH",
"31 165 OFFCURVE",
"85 0 OFFCURVE",
"227 -8 CURVE",
"283 -8 LINE",
"446 -3 OFFCURVE",
"503 182 OFFCURVE",
"503 341 CURVE SMOOTH",
"503 557 OFFCURVE",
"431 696 OFFCURVE",
"284 696 CURVE"
);
},
{
closed = 1;
nodes = (
"323 597 OFFCURVE",
"346 530 OFFCURVE",
"346 338 CURVE SMOOTH",
"346 227 OFFCURVE",
"328 119 OFFCURVE",
"311 81 CURVE",
"244 81 LINE",
"211 92 OFFCURVE",
"191 185 OFFCURVE",
"191 329 CURVE SMOOTH",
"191 471 OFFCURVE",
"203 576 OFFCURVE",
"227 608 CURVE",
"299 608 LINE"
);
}
);
width = 534;
}
);
leftKerningGroup = O;
leftMetricsKey = O;
rightKerningGroup = O;
rightMetricsKey = O;
unicode = 0051;
},
{
color = 3;
glyphname = R;
lastChange = "2025-07-23 15:51:31 +0000";
layers = (
{
anchors = (
{
name = bottom;
position = "{264, 0}";
},
{
name = top;
position = "{254, 645}";
}
);
background = {
components = (
{
name = P;
transform = "{1, 0, 0, 1, 1, 0}";
}
);
};
layerId = "F5421C71-FF83-445B-9C53-783D261A57C9";
paths = (
{
closed = 1;
nodes = (
"58 696 LINE",
"58 0 LINE",
"203 0 LINE",
"203 263 LINE",
"258 263 LINE SMOOTH",
"405 269 OFFCURVE",
"456 384 OFFCURVE",
"456 493 CURVE SMOOTH",
"456 609 OFFCURVE",
"417 696 OFFCURVE",
"285 696 CURVE SMOOTH"
);
},
{
closed = 1;
nodes = (
"203 620 LINE",
"301 620 LINE",
"305 586 OFFCURVE",
"306 516 OFFCURVE",
"306 480 CURVE SMOOTH",
"306 444 OFFCURVE",
"305 374 OFFCURVE",
"301 341 CURVE",
"203 341 LINE"
);
},
{
closed = 1;
nodes = (
"341 0 LINE",
"495 0 LINE",
"359 332 LINE",
"234 294 LINE"
);
}
);
width = 515;
},
{
anchors = (
{
name = bottom;
position = "{258, 0}";
},
{
name = top;
position = "{258, 645}";
}
);
layerId = "20F347C1-683B-45AE-B240-2F1F38013DFA";
paths = (
{
closed = 1;
nodes = (
"297 267 LINE",
"408 288 OFFCURVE",
"446 383 OFFCURVE",
"446 479 CURVE SMOOTH",
"446 597 OFFCURVE",
"410 696 OFFCURVE",
"297 696 CURVE"
);
},
{
closed = 1;
nodes = (
"335 0 LINE",
"489 0 LINE",
"353 332 LINE",
"233 297 LINE"
);
},
{
closed = 1;
nodes = (
"57 0 LINE",
"203 0 LINE",
"201 696 LINE",
"57 696 LINE"
);
}
);
width = 500;
},
{
anchors = (
{
name = bottom;
position = "{258, 2}";
},
{
name = top;
position = "{258, 645}";
}
);
layerId = "BB1D9E28-2A49-4EEB-AB77-8ACE100BF2E3";
paths = (
{
closed = 1;
nodes = (
"512 0 LINE",
"412 240 LINE",
"397 276 OFFCURVE",
"377 315 OFFCURVE",
"360 342 CURVE",
"336 281 LINE",
"438 324 OFFCURVE",
"472 384 OFFCURVE",
"472 479 CURVE SMOOTH",
"472 621 OFFCURVE",
"413 696 OFFCURVE",
"294 696 CURVE SMOOTH",
"35 696 LINE",
"35 0 LINE",
"225 0 LINE",
"225 264 LINE",
"315 0 LINE"
);
},
{
closed = 1;
nodes = (
"225 612 LINE",
"283 612 LINE",
"283 345 LINE",
"225 345 LINE"
);
}
);
width = 500;
},
{
anchors = (
{
name = bottom;
position = "{259, 0}";
},
{
name = top;
position = "{259, 645}";
}
);
layerId = "C78A6D26-59D2-48D5-9C7D-482EE6030F02";
paths = (
{
closed = 1;
nodes = (
"435 343 OFFCURVE",
"459 416 OFFCURVE",
"459 494 CURVE SMOOTH",
"459 639 OFFCURVE",
"405 704 OFFCURVE",
"219 704 CURVE SMOOTH",
"169 704 OFFCURVE",
"102 700 OFFCURVE",
"58 696 CURVE",
"58 639 OFFCURVE",
"58 607 OFFCURVE",
"58 587 CURVE SMOOTH",
"59 409 LINE",
"56 71 LINE",
"58 0 LINE",
"80 -5 OFFCURVE",
"113 -6 OFFCURVE",
"152 -6 CURVE",
"203 0 LINE",
"202 273 LINE",
"253 273 LINE",
"281 178 OFFCURVE",
"303 97 OFFCURVE",
"345 -9 CURVE",
"354 -11 OFFCURVE",
"371 -11 OFFCURVE",
"383 -11 CURVE SMOOTH",
"438 -11 OFFCURVE",
"469 1 OFFCURVE",
"495 29 CURVE",
"483 51 OFFCURVE",
"406 216 OFFCURVE",
"369 303 CURVE"
);
},
{
closed = 1;
nodes = (
"202 620 LINE",
"303 620 LINE",
"306 531 OFFCURVE",
"306 444 OFFCURVE",
"303 355 CURVE",
"202 355 LINE"
);
}
);
width = 507;
},
{
anchors = (
{
name = bottom;
position = "{260, 0}";
},
{
name = top;
position = "{260, 645}";
}
);
associatedMasterId = "C78A6D26-59D2-48D5-9C7D-482EE6030F02";
background = {
paths = (
{
closed = 1;
nodes = (
"203 617 LINE",
"204 618 OFFCURVE",
"204 618 OFFCURVE",
"206 620 CURVE",
"303 620 LINE",
"306 609 OFFCURVE",
"306 504 OFFCURVE",
"306 473 CURVE SMOOTH",
"306 432 OFFCURVE",
"303 380 OFFCURVE",
"303 341 CURVE",
"203 341 LINE",
"203 263 LINE",
"258 263 LINE",
"408 267 OFFCURVE",
"456 372 OFFCURVE",
"456 479 CURVE SMOOTH",
"456 597 OFFCURVE",
"419 696 OFFCURVE",
"300 696 CURVE",
"230 696 LINE",
"222 696 OFFCURVE",
"180 696 OFFCURVE",
"134 696 CURVE"
);
},
{
closed = 1;
nodes = (
"341 0 LINE",
"495 0 LINE",
"359 332 LINE",
"239 297 LINE"
);
},
{
closed = 1;
nodes = (
"63 0 LINE",
"207 0 LINE",
"207 696 LINE",
"63 696 LINE"
);
}
);
};
layerId = "55BAA2C6-71B9-4CBB-838A-325C5A47F318";
name = "Oct 30 16, 13:05";
paths = (
{
closed = 1;
nodes = (
"57 657 LINE",
"198 617 LINE",
"200 618 OFFCURVE",
"200 618 OFFCURVE",
"201 620 CURVE",
"307 620 LINE",
"308 489 OFFCURVE",
"307 417 OFFCURVE",
"306 345 CURVE",
"190 345 LINE",
"198 263 LINE",
"261 263 LINE",
"412 267 OFFCURVE",
"460 384 OFFCURVE",
"460 476 CURVE SMOOTH",
"460 575 OFFCURVE",
"429 695 OFFCURVE",
"290 695 CURVE",
"225 695 LINE",
"218 695 OFFCURVE",
"176 695 OFFCURVE",
"129 695 CURVE SMOOTH",
"123 695 OFFCURVE",
"78 693 OFFCURVE",
"56 683 CURVE"
);
},
{
closed = 1;
nodes = (
"277 189 OFFCURVE",
"299 105 OFFCURVE",
"346 -9 CURVE",
"355 -11 OFFCURVE",
"372 -11 OFFCURVE",
"384 -11 CURVE",
"439 -11 OFFCURVE",
"470 1 OFFCURVE",
"496 29 CURVE",
"480 57 OFFCURVE",
"344 338 OFFCURVE",
"352 345 CURVE",
"243 297 LINE"
);
},
{
closed = 1;
nodes = (
"57 668 LINE",
"59 638 OFFCURVE",
"59 608 OFFCURVE",
"59 587 CURVE",
"60 390 LINE",
"203 381 LINE",
"203 653 LINE SMOOTH",
"203 666 OFFCURVE",
"197 674 OFFCURVE",
"188 680 CURVE",
"168 686 OFFCURVE",
"155 686 OFFCURVE",
"134 686 CURVE",
"102 686 OFFCURVE",
"80 681 OFFCURVE",
"66 677 CURVE"
);
},
{
closed = 1;
nodes = (
"57 71 LINE",
"59 0 LINE",
"81 -5 OFFCURVE",
"114 -6 OFFCURVE",
"153 -6 CURVE",
"204 0 LINE",
"203 381 LINE",
"60 420 LINE"
);
}
);
width = 508;
},
{
anchors = (
{
name = bottom;
position = "{259, 0}";
},
{
name = top;
position = "{259, 645}";
}
);
associatedMasterId = "C78A6D26-59D2-48D5-9C7D-482EE6030F02";
background = {
paths = (
{
closed = 1;
nodes = (
"395 372 OFFCURVE",
"443 411 OFFCURVE",
"443 503 CURVE SMOOTH",
"443 711 OFFCURVE",
"355 716 OFFCURVE",
"61 696 CURVE",
"61 0 LINE",
"297 -13 OFFCURVE",
"457 -32 OFFCURVE",
"457 180 CURVE SMOOTH",
"457 288 OFFCURVE",
"432 346 OFFCURVE",
"366 368 CURVE"
);
},
{
closed = 1;
nodes = (
"296 601 OFFCURVE",
"303 402 OFFCURVE",
"289 396 CURVE",
"254 394 OFFCURVE",
"225 394 OFFCURVE",
"204 394 CURVE",
"202 620 LINE",
"229 621 OFFCURVE",
"261 621 OFFCURVE",
"292 621 CURVE"
);
},
{
closed = 1;
nodes = (
"203 75 LINE",
"204 317 LINE",
"303 317 LINE",
"307 286 OFFCURVE",
"307 100 OFFCURVE",
"301 75 CURVE"
);
}
);
};
layerId = "3AE8DB6C-00FD-4C99-A98B-FC59EC6EA5FB";
name = "Oct 30 16, 13:46";
paths = (
{
closed = 1;
nodes = (
"435 335 OFFCURVE",
"459 412 OFFCURVE",
"459 493 CURVE SMOOTH",
"459 639 OFFCURVE",
"405 704 OFFCURVE",
"219 704 CURVE SMOOTH",
"169 704 OFFCURVE",
"102 700 OFFCURVE",
"58 696 CURVE",
"58 639 OFFCURVE",
"58 607 OFFCURVE",
"58 587 CURVE SMOOTH",
"59 409 LINE",
"56 71 LINE",
"58 0 LINE",
"80 -5 OFFCURVE",
"113 -6 OFFCURVE",
"152 -6 CURVE",
"203 0 LINE",
"202 263 LINE",
"253 263 LINE",
"281 171 OFFCURVE",
"303 93 OFFCURVE",
"345 -9 CURVE",
"354 -11 OFFCURVE",
"371 -11 OFFCURVE",
"383 -11 CURVE SMOOTH",
"438 -11 OFFCURVE",
"469 1 OFFCURVE",
"495 29 CURVE",
"483 50 OFFCURVE",
"406 209 OFFCURVE",
"369 293 CURVE"
);
},
{
closed = 1;
nodes = (
"202 620 LINE",
"303 620 LINE",
"306 528 OFFCURVE",
"306 437 OFFCURVE",
"303 345 CURVE",
"202 345 LINE"
);
}
);
width = 507;
}
);
leftKerningGroup = H;
leftMetricsKey = H;
rightKerningGroup = R;
unicode = 0052;
},
{
glyphname = Racute;
lastChange = "2025-07-23 11:50:05 +0000";
layers = (
{
components = (
{
name = R;
},
{
name = acutecomb;
transform = "{1, 0, 0, 1, 192, 127}";
}
);
layerId = "F5421C71-FF83-445B-9C53-783D261A57C9";
width = 515;
},
{
anchors = (
{
name = bottom;
position = "{258, 0}";
},
{
name = top;
position = "{258, 645}";
}
);
layerId = "20F347C1-683B-45AE-B240-2F1F38013DFA";
paths = (
{
closed = 1;
nodes = (
"297 267 LINE",
"411 288 OFFCURVE",
"450 383 OFFCURVE",
"450 479 CURVE SMOOTH",
"450 597 OFFCURVE",
"413 696 OFFCURVE",
"297 696 CURVE"
);
},
{
closed = 1;
nodes = (
"335 0 LINE",
"489 0 LINE",
"353 332 LINE",
"233 297 LINE"
);
},
{
closed = 1;
nodes = (
"57 0 LINE",
"203 0 LINE",
"201 696 LINE",
"57 696 LINE"
);
},
{
closed = 1;
nodes = (
"306 740 LINE",
"353 911 LINE",
"230 911 LINE",
"225 833 LINE",
"218 740 LINE"
);
}
);
width = 500;
},
{
anchors = (
{
name = bottom;
position = "{258, 60}";
},
{
name = top;
position = "{258, 645}";
}
);
components = (
{
name = R;
},
{
alignment = -1;
name = acutecomb;
transform = "{1, 0, 0, 1, 203, 127}";
}
);
layerId = "BB1D9E28-2A49-4EEB-AB77-8ACE100BF2E3";
width = 500;
},
{
anchors = (
{
name = bottom;
position = "{245, 0}";
},
{
name = top;
position = "{245, 645}";
}
);
components = (
{
name = R;
},
{
name = acutecomb;
transform = "{1, 0, 0, 1, 191, 127}";
}
);
layerId = "C78A6D26-59D2-48D5-9C7D-482EE6030F02";
width = 507;
}
);
leftKerningGroup = H;
rightKerningGroup = R;
unicode = 0154;
},
{
glyphname = Rcaron;
lastChange = "2025-07-23 11:50:03 +0000";
layers = (
{
anchors = (
{
name = bottom;
position = "{258, 60}";
},
{
name = top;
position = "{258, 645}";
}
);
components = (
{
name = R;
},
{
name = caroncomb;
transform = "{1, 0, 0, 1, 123, 127}";
}
);
layerId = "F5421C71-FF83-445B-9C53-783D261A57C9";
width = 515;
},
{
anchors = (
{
name = bottom;
position = "{258, 0}";
},
{
name = top;
position = "{258, 645}";
}
);
layerId = "20F347C1-683B-45AE-B240-2F1F38013DFA";
paths = (
{
closed = 1;
nodes = (
"297 267 LINE",
"411 288 OFFCURVE",
"450 383 OFFCURVE",
"450 479 CURVE SMOOTH",
"450 597 OFFCURVE",
"413 696 OFFCURVE",
"297 696 CURVE"
);
},
{
closed = 1;
nodes = (
"335 0 LINE",
"489 0 LINE",
"353 332 LINE",
"233 297 LINE"
);
},
{
closed = 1;
nodes = (
"57 0 LINE",
"203 0 LINE",
"201 696 LINE",
"57 696 LINE"
);
},
{
closed = 1;
nodes = (
"276 737 LINE",
"335 737 LINE",
"362 809 LINE",
"399 914 LINE",
"311 914 LINE",
"276 824 LINE"
);
},
{
closed = 1;
nodes = (
"240 825 LINE",
"206 914 LINE",
"117 914 LINE",
"153 809 LINE",
"180 737 LINE",
"240 737 LINE"
);
}
);
width = 500;
},
{
anchors = (
{
name = bottom;
position = "{258, 60}";
},
{
name = top;
position = "{258, 645}";
}
);
components = (
{
name = R;
},
{
name = caroncomb;
transform = "{1, 0, 0, 1, 127, 127}";
}
);
layerId = "BB1D9E28-2A49-4EEB-AB77-8ACE100BF2E3";
width = 500;
},
{
anchors = (
{
name = bottom;
position = "{245, 0}";
},
{
name = top;
position = "{245, 645}";
}
);
components = (
{
name = R;
},
{
name = caroncomb;
transform = "{1, 0, 0, 1, 128, 127}";
}
);
layerId = "C78A6D26-59D2-48D5-9C7D-482EE6030F02";
width = 507;
}
);
leftKerningGroup = H;
rightKerningGroup = R;
unicode = 0158;
},
{
glyphname = Rcommaaccent;
lastChange = "2025-07-22 10:47:25 +0000";
layers = (
{
anchors = (
{
name = bottom;
position = "{258, -45}";
},
{
name = top;
position = "{258, 645}";
}
);
components = (
{
name = R;
},
{
name = commaaccentcomb;
transform = "{1, 0, 0, 1, 171, 0}";
}
);
layerId = "F5421C71-FF83-445B-9C53-783D261A57C9";
width = 515;
},
{
anchors = (
{
name = bottom;
position = "{258, -105}";
},
{
name = top;
position = "{258, 645}";
}
);
layerId = "20F347C1-683B-45AE-B240-2F1F38013DFA";
paths = (
{
closed = 1;
nodes = (
"297 267 LINE",
"411 288 OFFCURVE",
"450 383 OFFCURVE",
"450 479 CURVE SMOOTH",
"450 597 OFFCURVE",
"413 696 OFFCURVE",
"297 696 CURVE"
);
},
{
closed = 1;
nodes = (
"335 0 LINE",
"489 0 LINE",
"353 332 LINE",
"233 297 LINE"
);
},
{
closed = 1;
nodes = (
"57 0 LINE",
"203 0 LINE",
"201 696 LINE",
"57 696 LINE"
);
},
{
closed = 1;
nodes = (
"196 -206 LINE",
"174 -312 LINE",
"249 -319 LINE",
"306 -134 LINE",
"208 -125 LINE"
);
}
);
width = 500;
},
{
anchors = (
{
name = bottom;
position = "{258, -45}";
},
{
name = top;
position = "{258, 645}";
}
);
components = (
{
name = R;
},
{
name = commaaccentcomb;
transform = "{1, 0, 0, 1, 165, -58}";
}
);
layerId = "BB1D9E28-2A49-4EEB-AB77-8ACE100BF2E3";
width = 500;
},
{
anchors = (
{
name = bottom;
position = "{245, -105}";
},
{
name = top;
position = "{245, 645}";
}
);
components = (
{
name = R;
},
{
name = commaaccentcomb;
transform = "{1, 0, 0, 1, 166, 0}";
}
);
layerId = "C78A6D26-59D2-48D5-9C7D-482EE6030F02";
width = 507;
}
);
leftKerningGroup = H;
rightKerningGroup = R;
unicode = 0156;
},
{
color = 3;
glyphname = S;
lastChange = "2025-07-23 15:57:41 +0000";
layers = (
{
anchors = (
{
name = bottom;
position = "{215, 0}";
},
{
name = top;
position = "{219, 645}";
}
);
layerId = "F5421C71-FF83-445B-9C53-783D261A57C9";
paths = (
{
closed = 1;
nodes = (
"232 702 LINE SMOOTH",
"120 702 OFFCURVE",
"37 636 OFFCURVE",
"37 530 CURVE SMOOTH",
"37 462 OFFCURVE",
"61 402 OFFCURVE",
"133 320 CURVE SMOOTH",
"189 256 OFFCURVE",
"257 204 OFFCURVE",
"257 132 CURVE SMOOTH",
"257 117 OFFCURVE",
"254 92 OFFCURVE",
"248 69 CURVE",
"173 69 LINE",
"39 197 LINE",
"25 31 LINE",
"74 7 OFFCURVE",
"133 -9 OFFCURVE",
"188 -9 CURVE SMOOTH",
"201 -9 LINE SMOOTH",
"339 -9 OFFCURVE",
"398 90 OFFCURVE",
"398 185 CURVE SMOOTH",
"398 293 OFFCURVE",
"325 359 OFFCURVE",
"272 413 CURVE SMOOTH",
"209 478 OFFCURVE",
"177 517 OFFCURVE",
"177 578 CURVE SMOOTH",
"177 596 OFFCURVE",
"180 617 OFFCURVE",
"182 621 CURVE",
"246 621 LINE",
"369 492 LINE",
"379 668 LINE",
"329 691 OFFCURVE",
"287 702 OFFCURVE",
"236 702 CURVE SMOOTH"
);
}
);
width = 418;
},
{
anchors = (
{
name = bottom;
position = "{203, 0}";
},
{
name = top;
position = "{207, 645}";
}
);
layerId = "20F347C1-683B-45AE-B240-2F1F38013DFA";
paths = (
{
closed = 1;
nodes = (
"228 623 LINE",
"230 623 LINE",
"348 486 LINE",
"363 665 LINE",
"314 696 OFFCURVE",
"276 701 OFFCURVE",
"228 701 CURVE"
);
},
{
closed = 1;
nodes = (
"158 78 LINE",
"27 190 LINE",
"12 17 LINE",
"63 -1 OFFCURVE",
"98 -6 OFFCURVE",
"158 -6 CURVE"
);
},
{
closed = 1;
nodes = (
"170 701 LINE",
"74 701 OFFCURVE",
"21 619 OFFCURVE",
"21 524 CURVE SMOOTH",
"21 471 OFFCURVE",
"41 402 OFFCURVE",
"120 321 CURVE SMOOTH",
"171 267 OFFCURVE",
"245 203 OFFCURVE",
"245 135 CURVE SMOOTH",
"245 111 OFFCURVE",
"241 96 OFFCURVE",
"234 75 CURVE",
"234 -6 LINE",
"330 -6 OFFCURVE",
"387 68 OFFCURVE",
"387 176 CURVE SMOOTH",
"387 260 OFFCURVE",
"340 339 OFFCURVE",
"260 413 CURVE SMOOTH",
"184 482 OFFCURVE",
"165 531 OFFCURVE",
"165 577 CURVE SMOOTH",
"165 598 OFFCURVE",
"168 619 OFFCURVE",
"170 623 CURVE"
);
}
);
width = 410;
},
{
anchors = (
{
name = bottom;
position = "{214, 0}";
},
{
name = top;
position = "{218, 645}";
}
);
layerId = "BB1D9E28-2A49-4EEB-AB77-8ACE100BF2E3";
paths = (
{
closed = 1;
nodes = (
"237 705 LINE SMOOTH",
"109 705 OFFCURVE",
"22 639 OFFCURVE",
"22 518 CURVE SMOOTH",
"22 438 OFFCURVE",
"60 370 OFFCURVE",
"131 284 CURVE SMOOTH",
"179 226 OFFCURVE",
"229 175 OFFCURVE",
"229 114 CURVE",
"229 76 LINE",
"193 76 LINE",
"28 225 LINE",
"20 30 LINE",
"71 1 OFFCURVE",
"129 -15 OFFCURVE",
"185 -15 CURVE SMOOTH",
"196 -15 LINE SMOOTH",
"342 -15 OFFCURVE",
"415 73 OFFCURVE",
"415 183 CURVE SMOOTH",
"415 275 OFFCURVE",
"366 324 OFFCURVE",
"295 408 CURVE SMOOTH",
"223 493 OFFCURVE",
"198 532 OFFCURVE",
"198 579 CURVE",
"198 614 LINE",
"224 614 LINE",
"386 460 LINE",
"394 669 LINE",
"339 694 OFFCURVE",
"295 705 OFFCURVE",
"245 705 CURVE SMOOTH"
);
}
);
width = 435;
},
{
anchors = (
{
name = bottom;
position = "{223, 0}";
},
{
name = top;
position = "{227, 645}";
}
);
layerId = "C78A6D26-59D2-48D5-9C7D-482EE6030F02";
paths = (
{
closed = 1;
nodes = (
"203 704 LINE",
"97 698 OFFCURVE",
"37 624 OFFCURVE",
"37 528 CURVE SMOOTH",
"37 471 OFFCURVE",
"70 386 OFFCURVE",
"149 315 CURVE SMOOTH",
"205 267 OFFCURVE",
"265 207 OFFCURVE",
"265 140 CURVE SMOOTH",
"265 119 OFFCURVE",
"260 96 OFFCURVE",
"251 74 CURVE",
"181 74 LINE",
"164 93 OFFCURVE",
"124 138 OFFCURVE",
"73 167 CURVE",
"52 128 OFFCURVE",
"32 74 OFFCURVE",
"26 20 CURVE",
"79 0 OFFCURVE",
"121 -9 OFFCURVE",
"184 -9 CURVE SMOOTH",
"233 -9 LINE",
"343 -5 OFFCURVE",
"407 77 OFFCURVE",
"407 174 CURVE SMOOTH",
"407 255 OFFCURVE",
"367 338 OFFCURVE",
"287 401 CURVE SMOOTH",
"200 470 OFFCURVE",
"181 527 OFFCURVE",
"181 566 CURVE SMOOTH",
"181 596 OFFCURVE",
"187 617 OFFCURVE",
"190 621 CURVE",
"250 621 LINE",
"260 588 OFFCURVE",
"308 557 OFFCURVE",
"329 552 CURVE",
"364 567 OFFCURVE",
"386 599 OFFCURVE",
"392 653 CURVE",
"337 693 OFFCURVE",
"292 704 OFFCURVE",
"238 704 CURVE SMOOTH"
);
}
);
width = 418;
}
);
leftKerningGroup = S;
rightKerningGroup = S;
unicode = 0053;
},
{
glyphname = Germandbls;
lastChange = "2025-07-23 12:01:16 +0000";
layers = (
{
anchors = (
{
name = bottom;
position = "{146, 0}";
},
{
name = top;
position = "{146, 518}";
}
);
layerId = "F5421C71-FF83-445B-9C53-783D261A57C9";
paths = (
{
closed = 1;
nodes = (
"449 450 OFFCURVE",
"432 471 OFFCURVE",
"460 544 CURVE SMOOTH",
"512 677 LINE",
"452 696 OFFCURVE",
"377 705 OFFCURVE",
"318 705 CURVE SMOOTH",
"128 705 OFFCURVE",
"58 647 OFFCURVE",
"58 533 CURVE",
"58 0 LINE",
"203 0 LINE",
"203 623 LINE",
"417 623 LINE",
"377 572 LINE SMOOTH",
"337 521 OFFCURVE",
"305 472 OFFCURVE",
"305 426 CURVE SMOOTH",
"305 384 OFFCURVE",
"320 350 OFFCURVE",
"368 291 CURVE SMOOTH",
"409 240 OFFCURVE",
"451 197 OFFCURVE",
"451 135 CURVE",
"451 72 LINE",
"404 72 LINE",
"295 197 LINE",
"280 18 LINE",
"326 -2 OFFCURVE",
"368 -11 OFFCURVE",
"417 -11 CURVE SMOOTH",
"542 -11 OFFCURVE",
"602 50 OFFCURVE",
"602 173 CURVE SMOOTH",
"602 254 OFFCURVE",
"557 313 OFFCURVE",
"503 381 CURVE SMOOTH"
);
}
);
width = 622;
},
{
guideLines = (
{
angle = 242.5713;
position = "{348, 681}";
}
);
layerId = "20F347C1-683B-45AE-B240-2F1F38013DFA";
paths = (
{
closed = 1;
nodes = (
"329 539 OFFCURVE",
"315 513 OFFCURVE",
"315 450 CURVE SMOOTH",
"315 405 OFFCURVE",
"327 348 OFFCURVE",
"378 291 CURVE SMOOTH",
"419 241 OFFCURVE",
"461 201 OFFCURVE",
"461 139 CURVE",
"461 76 LINE",
"414 76 LINE",
"305 201 LINE",
"290 22 LINE",
"342 2 OFFCURVE",
"378 -7 OFFCURVE",
"441 -7 CURVE SMOOTH",
"458 -7 LINE",
"561 -6 OFFCURVE",
"612 73 OFFCURVE",
"612 177 CURVE SMOOTH",
"612 252 OFFCURVE",
"569 322 OFFCURVE",
"515 386 CURVE SMOOTH",
"468 441 OFFCURVE",
"456 485 OFFCURVE",
"465 513 CURVE",
"522 695 LINE",
"496 712 OFFCURVE",
"458 720 OFFCURVE",
"418 720 CURVE"
);
},
{
closed = 1;
nodes = (
"365 720 LINE",
"350 720 OFFCURVE",
"334 720 OFFCURVE",
"318 720 CURVE SMOOTH",
"128 722 OFFCURVE",
"57 662 OFFCURVE",
"57 551 CURVE",
"57 0 LINE",
"203 0 LINE",
"203 637 LINE",
"321 637 LINE"
);
}
);
width = 635;
},
{
anchors = (
{
name = bottom;
position = "{156, 0}";
},
{
name = top;
position = "{156, 518}";
}
);
layerId = "BB1D9E28-2A49-4EEB-AB77-8ACE100BF2E3";
paths = (
{
closed = 1;
nodes = (
"503 431 OFFCURVE",
"489 484 OFFCURVE",
"496 512 CURVE SMOOTH",
"543.011 694.832 LINE",
"477.813 718.941 OFFCURVE",
"427.785 726.79 OFFCURVE",
"318.444 729 CURVE SMOOTH",
"126.868 729 OFFCURVE",
"35 672.045 OFFCURVE",
"35 552 CURVE SMOOTH",
"35 -4 LINE",
"225 -4 LINE",
"225 638 LINE",
"375 638 LINE",
"377 638 LINE",
"357.025 643.676 LINE",
"324 559 OFFCURVE",
"303 504 OFFCURVE",
"303 450 CURVE SMOOTH",
"303 390 OFFCURVE",
"320 342 OFFCURVE",
"360.854 288.494 CURVE",
"396.616 244.009 OFFCURVE",
"439 200.616 OFFCURVE",
"439 135 CURVE SMOOTH",
"439 76 LINE",
"429.386 76 LINE",
"302 230 LINE",
"283 10 LINE",
"341 -9 OFFCURVE",
"382 -15 OFFCURVE",
"441 -15 CURVE SMOOTH",
"566 -15 OFFCURVE",
"634 48 OFFCURVE",
"634 173 CURVE SMOOTH",
"634 237.616 OFFCURVE",
"602.628 303.448 OFFCURVE",
"531.922 388.556 CURVE SMOOTH"
);
},
{
closed = 1;
nodes = (
"168.323 660.211 LINE",
"169.323 658.211 LINE",
"189 660 LINE",
"188 660 OFFCURVE",
"188 660 OFFCURVE",
"188 662 CURVE"
);
}
);
width = 640;
},
{
layerId = "C78A6D26-59D2-48D5-9C7D-482EE6030F02";
paths = (
{
closed = 1;
nodes = (
"457 441 OFFCURVE",
"445 485 OFFCURVE",
"454 513 CURVE",
"475 572 OFFCURVE",
"495 631 OFFCURVE",
"513 690 CURVE",
"451 716 OFFCURVE",
"407 724 OFFCURVE",
"317 724 CURVE SMOOTH",
"127 724 OFFCURVE",
"56 669 OFFCURVE",
"56 562 CURVE",
"56 0 LINE",
"101 -7 OFFCURVE",
"149 -7 OFFCURVE",
"202 0 CURVE",
"202 642 LINE",
"376 642 LINE",
"330 564 OFFCURVE",
"304 507 OFFCURVE",
"304 450 CURVE SMOOTH",
"304 405 OFFCURVE",
"316 348 OFFCURVE",
"367 291 CURVE SMOOTH",
"408 240 OFFCURVE",
"450 197 OFFCURVE",
"450 135 CURVE",
"450 72 LINE",
"413 72 LINE",
"387 106 OFFCURVE",
"347 136 OFFCURVE",
"315 166 CURVE",
"279 111 OFFCURVE",
"264 64 OFFCURVE",
"268 19 CURVE",
"324 -2 OFFCURVE",
"363 -11 OFFCURVE",
"416 -11 CURVE SMOOTH",
"541 -11 OFFCURVE",
"601 50 OFFCURVE",
"601 173 CURVE SMOOTH",
"601 249 OFFCURVE",
"558 321 OFFCURVE",
"504 386 CURVE SMOOTH"
);
}
);
width = 612;
}
);
leftKerningGroup = H;
leftMetricsKey = I;
rightKerningGroup = S;
rightMetricsKey = S;
unicode = 1E9E;
},
{
color = 3;
glyphname = T;
lastChange = "2025-07-23 15:49:58 +0000";
layers = (
{
anchors = (
{
name = bottom;
position = "{244, 0}";
},
{
name = center;
position = "{244, 375}";
},
{
name = top;
position = "{244, 645}";
}
);
layerId = "F5421C71-FF83-445B-9C53-783D261A57C9";
paths = (
{
closed = 1;
nodes = (
"27 696 LINE",
"52 470 LINE",
"126 626 LINE",
"173 626 LINE",
"173 0 LINE",
"318 0 LINE",
"318 626 LINE",
"365 626 LINE",
"446 471 LINE",
"470 696 LINE"
);
}
);
width = 497;
},
{
anchors = (
{
name = bottom;
position = "{269, 0}";
},
{
name = center;
position = "{269, 375}";
},
{
name = top;
position = "{269, 645}";
}
);
layerId = "20F347C1-683B-45AE-B240-2F1F38013DFA";
paths = (
{
closed = 1;
nodes = (
"416 626 LINE",
"501 481 LINE",
"521 696 LINE",
"416 696 LINE"
);
},
{
closed = 1;
nodes = (
"199 696 LINE",
"199 0 LINE",
"340 0 LINE",
"340 696 LINE"
);
},
{
closed = 1;
nodes = (
"15 696 LINE",
"35 481 LINE",
"120 626 LINE",
"120 696 LINE"
);
}
);
width = 536;
},
{
anchors = (
{
name = bottom;
position = "{259, 0}";
},
{
name = center;
position = "{259, 375}";
},
{
name = top;
position = "{259, 645}";
}
);
layerId = "BB1D9E28-2A49-4EEB-AB77-8ACE100BF2E3";
paths = (
{
closed = 1;
nodes = (
"16 696 LINE",
"43 390 LINE",
"158 618 LINE",
"163 618 LINE",
"163 0 LINE",
"353 0 LINE",
"353 618 LINE",
"358 618 LINE",
"473 397 LINE",
"498 696 LINE"
);
}
);
width = 514;
},
{
anchors = (
{
name = bottom;
position = "{230, 0}";
},
{
name = center;
position = "{230, 375}";
},
{
name = top;
position = "{230, 645}";
}
);
layerId = "C78A6D26-59D2-48D5-9C7D-482EE6030F02";
paths = (
{
closed = 1;
nodes = (
"158 304 OFFCURVE",
"156 187 OFFCURVE",
"156 71 CURVE SMOOTH",
"156 47 OFFCURVE",
"156 24 OFFCURVE",
"156 0 CURVE",
"182 -5 OFFCURVE",
"228 -6 OFFCURVE",
"248 -6 CURVE SMOOTH",
"278 -6 OFFCURVE",
"294 -3 OFFCURVE",
"303 0 CURVE",
"300 126 LINE",
"300 381 LINE SMOOTH",
"300 450 OFFCURVE",
"297 520 OFFCURVE",
"299 589 CURVE",
"346 589 OFFCURVE",
"398 589 OFFCURVE",
"444 591 CURVE",
"453 615 OFFCURVE",
"458 654 OFFCURVE",
"450 687 CURVE",
"401 693 OFFCURVE",
"302 690 OFFCURVE",
"233 690 CURVE SMOOTH",
"157 690 OFFCURVE",
"158 690 OFFCURVE",
"85 690 CURVE SMOOTH",
"69 690 OFFCURVE",
"23 689 OFFCURVE",
"9 687 CURVE",
"3 654 OFFCURVE",
"5 621 OFFCURVE",
"11 588 CURVE",
"57 585 OFFCURVE",
"106 587 OFFCURVE",
"159 587 CURVE",
"159 531 OFFCURVE",
"158 476 OFFCURVE",
"158 420 CURVE"
);
}
);
width = 462;
}
);
leftKerningGroup = T;
rightKerningGroup = T;
unicode = 0054;
},
{
glyphname = Tbar;
lastChange = "2025-07-23 13:46:43 +0000";
layers = (
{
background = {
anchors = (
{
name = bottom;
position = "{236, 0}";
},
{
name = center;
position = "{236, 375}";
},
{
name = top;
position = "{236, 645}";
}
);
paths = (
{
closed = 1;
nodes = (
"93 331 LINE",
"380 331 LINE",
"380 403 LINE",
"93 403 LINE"
);
},
{
closed = 1;
nodes = (
"17 696 LINE",
"52 470 LINE",
"116 626 LINE",
"164 626 LINE",
"164 0 LINE",
"310 0 LINE",
"310 626 LINE",
"350 626 LINE",
"421 471 LINE",
"455 696 LINE"
);
}
);
};
components = (
{
name = T;
},
{
name = strokeshortcomb;
transform = "{0.8318, 0, 0, 1.0642, 112, -297}";
}
);
layerId = "F5421C71-FF83-445B-9C53-783D261A57C9";
width = 497;
},
{
anchors = (
{
name = bottom;
position = "{269, 0}";
},
{
name = center;
position = "{269, 375}";
},
{
name = top;
position = "{269, 645}";
}
);
layerId = "20F347C1-683B-45AE-B240-2F1F38013DFA";
paths = (
{
closed = 1;
nodes = (
"416 626 LINE",
"501 501 LINE",
"521 696 LINE",
"416 696 LINE"
);
},
{
closed = 1;
nodes = (
"198 696 LINE",
"198 0 LINE",
"341 0 LINE",
"341 696 LINE"
);
},
{
closed = 1;
nodes = (
"15 696 LINE",
"35 501 LINE",
"120 626 LINE",
"120 696 LINE"
);
},
{
closed = 1;
nodes = (
"123 311 LINE",
"410 311 LINE",
"410 407 LINE",
"123 407 LINE"
);
}
);
width = 536;
},
{
anchors = (
{
name = bottom;
position = "{240, 0}";
},
{
name = center;
position = "{240, 375}";
},
{
name = top;
position = "{240, 645}";
}
);
components = (
{
name = T;
},
{
name = strokeshortcomb;
transform = "{1.1421, 0, 0, 1, 58, -332}";
}
);
layerId = "BB1D9E28-2A49-4EEB-AB77-8ACE100BF2E3";
width = 514;
},
{
anchors = (
{
name = bottom;
position = "{238, 0}";
},
{
name = center;
position = "{238, 375}";
},
{
name = top;
position = "{238, 645}";
}
);
components = (
{
name = T;
},
{
name = strokeshortcomb;
transform = "{1, 0, 0, 1, 71, -269}";
}
);
layerId = "C78A6D26-59D2-48D5-9C7D-482EE6030F02";
width = 462;
}
);
leftKerningGroup = T;
leftMetricsKey = T;
rightKerningGroup = T;
rightMetricsKey = T;
unicode = 0166;
},
{
glyphname = Tcaron;
lastChange = "2025-07-23 13:46:42 +0000";
layers = (
{
anchors = (
{
name = bottom;
position = "{236, 0}";
},
{
name = center;
position = "{236, 375}";
},
{
name = top;
position = "{236, 645}";
}
);
components = (
{
name = T;
},
{
name = caroncomb;
transform = "{1, 0, 0, 1, 113, 127}";
}
);
layerId = "F5421C71-FF83-445B-9C53-783D261A57C9";
width = 497;
},
{
anchors = (
{
name = bottom;
position = "{260, 0}";
},
{
name = center;
position = "{260, 375}";
},
{
name = top;
position = "{260, 645}";
}
);
layerId = "20F347C1-683B-45AE-B240-2F1F38013DFA";
paths = (
{
closed = 1;
nodes = (
"407 626 LINE",
"492 501 LINE",
"512 696 LINE",
"407 696 LINE"
);
},
{
closed = 1;
nodes = (
"189 696 LINE",
"186 0 LINE",
"332 0 LINE",
"332 696 LINE"
);
},
{
closed = 1;
nodes = (
"6 696 LINE",
"26 501 LINE",
"111 626 LINE",
"111 696 LINE"
);
},
{
closed = 1;
nodes = (
"278 737 LINE",
"336 737 LINE",
"363 809 LINE",
"401 914 LINE",
"312 914 LINE",
"278 824 LINE"
);
},
{
closed = 1;
nodes = (
"242 825 LINE",
"207 914 LINE",
"119 914 LINE",
"155 809 LINE",
"182 737 LINE",
"242 737 LINE"
);
}
);
width = 522;
},
{
anchors = (
{
name = bottom;
position = "{236, 0}";
},
{
name = center;
position = "{236, 375}";
},
{
name = top;
position = "{236, 645}";
}
);
components = (
{
name = T;
},
{
name = caroncomb;
transform = "{1, 0, 0, 1, 128, 127}";
}
);
layerId = "BB1D9E28-2A49-4EEB-AB77-8ACE100BF2E3";
width = 514;
},
{
anchors = (
{
name = bottom;
position = "{230, 0}";
},
{
name = center;
position = "{230, 375}";
},
{
name = top;
position = "{230, 645}";
}
);
components = (
{
name = T;
},
{
name = caroncomb;
transform = "{1, 0, 0, 1, 99, 127}";
}
);
layerId = "C78A6D26-59D2-48D5-9C7D-482EE6030F02";
width = 462;
}
);
leftKerningGroup = T;
rightKerningGroup = T;
unicode = 0164;
},
{
glyphname = Tcedilla;
lastChange = "2025-07-23 13:46:43 +0000";
layers = (
{
anchors = (
{
name = bottom;
position = "{236, 0}";
},
{
name = center;
position = "{236, 375}";
},
{
name = top;
position = "{236, 645}";
}
);
components = (
{
name = T;
},
{
name = cedillacomb;
transform = "{1, 0, 0, 1, 149, 0}";
}
);
layerId = "F5421C71-FF83-445B-9C53-783D261A57C9";
width = 497;
},
{
anchors = (
{
name = bottom;
position = "{260, 0}";
},
{
name = center;
position = "{260, 375}";
},
{
name = top;
position = "{260, 645}";
}
);
layerId = "20F347C1-683B-45AE-B240-2F1F38013DFA";
paths = (
{
closed = 1;
nodes = (
"407 626 LINE",
"492 501 LINE",
"512 696 LINE",
"407 696 LINE"
);
},
{
closed = 1;
nodes = (
"189 696 LINE",
"186 0 LINE",
"332 0 LINE",
"332 696 LINE"
);
},
{
closed = 1;
nodes = (
"6 696 LINE",
"26 501 LINE",
"111 626 LINE",
"111 696 LINE"
);
},
{
closed = 1;
nodes = (
"192 -36 LINE",
"272 -36 LINE",
"348 -36 OFFCURVE",
"375 -80 OFFCURVE",
"375 -125 CURVE SMOOTH",
"375 -210 OFFCURVE",
"284 -218 OFFCURVE",
"248 -218 CURVE SMOOTH",
"216 -218 OFFCURVE",
"194 -212 OFFCURVE",
"176 -204 CURVE",
"182 -140 LINE",
"240 -167 LINE",
"248 -167 OFFCURVE",
"267 -167 OFFCURVE",
"273 -167 CURVE",
"273 -89 LINE",
"192 -89 LINE"
);
}
);
width = 522;
},
{
anchors = (
{
name = bottom;
position = "{236, 0}";
},
{
name = center;
position = "{236, 375}";
},
{
name = top;
position = "{236, 645}";
}
);
components = (
{
name = T;
},
{
name = cedillacomb;
transform = "{1, 0, 0, 1, 167, -17}";
}
);
layerId = "BB1D9E28-2A49-4EEB-AB77-8ACE100BF2E3";
width = 514;
},
{
anchors = (
{
name = bottom;
position = "{230, 0}";
},
{
name = center;
position = "{230, 375}";
},
{
name = top;
position = "{230, 645}";
}
);
components = (
{
name = T;
},
{
name = cedillacomb;
transform = "{1, 0, 0, 1, 123, 0}";
}
);
layerId = "C78A6D26-59D2-48D5-9C7D-482EE6030F02";
width = 462;
}
);
leftKerningGroup = T;
rightKerningGroup = T;
unicode = 0162;
},
{
glyphname = Tcommaaccent;
lastChange = "2025-07-23 13:46:44 +0000";
layers = (
{
anchors = (
{
name = bottom;
position = "{236, -105}";
},
{
name = center;
position = "{236, 375}";
},
{
name = top;
position = "{236, 645}";
}
);
components = (
{
name = T;
},
{
name = commaaccentcomb;
transform = "{1, 0, 0, 1, 151, 0}";
}
);
layerId = "F5421C71-FF83-445B-9C53-783D261A57C9";
width = 497;
},
{
anchors = (
{
name = bottom;
position = "{260, -105}";
},
{
name = center;
position = "{260, 375}";
},
{
name = top;
position = "{260, 645}";
}
);
layerId = "20F347C1-683B-45AE-B240-2F1F38013DFA";
paths = (
{
closed = 1;
nodes = (
"407 626 LINE",
"492 501 LINE",
"512 696 LINE",
"407 696 LINE"
);
},
{
closed = 1;
nodes = (
"189 696 LINE",
"186 0 LINE",
"332 0 LINE",
"332 696 LINE"
);
},
{
closed = 1;
nodes = (
"6 696 LINE",
"26 501 LINE",
"111 626 LINE",
"111 696 LINE"
);
},
{
closed = 1;
nodes = (
"197 -206 LINE",
"175 -312 LINE",
"250 -319 LINE",
"308 -134 LINE",
"209 -125 LINE"
);
}
);
width = 522;
},
{
anchors = (
{
name = bottom;
position = "{236, -105}";
},
{
name = center;
position = "{236, 375}";
},
{
name = top;
position = "{236, 645}";
}
);
components = (
{
name = T;
},
{
name = commaaccentcomb;
transform = "{1, 0, 0, 1, 166, -60}";
}
);
layerId = "BB1D9E28-2A49-4EEB-AB77-8ACE100BF2E3";
width = 514;
},
{
anchors = (
{
name = bottom;
position = "{230, -105}";
},
{
name = center;
position = "{230, 375}";
},
{
name = top;
position = "{230, 645}";
}
);
components = (
{
name = T;
},
{
name = commaaccentcomb;
transform = "{1, 0, 0, 1, 137, 0}";
}
);
layerId = "C78A6D26-59D2-48D5-9C7D-482EE6030F02";
width = 462;
}
);
leftKerningGroup = T;
rightKerningGroup = T;
unicode = 021A;
},
{
glyphname = U;
lastChange = "2025-07-23 15:51:59 +0000";
layers = (
{
anchors = (
{
name = bottom;
position = "{269, 0}";
},
{
name = ogonek;
position = "{362, 15}";
},
{
name = top;
position = "{259, 645}";
},
{
name = topright;
position = "{500, 645}";
}
);
background = {
paths = (
{
closed = 1;
nodes = (
"332 696 LINE",
"332 75 LINE",
"203 75 LINE",
"203 696 LINE",
"51 696 LINE",
"51 239 LINE",
"51 60 OFFCURVE",
"93 -9 OFFCURVE",
"241 -11 CURVE",
"284 -11 LINE",
"422 -11 OFFCURVE",
"458 72 OFFCURVE",
"458 251 CURVE",
"458 696 LINE"
);
}
);
};
layerId = "F5421C71-FF83-445B-9C53-783D261A57C9";
paths = (
{
closed = 1;
nodes = (
"332 696 LINE",
"332 75 LINE",
"203 75 LINE",
"203 696 LINE",
"58 697 LINE",
"58 160 LINE SMOOTH",
"58 65 OFFCURVE",
"85 -11 OFFCURVE",
"248 -11 CURVE SMOOTH",
"264 -11 LINE SMOOTH",
"410 -11 OFFCURVE",
"458 65 OFFCURVE",
"458 154 CURVE SMOOTH",
"458 696 LINE"
);
}
);
width = 516;
},
{
anchors = (
{
name = bottom;
position = "{275, 0}";
},
{
name = ogonek;
position = "{344, 15}";
},
{
name = top;
position = "{272, 645}";
},
{
name = topright;
position = "{506, 645}";
}
);
layerId = "20F347C1-683B-45AE-B240-2F1F38013DFA";
paths = (
{
closed = 1;
nodes = (
"308 -6 LINE",
"431 2 OFFCURVE",
"464 85 OFFCURVE",
"464 256 CURVE",
"464 696 LINE",
"338 696 LINE",
"338 80 LINE",
"308 80 LINE"
);
},
{
closed = 1;
nodes = (
"245 80 LINE",
"209 80 LINE",
"209 696 LINE",
"57 696 LINE",
"57 244 LINE",
"57 70 OFFCURVE",
"98 0 OFFCURVE",
"245 -6 CURVE"
);
}
);
width = 521;
},
{
anchors = (
{
name = bottom;
position = "{265, 0}";
},
{
name = ogonek;
position = "{358, 15}";
},
{
name = top;
position = "{262, 645}";
},
{
name = topright;
position = "{496, 645}";
}
);
layerId = "BB1D9E28-2A49-4EEB-AB77-8ACE100BF2E3";
paths = (
{
closed = 1;
nodes = (
"306 696 LINE",
"306 79 LINE",
"231 79 LINE",
"231 696 LINE",
"35 696 LINE",
"35 239 LINE SMOOTH",
"35 51 OFFCURVE",
"89 -15 OFFCURVE",
"254 -15 CURVE SMOOTH",
"277 -15 LINE SMOOTH",
"426 -15 OFFCURVE",
"476 55 OFFCURVE",
"476 251 CURVE SMOOTH",
"476 696 LINE"
);
}
);
width = 511;
},
{
anchors = (
{
name = bottom;
position = "{271, 0}";
},
{
name = ogonek;
position = "{340, 15}";
},
{
name = top;
position = "{271, 645}";
},
{
name = topright;
position = "{502, 645}";
}
);
layerId = "C78A6D26-59D2-48D5-9C7D-482EE6030F02";
paths = (
{
closed = 1;
nodes = (
"452 696 OFFCURVE",
"444 697 OFFCURVE",
"441 697 CURVE SMOOTH",
"405 697 OFFCURVE",
"347 699 OFFCURVE",
"332 694 CURVE",
"334 263 LINE",
"334 224 OFFCURVE",
"335 114 OFFCURVE",
"334 75 CURVE",
"211 75 LINE",
"210 98 OFFCURVE",
"209 182 OFFCURVE",
"209 254 CURVE",
"211 694 LINE",
"179 699 OFFCURVE",
"146 700 OFFCURVE",
"118 699 CURVE SMOOTH",
"97 698 OFFCURVE",
"74 697 OFFCURVE",
"58 694 CURVE",
"56 239 LINE",
"59 59 OFFCURVE",
"95 -8 OFFCURVE",
"244 -11 CURVE",
"290 -11 LINE",
"424 -6 OFFCURVE",
"461 67 OFFCURVE",
"462 251 CURVE",
"459 694 LINE"
);
}
);
width = 518;
}
);
leftKerningGroup = U;
leftMetricsKey = H;
rightKerningGroup = U;
rightMetricsKey = H;
unicode = 0055;
},
{
glyphname = Uacute;
lastChange = "2025-07-22 10:47:25 +0000";
layers = (
{
anchors = (
{
name = bottom;
position = "{275, 0}";
},
{
name = ogonek;
position = "{368, 15}";
},
{
name = top;
position = "{272, 645}";
},
{
name = topright;
position = "{506, 645}";
}
);
components = (
{
name = U;
},
{
alignment = -1;
name = acutecomb;
transform = "{1, 0, 0, 1, 224, 127}";
}
);
layerId = "F5421C71-FF83-445B-9C53-783D261A57C9";
width = 516;
},
{
anchors = (
{
name = bottom;
position = "{275, 0}";
},
{
name = ogonek;
position = "{344, 15}";
},
{
name = top;
position = "{272, 645}";
},
{
name = topright;
position = "{506, 645}";
}
);
layerId = "20F347C1-683B-45AE-B240-2F1F38013DFA";
paths = (
{
closed = 1;
nodes = (
"308 -11 LINE",
"431 -3 OFFCURVE",
"464 80 OFFCURVE",
"464 251 CURVE",
"464 696 LINE",
"338 696 LINE",
"338 75 LINE",
"308 75 LINE"
);
},
{
closed = 1;
nodes = (
"245 75 LINE",
"209 75 LINE",
"209 696 LINE",
"57 696 LINE",
"57 239 LINE",
"57 65 OFFCURVE",
"98 -5 OFFCURVE",
"245 -11 CURVE"
);
},
{
closed = 1;
nodes = (
"320 740 LINE",
"366 911 LINE",
"243 911 LINE",
"239 833 LINE",
"231 740 LINE"
);
}
);
width = 521;
},
{
anchors = (
{
name = bottom;
position = "{275, 0}";
},
{
name = ogonek;
position = "{368, 15}";
},
{
name = top;
position = "{272, 645}";
},
{
name = topright;
position = "{506, 645}";
}
);
components = (
{
name = U;
},
{
alignment = -1;
name = acutecomb;
transform = "{1, 0, 0, 1, 216, 127}";
}
);
layerId = "BB1D9E28-2A49-4EEB-AB77-8ACE100BF2E3";
width = 511;
},
{
anchors = (
{
name = bottom;
position = "{260, 0}";
},
{
name = ogonek;
position = "{329, 15}";
},
{
name = top;
position = "{260, 645}";
},
{
name = topright;
position = "{491, 645}";
}
);
components = (
{
name = U;
},
{
name = acutecomb;
transform = "{1, 0, 0, 1, 203, 127}";
}
);
layerId = "C78A6D26-59D2-48D5-9C7D-482EE6030F02";
width = 518;
}
);
leftKerningGroup = U;
rightKerningGroup = U;
unicode = 00DA;
},
{
glyphname = Ucircumflex;
lastChange = "2025-07-22 12:54:31 +0000";
layers = (
{
anchors = (
{
name = bottom;
position = "{275, 0}";
},
{
name = ogonek;
position = "{368, 15}";
},
{
name = top;
position = "{272, 645}";
},
{
name = topright;
position = "{506, 645}";
}
);
components = (
{
name = U;
},
{
name = circumflexcomb;
transform = "{1, 0, 0, 1, 118, 127}";
}
);
layerId = "F5421C71-FF83-445B-9C53-783D261A57C9";
width = 516;
},
{
anchors = (
{
name = bottom;
position = "{275, 0}";
},
{
name = ogonek;
position = "{344, 15}";
},
{
name = top;
position = "{272, 645}";
},
{
name = topright;
position = "{506, 645}";
}
);
layerId = "20F347C1-683B-45AE-B240-2F1F38013DFA";
paths = (
{
closed = 1;
nodes = (
"308 -11 LINE",
"431 -3 OFFCURVE",
"464 80 OFFCURVE",
"464 251 CURVE",
"464 696 LINE",
"338 696 LINE",
"338 75 LINE",
"308 75 LINE"
);
},
{
closed = 1;
nodes = (
"245 75 LINE",
"209 75 LINE",
"209 696 LINE",
"57 696 LINE",
"57 239 LINE",
"57 65 OFFCURVE",
"98 -5 OFFCURVE",
"245 -11 CURVE"
);
},
{
closed = 1;
nodes = (
"324 737 LINE",
"413 737 LINE",
"375 842 LINE",
"348 914 LINE",
"290 914 LINE",
"290 827 LINE"
);
},
{
closed = 1;
nodes = (
"194 914 LINE",
"167 842 LINE",
"131 737 LINE",
"219 737 LINE",
"254 825 LINE",
"254 914 LINE"
);
}
);
width = 521;
},
{
anchors = (
{
name = bottom;
position = "{275, 0}";
},
{
name = ogonek;
position = "{368, 15}";
},
{
name = top;
position = "{272, 645}";
},
{
name = topright;
position = "{506, 645}";
}
);
components = (
{
name = U;
},
{
name = circumflexcomb;
transform = "{1, 0, 0, 1, 98, 127}";
}
);
layerId = "BB1D9E28-2A49-4EEB-AB77-8ACE100BF2E3";
width = 511;
},
{
anchors = (
{
name = bottom;
position = "{260, 0}";
},
{
name = ogonek;
position = "{329, 15}";
},
{
name = top;
position = "{260, 645}";
},
{
name = topright;
position = "{491, 645}";
}
);
components = (
{
name = U;
},
{
name = circumflexcomb;
transform = "{1, 0, 0, 1, 140, 127}";
}
);
layerId = "C78A6D26-59D2-48D5-9C7D-482EE6030F02";
width = 518;
}
);
leftKerningGroup = U;
rightKerningGroup = U;
unicode = 00DB;
},
{
glyphname = Udieresis;
lastChange = "2025-07-22 10:47:25 +0000";
layers = (
{
anchors = (
{
name = bottom;
position = "{275, 0}";
},
{
name = ogonek;
position = "{368, 15}";
},
{
name = top;
position = "{272, 645}";
},
{
name = topright;
position = "{506, 645}";
}
);
components = (
{
name = U;
},
{
name = dieresiscomb;
transform = "{1, 0, 0, 1, 99, 127}";
}
);
layerId = "F5421C71-FF83-445B-9C53-783D261A57C9";
width = 516;
},
{
anchors = (
{
name = bottom;
position = "{275, 0}";
},
{
name = ogonek;
position = "{344, 15}";
},
{
name = top;
position = "{272, 645}";
},
{
name = topright;
position = "{506, 645}";
}
);
layerId = "20F347C1-683B-45AE-B240-2F1F38013DFA";
paths = (
{
closed = 1;
nodes = (
"308 -11 LINE",
"431 -3 OFFCURVE",
"464 80 OFFCURVE",
"464 251 CURVE",
"464 696 LINE",
"338 696 LINE",
"338 75 LINE",
"308 75 LINE"
);
},
{
closed = 1;
nodes = (
"245 75 LINE",
"209 75 LINE",
"209 696 LINE",
"57 696 LINE",
"57 239 LINE",
"57 65 OFFCURVE",
"98 -5 OFFCURVE",
"245 -11 CURVE"
);
},
{
closed = 1;
nodes = (
"246 788 LINE",
"251 915 LINE",
"117 915 LINE",
"119 788 LINE"
);
},
{
closed = 1;
nodes = (
"426 788 LINE",
"431 915 LINE",
"297 915 LINE",
"299 788 LINE"
);
}
);
width = 521;
},
{
anchors = (
{
name = bottom;
position = "{275, 0}";
},
{
name = ogonek;
position = "{368, 15}";
},
{
name = top;
position = "{272, 645}";
},
{
name = topright;
position = "{506, 645}";
}
);
components = (
{
name = U;
},
{
name = dieresiscomb;
transform = "{1, 0, 0, 1, 85, 127}";
}
);
layerId = "BB1D9E28-2A49-4EEB-AB77-8ACE100BF2E3";
width = 511;
},
{
anchors = (
{
name = bottom;
position = "{260, 0}";
},
{
name = ogonek;
position = "{329, 15}";
},
{
name = top;
position = "{260, 645}";
},
{
name = topright;
position = "{491, 645}";
}
);
components = (
{
name = U;
},
{
name = dieresiscomb;
transform = "{1, 0, 0, 1, 93, 127}";
}
);
layerId = "C78A6D26-59D2-48D5-9C7D-482EE6030F02";
width = 518;
}
);
leftKerningGroup = U;
rightKerningGroup = U;
unicode = 00DC;
},
{
glyphname = Ugrave;
lastChange = "2025-07-23 11:50:51 +0000";
layers = (
{
anchors = (
{
name = bottom;
position = "{275, 0}";
},
{
name = ogonek;
position = "{368, 15}";
},
{
name = top;
position = "{272, 645}";
},
{
name = topright;
position = "{506, 645}";
}
);
components = (
{
name = U;
},
{
name = gravecomb;
transform = "{1, 0, 0, 1, 138, 127}";
}
);
layerId = "F5421C71-FF83-445B-9C53-783D261A57C9";
width = 516;
},
{
anchors = (
{
name = bottom;
position = "{275, 0}";
},
{
name = ogonek;
position = "{344, 15}";
},
{
name = top;
position = "{272, 645}";
},
{
name = topright;
position = "{506, 645}";
}
);
layerId = "20F347C1-683B-45AE-B240-2F1F38013DFA";
paths = (
{
closed = 1;
nodes = (
"308 -11 LINE",
"431 -3 OFFCURVE",
"464 80 OFFCURVE",
"464 251 CURVE",
"464 696 LINE",
"338 696 LINE",
"338 75 LINE",
"308 75 LINE"
);
},
{
closed = 1;
nodes = (
"245 75 LINE",
"209 75 LINE",
"209 696 LINE",
"57 696 LINE",
"57 239 LINE",
"57 65 OFFCURVE",
"98 -5 OFFCURVE",
"245 -11 CURVE"
);
},
{
closed = 1;
nodes = (
"302 848 LINE",
"300 932 LINE",
"177 932 LINE",
"197 851 LINE",
"227 755 LINE",
"315 755 LINE"
);
}
);
width = 521;
},
{
anchors = (
{
name = bottom;
position = "{275, 0}";
},
{
name = ogonek;
position = "{368, 15}";
},
{
name = top;
position = "{272, 645}";
},
{
name = topright;
position = "{506, 645}";
}
);
components = (
{
name = U;
},
{
alignment = -1;
name = gravecomb;
transform = "{1, 0, 0, 1, 182, 127}";
}
);
layerId = "BB1D9E28-2A49-4EEB-AB77-8ACE100BF2E3";
width = 511;
},
{
anchors = (
{
name = bottom;
position = "{260, 0}";
},
{
name = ogonek;
position = "{329, 15}";
},
{
name = top;
position = "{260, 645}";
},
{
name = topright;
position = "{491, 645}";
}
);
components = (
{
name = U;
},
{
name = gravecomb;
transform = "{1, 0, 0, 1, 203, 127}";
}
);
layerId = "C78A6D26-59D2-48D5-9C7D-482EE6030F02";
width = 518;
}
);
leftKerningGroup = U;
rightKerningGroup = U;
unicode = 00D9;
},
{
glyphname = Uhungarumlaut;
lastChange = "2025-07-22 10:47:25 +0000";
layers = (
{
anchors = (
{
name = bottom;
position = "{275, 0}";
},
{
name = ogonek;
position = "{368, 15}";
},
{
name = top;
position = "{272, 645}";
},
{
name = topright;
position = "{506, 645}";
}
);
components = (
{
name = U;
},
{
alignment = -1;
name = hungarumlautcomb;
transform = "{1, 0, 0, 1, 48, 127}";
}
);
layerId = "F5421C71-FF83-445B-9C53-783D261A57C9";
width = 516;
},
{
anchors = (
{
name = bottom;
position = "{275, 0}";
},
{
name = ogonek;
position = "{344, 15}";
},
{
name = top;
position = "{272, 645}";
},
{
name = topright;
position = "{506, 645}";
}
);
layerId = "20F347C1-683B-45AE-B240-2F1F38013DFA";
paths = (
{
closed = 1;
nodes = (
"308 -11 LINE",
"431 -3 OFFCURVE",
"464 80 OFFCURVE",
"464 251 CURVE",
"464 696 LINE",
"338 696 LINE",
"338 75 LINE",
"308 75 LINE"
);
},
{
closed = 1;
nodes = (
"245 75 LINE",
"209 75 LINE",
"209 696 LINE",
"57 696 LINE",
"57 239 LINE",
"57 65 OFFCURVE",
"98 -5 OFFCURVE",
"245 -11 CURVE"
);
},
{
closed = 1;
nodes = (
"239 755 LINE",
"269 851 LINE",
"288 932 LINE",
"165 932 LINE",
"164 848 LINE",
"150 755 LINE"
);
},
{
closed = 1;
nodes = (
"419 755 LINE",
"449 851 LINE",
"468 932 LINE",
"345 932 LINE",
"344 848 LINE",
"330 755 LINE"
);
}
);
width = 521;
},
{
anchors = (
{
name = bottom;
position = "{275, 0}";
},
{
name = ogonek;
position = "{368, 15}";
},
{
name = top;
position = "{272, 645}";
},
{
name = topright;
position = "{506, 645}";
}
);
components = (
{
name = U;
},
{
name = hungarumlautcomb;
transform = "{1, 0, 0, 1, 97, 127}";
}
);
layerId = "BB1D9E28-2A49-4EEB-AB77-8ACE100BF2E3";
width = 511;
},
{
anchors = (
{
name = bottom;
position = "{260, 0}";
},
{
name = ogonek;
position = "{329, 15}";
},
{
name = top;
position = "{260, 645}";
},
{
name = topright;
position = "{491, 645}";
}
);
components = (
{
name = U;
},
{
name = hungarumlautcomb;
transform = "{1, 0, 0, 1, 32, 127}";
}
);
layerId = "C78A6D26-59D2-48D5-9C7D-482EE6030F02";
width = 518;
}
);
leftKerningGroup = U;
rightKerningGroup = U;
unicode = 0170;
},
{
glyphname = Umacron;
lastChange = "2025-07-22 10:47:25 +0000";
layers = (
{
anchors = (
{
name = bottom;
position = "{275, 0}";
},
{
name = ogonek;
position = "{368, 15}";
},
{
name = top;
position = "{272, 645}";
},
{
name = topright;
position = "{506, 645}";
}
);
components = (
{
name = U;
},
{
name = macroncomb;
transform = "{1, 0, 0, 1, 116, 127}";
}
);
layerId = "F5421C71-FF83-445B-9C53-783D261A57C9";
width = 516;
},
{
anchors = (
{
name = bottom;
position = "{275, 0}";
},
{
name = ogonek;
position = "{344, 15}";
},
{
name = top;
position = "{272, 645}";
},
{
name = topright;
position = "{506, 645}";
}
);
layerId = "20F347C1-683B-45AE-B240-2F1F38013DFA";
paths = (
{
closed = 1;
nodes = (
"308 -11 LINE",
"431 -3 OFFCURVE",
"464 80 OFFCURVE",
"464 251 CURVE",
"464 696 LINE",
"338 696 LINE",
"338 75 LINE",
"308 75 LINE"
);
},
{
closed = 1;
nodes = (
"245 75 LINE",
"209 75 LINE",
"209 696 LINE",
"57 696 LINE",
"57 239 LINE",
"57 65 OFFCURVE",
"98 -5 OFFCURVE",
"245 -11 CURVE"
);
},
{
closed = 1;
nodes = (
"134 792 LINE",
"408 792 LINE",
"408 885 LINE",
"134 885 LINE"
);
}
);
width = 521;
},
{
anchors = (
{
name = bottom;
position = "{275, 0}";
},
{
name = ogonek;
position = "{368, 15}";
},
{
name = top;
position = "{272, 645}";
},
{
name = topright;
position = "{506, 645}";
}
);
components = (
{
name = U;
},
{
name = macroncomb;
transform = "{1, 0, 0, 1, 119, 127}";
}
);
layerId = "BB1D9E28-2A49-4EEB-AB77-8ACE100BF2E3";
width = 511;
},
{
anchors = (
{
name = bottom;
position = "{260, 0}";
},
{
name = ogonek;
position = "{329, 15}";
},
{
name = top;
position = "{260, 645}";
},
{
name = topright;
position = "{491, 645}";
}
);
components = (
{
name = U;
},
{
name = macroncomb;
transform = "{1, 0, 0, 1, 128, 127}";
}
);
layerId = "C78A6D26-59D2-48D5-9C7D-482EE6030F02";
width = 518;
}
);
leftKerningGroup = U;
rightKerningGroup = U;
unicode = 016A;
},
{
glyphname = Uogonek;
lastChange = "2025-07-22 10:47:25 +0000";
layers = (
{
anchors = (
{
name = _ogonek;
position = "{395, 15}";
},
{
name = bottom;
position = "{275, 0}";
},
{
name = ogonek;
position = "{368, 15}";
},
{
name = top;
position = "{272, 645}";
},
{
name = topright;
position = "{506, 645}";
}
);
components = (
{
name = U;
}
);
layerId = "F5421C71-FF83-445B-9C53-783D261A57C9";
paths = (
{
closed = 1;
nodes = (
"344 24 LINE",
"279 23 OFFCURVE",
"177 -21 OFFCURVE",
"177 -126 CURVE SMOOTH",
"177 -209 OFFCURVE",
"237 -233 OFFCURVE",
"285 -233 CURVE SMOOTH",
"321 -233 OFFCURVE",
"341 -224 OFFCURVE",
"356 -218 CURVE",
"356 -132 LINE",
"284 -134 LINE",
"284 -39 LINE",
"284 -35 OFFCURVE",
"315 -14 OFFCURVE",
"351 -4 CURVE"
);
}
);
width = 521;
},
{
anchors = (
{
name = bottom;
position = "{275, 0}";
},
{
name = ogonek;
position = "{344, 15}";
},
{
name = top;
position = "{272, 645}";
},
{
name = topright;
position = "{506, 645}";
}
);
layerId = "20F347C1-683B-45AE-B240-2F1F38013DFA";
paths = (
{
closed = 1;
nodes = (
"308 -11 LINE",
"431 -3 OFFCURVE",
"464 80 OFFCURVE",
"464 251 CURVE",
"464 696 LINE",
"338 696 LINE",
"338 75 LINE",
"308 75 LINE"
);
},
{
closed = 1;
nodes = (
"245 75 LINE",
"209 75 LINE",
"209 696 LINE",
"57 696 LINE",
"57 239 LINE",
"57 65 OFFCURVE",
"98 -5 OFFCURVE",
"245 -11 CURVE"
);
},
{
closed = 1;
nodes = (
"333 24 LINE",
"269 23 OFFCURVE",
"167 -21 OFFCURVE",
"167 -126 CURVE SMOOTH",
"167 -209 OFFCURVE",
"227 -233 OFFCURVE",
"275 -233 CURVE SMOOTH",
"311 -233 OFFCURVE",
"330 -224 OFFCURVE",
"345 -218 CURVE",
"345 -132 LINE",
"273 -134 LINE",
"273 -39 LINE",
"273 -35 OFFCURVE",
"305 -14 OFFCURVE",
"341 12 CURVE"
);
}
);
width = 521;
},
{
anchors = (
{
name = _ogonek;
position = "{399, 15}";
},
{
name = bottom;
position = "{275, 0}";
},
{
name = ogonek;
position = "{368, 15}";
},
{
name = top;
position = "{272, 645}";
},
{
name = topright;
position = "{506, 645}";
}
);
components = (
{
name = U;
}
);
layerId = "BB1D9E28-2A49-4EEB-AB77-8ACE100BF2E3";
paths = (
{
closed = 1;
nodes = (
"366 16 LINE",
"267 4 OFFCURVE",
"159 -9 OFFCURVE",
"159 -127 CURVE SMOOTH",
"159 -196 OFFCURVE",
"200 -238 OFFCURVE",
"279 -238 CURVE SMOOTH",
"310 -238 OFFCURVE",
"340 -232 OFFCURVE",
"382 -219 CURVE",
"382 -128 LINE",
"310 -130 LINE",
"310 -39 LINE SMOOTH",
"310 -30 OFFCURVE",
"311 -33 OFFCURVE",
"374 1 CURVE"
);
}
);
width = 511;
},
{
anchors = (
{
name = bottom;
position = "{260, 0}";
},
{
name = ogonek;
position = "{329, 15}";
},
{
name = top;
position = "{260, 645}";
},
{
name = topright;
position = "{491, 645}";
}
);
components = (
{
name = U;
},
{
name = ogonekcomb;
transform = "{1, 0, 0, 1, -64, 0}";
}
);
layerId = "C78A6D26-59D2-48D5-9C7D-482EE6030F02";
width = 518;
}
);
leftKerningGroup = U;
rightKerningGroup = U;
unicode = 0172;
},
{
glyphname = Uring;
lastChange = "2025-07-22 10:47:25 +0000";
layers = (
{
anchors = (
{
name = bottom;
position = "{275, 0}";
},
{
name = ogonek;
position = "{368, 15}";
},
{
name = top;
position = "{272, 645}";
},
{
name = topright;
position = "{506, 645}";
}
);
components = (
{
name = U;
},
{
name = ringcomb;
transform = "{1, 0, 0, 1, 167, 127}";
}
);
layerId = "F5421C71-FF83-445B-9C53-783D261A57C9";
width = 516;
},
{
anchors = (
{
name = bottom;
position = "{275, 0}";
},
{
name = ogonek;
position = "{344, 15}";
},
{
name = top;
position = "{272, 645}";
},
{
name = topright;
position = "{506, 645}";
}
);
layerId = "20F347C1-683B-45AE-B240-2F1F38013DFA";
paths = (
{
closed = 1;
nodes = (
"308 -11 LINE",
"431 -3 OFFCURVE",
"464 80 OFFCURVE",
"464 251 CURVE",
"464 696 LINE",
"338 696 LINE",
"338 75 LINE",
"308 75 LINE"
);
},
{
closed = 1;
nodes = (
"245 75 LINE",
"209 75 LINE",
"209 696 LINE",
"57 696 LINE",
"57 239 LINE",
"57 65 OFFCURVE",
"98 -5 OFFCURVE",
"245 -11 CURVE"
);
},
{
closed = 1;
nodes = (
"273 773 LINE",
"273 773 LINE",
"233 773 LINE",
"233 852 LINE",
"207 903 LINE",
"188 887 OFFCURVE",
"170 855 OFFCURVE",
"170 821 CURVE SMOOTH",
"170 767 OFFCURVE",
"206 723 OFFCURVE",
"258 723 CURVE SMOOTH",
"264 723 OFFCURVE",
"291 725 OFFCURVE",
"297 726 CURVE"
);
},
{
closed = 1;
nodes = (
"317 740 LINE",
"335 756 OFFCURVE",
"353 786 OFFCURVE",
"353 821 CURVE SMOOTH",
"353 875 OFFCURVE",
"317 918 OFFCURVE",
"267 918 CURVE SMOOTH",
"260 918 OFFCURVE",
"233 917 OFFCURVE",
"227 915 CURVE SMOOTH",
"227 915 OFFCURVE",
"227 915 OFFCURVE",
"227 915 CURVE",
"251 869 LINE",
"285 869 LINE",
"285 801 LINE"
);
},
{
closed = 1;
nodes = (
"207 903 LINE",
"207 903 OFFCURVE",
"207 903 OFFCURVE",
"207 903 CURVE",
"233 852 LINE",
"233 854 LINE"
);
}
);
width = 521;
},
{
anchors = (
{
name = bottom;
position = "{275, 0}";
},
{
name = ogonek;
position = "{368, 15}";
},
{
name = top;
position = "{272, 645}";
},
{
name = topright;
position = "{506, 645}";
}
);
components = (
{
name = U;
},
{
name = ringcomb;
transform = "{1, 0, 0, 1, 170, 127}";
}
);
layerId = "BB1D9E28-2A49-4EEB-AB77-8ACE100BF2E3";
width = 511;
},
{
anchors = (
{
name = bottom;
position = "{260, 0}";
},
{
name = ogonek;
position = "{329, 15}";
},
{
name = top;
position = "{260, 645}";
},
{
name = topright;
position = "{491, 645}";
}
);
components = (
{
name = U;
},
{
name = ringcomb;
transform = "{1, 0, 0, 1, -191, 127}";
}
);
layerId = "C78A6D26-59D2-48D5-9C7D-482EE6030F02";
width = 518;
}
);
leftKerningGroup = U;
rightKerningGroup = U;
unicode = 016E;
},
{
color = 3;
glyphname = V;
lastChange = "2025-07-23 15:47:56 +0000";
layers = (
{
anchors = (
{
name = bottom;
position = "{274, 0}";
},
{
name = top;
position = "{274, 645}";
}
);
background = {
paths = (
{
closed = 1;
nodes = (
"333 0 LINE",
"502 696 LINE",
"355 696 LINE",
"367 563 LINE",
"289 170 LINE",
"190 696 LINE",
"30 696 LINE",
"195 0 LINE"
);
}
);
};
layerId = "F5421C71-FF83-445B-9C53-783D261A57C9";
paths = (
{
closed = 1;
nodes = (
"334 0 LINE",
"502 696 LINE",
"346 696 LINE",
"367 563 LINE",
"287 170 LINE",
"284 170 LINE",
"193 696 LINE",
"30 696 LINE",
"196 0 LINE"
);
}
);
width = 532;
},
{
anchors = (
{
name = bottom;
position = "{246, 0}";
},
{
name = top;
position = "{246, 645}";
}
);
guideLines = (
{
angle = 101.1357;
position = "{291, 348}";
}
);
layerId = "20F347C1-683B-45AE-B240-2F1F38013DFA";
paths = (
{
closed = 1;
nodes = (
"162 696 LINE",
"2 696 LINE",
"167 0 LINE",
"299 0 LINE"
);
},
{
closed = 1;
nodes = (
"332 132 LINE",
"474 696 LINE",
"327 696 LINE",
"339 563 LINE",
"294 341 LINE"
);
}
);
width = 468;
},
{
anchors = (
{
name = bottom;
position = "{252, 0}";
},
{
name = top;
position = "{252, 645}";
}
);
layerId = "BB1D9E28-2A49-4EEB-AB77-8ACE100BF2E3";
paths = (
{
closed = 1;
nodes = (
"311 696 LINE",
"323 558 LINE",
"268 282 LINE",
"189 696 LINE",
"-15 696 LINE",
"152 0 LINE",
"332 0 LINE",
"503 696 LINE"
);
}
);
width = 488;
},
{
anchors = (
{
name = bottom;
position = "{266, 0}";
},
{
name = top;
position = "{266, 645}";
}
);
layerId = "C78A6D26-59D2-48D5-9C7D-482EE6030F02";
paths = (
{
closed = 1;
nodes = (
"285 164 OFFCURVE",
"255 327 OFFCURVE",
"230 446 CURVE",
"187 668 LINE",
"182 690 LINE",
"167 696 OFFCURVE",
"151 698 OFFCURVE",
"131 699 CURVE SMOOTH",
"92 702 OFFCURVE",
"76 704 OFFCURVE",
"19 681 CURVE",
"86 410 OFFCURVE",
"141 188 OFFCURVE",
"191 -2 CURVE",
"314 -2 LINE"
);
},
{
closed = 1;
nodes = (
"319 -2 LINE",
"363 159 OFFCURVE",
"403 305 OFFCURVE",
"444 458 CURVE",
"466 528 OFFCURVE",
"479 602 OFFCURVE",
"494 677 CURVE SMOOTH",
"495 683 OFFCURVE",
"496 684 OFFCURVE",
"497 690 CURVE",
"488 695 OFFCURVE",
"424 708 OFFCURVE",
"358 693 CURVE",
"355 506 LINE",
"322 353 OFFCURVE",
"287 192 OFFCURVE",
"242 2 CURVE"
);
}
);
width = 512;
}
);
leftKerningGroup = V;
rightKerningGroup = V;
unicode = 0056;
},
